<svg xmlns="http://www.w3.org/2000/svg" width="70" height="46" viewBox="0 0 70 46">
    <g fill="none" fill-rule="nonzero">
        <path d="M1.378 1.494h66.43v42.685H1.378z"/>
        <path fill="#F05562" d="M34.593 31.933L67.808 1.495H1.378z"/>
        <path fill="#FFF" d="M67.808.116H1.378C.618.116 0 .733 0 1.495v42.684c0 .762.617 1.379 1.378 1.379h66.43c.761 0 1.379-.617 1.379-1.379V1.495c0-.762-.618-1.379-1.379-1.379zM66.43 41.19l-13.595-9.69a1.378 1.378 0 1 0-1.6 2.245l12.708 9.057h-58.7l22.034-15.703 6.385 5.851a1.375 1.375 0 0 0 1.863 0L66.43 4.627v36.562zM2.756 4.627L25.2 25.194 2.756 41.189V4.627zm61.509-1.754l-29.672 27.19L4.922 2.874h59.343z"/>
        <path fill="#FFF" d="M46 29.724a1.698 1.698 0 0 1 .133-.658 1.702 1.702 0 0 1 .372-.56 1.761 1.761 0 0 1 .56-.375 1.743 1.743 0 0 1 .659-.131 1.695 1.695 0 0 1 .659.131 1.708 1.708 0 0 1 .932.933 1.7 1.7 0 0 1 0 1.319 1.713 1.713 0 0 1-1.255 1.03 1.698 1.698 0 0 1-1.293-.256 1.65 1.65 0 0 1-.476-.476 1.702 1.702 0 0 1-.257-.62 1.698 1.698 0 0 1-.034-.337z"/>
    </g>
</svg>
