<svg xmlns="http://www.w3.org/2000/svg" width="70" height="70" viewBox="0 0 70 70">
    <g fill="none" fill-rule="nonzero">
        <path d="M39.12 1.365c-10.122 0-19.048 5.118-24.331 12.907.368.234.722.518 1.057.85l.017.015a59.357 59.357 0 0 1 2.348 2.324c.361.385.75.775 1.127 1.152l3.506 3.505c2.398 2.4 2.398 5.38 0 7.779a82.26 82.26 0 0 0-.52.525c-.18.184-.36.368-.542.549l-.27.274c-.843.856-1.715 1.74-2.64 2.586l-.364.334.203.45c.804 1.78 1.883 3.484 3.498 5.525 3.31 4.066 6.764 7.213 10.568 9.63.396.245.836.465 1.302.698l.32.165c.213.11.428.22.644.336l.447.24 4.351-4.337c1.143-1.143 2.47-1.747 3.84-1.747 1.373 0 2.68.605 3.778 1.749l6.946 6.97c.422.418.77.863 1.042 1.328 7.87-5.27 13.052-14.243 13.052-24.427 0-16.226-13.154-29.38-29.38-29.38z"/>
        <path d="M43.731 68.5c-.24 0-.508-.013-.763-.025-4.166-.267-7.992-1.861-10.86-3.22-7.506-3.629-14.09-8.785-19.567-15.325-4.49-5.397-7.524-10.457-9.55-15.921-.816-2.202-1.868-5.538-1.577-9.082.187-2.113 1.043-3.948 2.544-5.449l4.317-4.354c1.135-1.088 2.455-1.663 3.818-1.663 1.358 0 2.656.574 3.753 1.66l.017.016a59.357 59.357 0 0 1 2.348 2.324c.361.385.75.775 1.127 1.152l3.506 3.505c2.398 2.4 2.398 5.38 0 7.779a82.26 82.26 0 0 0-.52.525c-.18.184-.36.368-.542.548l-.27.275c-.843.856-1.715 1.74-2.64 2.586l-.364.334.203.45c.804 1.78 1.883 3.484 3.498 5.525 3.31 4.066 6.764 7.213 10.568 9.629.396.246.836.466 1.302.7l.32.164c.213.11.428.22.644.336l.447.24 4.351-4.337c1.143-1.143 2.47-1.747 3.84-1.747 1.373 0 2.68.605 3.778 1.749l6.946 6.97c1.143 1.132 1.746 2.463 1.746 3.852 0 1.383-.594 2.73-1.717 3.899-.46.48-.959.977-1.622 1.61l-.157.152c-.756.73-1.47 1.42-2.109 2.193l-.013.016a.767.767 0 0 0-.044.053c-1.776 1.911-4.05 2.88-6.758 2.88z"/>
        <path d="M19.338 18.614l3.506 3.505c2.398 2.399 2.398 5.38 0 7.778-.174.173-.346.35-.52.525-.18.184-.36.368-.542.549l-.27.274c-.843.856-1.715 1.74-2.64 2.587l-.364.333.203.45c.804 1.78 1.883 3.484 3.498 5.525 3.31 4.066 6.764 7.213 10.568 9.63.396.245.836.466 1.302.699l.32.165c.213.108.428.219.644.335l.447.24 4.351-4.337c1.143-1.143 2.47-1.747 3.84-1.747 1.373 0 2.68.605 3.778 1.749l4.212 4.227c6.818-4.22 11.37-11.766 11.37-20.356 0-13.19-10.731-23.922-23.922-23.922-8.55 0-16.064 4.51-20.295 11.273.171.174.344.347.514.518z"/>
        <path fill="#FFF" d="M36.47 59.302c-.218 0-.44-.052-.646-.163l-4.014-2.162a27.91 27.91 0 0 0-.489-.255l-.033-.017a80.127 80.127 0 0 1-.304-.156 21.895 21.895 0 0 1-1.806-.984l-.054-.034c-4.437-2.818-8.428-6.442-12.206-11.084l-.053-.066c-1.67-2.11-2.89-3.97-3.848-5.863a1.364 1.364 0 1 1 2.435-1.233c.873 1.726 2 3.44 3.547 5.395l.04.051c3.585 4.404 7.363 7.839 11.543 10.494l.043.027c.548.34 1.125.629 1.589.86l.015.009.303.156.035.017c.176.09.356.183.536.28l4.015 2.162a1.365 1.365 0 0 1-.648 2.566zM12.042 34.446a1.368 1.368 0 0 1-1.135-2.122 1.394 1.394 0 0 1 .612-.503 1.35 1.35 0 0 1 1.28.126 1.375 1.375 0 0 1 .58 1.401 1.378 1.378 0 0 1-.58.868 1.347 1.347 0 0 1-.49.203 1.344 1.344 0 0 1-.267.027z"/>
        <path fill="#FFF" d="M69.864 30.745c0-8.213-3.198-15.933-9.005-21.74C55.052 3.198 47.33 0 39.119 0a30.733 30.733 0 0 0-24.763 12.526 6.19 6.19 0 0 0-2.263-.43c-1.721 0-3.368.707-4.762 2.042l-4.338 4.375C1.26 20.247.271 22.364.054 24.815c-.313 3.815.796 7.345 1.658 9.668 2.08 5.613 5.188 10.8 9.782 16.323 5.602 6.689 12.338 11.963 20.03 15.682 2.977 1.41 6.959 3.066 11.357 3.348.292.015.579.028.85.028 3.103 0 5.713-1.116 7.758-3.316.7-.843 1.386-1.507 2.114-2.21l.152-.146a50.33 50.33 0 0 0 1.663-1.651c1.372-1.427 2.098-3.103 2.098-4.845 0-.705-.122-1.396-.355-2.06a30.709 30.709 0 0 0 12.703-24.891zM53.448 60.653c-.446.466-.932.948-1.583 1.57l-.159.153c-.783.757-1.522 1.471-2.208 2.302-1.543 1.646-3.469 2.457-5.767 2.457-.207 0-.451-.011-.686-.023-3.931-.254-7.597-1.785-10.342-3.086-7.333-3.544-13.765-8.582-19.113-14.968-4.388-5.276-7.35-10.209-9.319-15.524-.771-2.08-1.766-5.222-1.498-8.487.159-1.787.882-3.336 2.154-4.608l4.304-4.341c.873-.832 1.862-1.272 2.862-1.272.681 0 1.35.207 1.974.605a4.607 4.607 0 0 1 .583.44 59.214 59.214 0 0 1 2.573 2.53c.205.22.415.437.628.652l.52.524 3.508 3.507c.523.522.898 1.067 1.127 1.62.584 1.416.209 2.893-1.127 4.229-.176.176-.352.354-.528.533-.177.181-.355.362-.54.547l-.271.275c-.83.843-1.689 1.714-2.588 2.537l-.365.334a1.365 1.365 0 0 0-.323 1.569l.204.45c.107.236.217.47.333.703.81 1.635 1.862 3.24 3.338 5.106 3.413 4.194 6.977 7.439 10.907 9.934.456.284.918.516 1.407.76l.324.167c.204.104.412.21.62.323l.446.24.172.077c.146.046.151.047.156.048l.167.029c.16.01.168.008.177.008.158-.012.186-.016.213-.02l.158-.038c.166-.062.197-.077.227-.092.12-.07.133-.079.145-.087.133-.102.165-.13.195-.16l4.353-4.34c.881-.88 1.875-1.346 2.875-1.346.992 0 1.959.46 2.794 1.33l4.23 4.244 2.74 2.75a6.204 6.204 0 0 1 .453.506 5.516 5.516 0 0 1 .358.521c.35.594.53 1.22.53 1.856 0 1.022-.461 2.043-1.338 2.956zm-5.013-14.734a8.312 8.312 0 0 0-.457-.438c-.102-.091-.139-.12-.175-.15-.054-.046-.108-.092-.163-.136a9.858 9.858 0 0 0-.276-.209c-.941-.674-1.962-1.075-3.032-1.19a6.808 6.808 0 0 0-.651-.035c-1.74 0-3.4.742-4.803 2.145l-3.638 3.626-.218-.113a74.09 74.09 0 0 1-.315-.162 50.342 50.342 0 0 1-.512-.26l-.133-.068a8.07 8.07 0 0 1-.559-.315 37.233 37.233 0 0 1-2.985-2.114c-2.486-1.947-4.836-4.278-7.115-7.057l-.13-.156c-1.403-1.775-2.378-3.273-3.111-4.79.813-.762 1.578-1.54 2.322-2.294l.262-.266c.184-.184.368-.371.552-.558.17-.173.34-.347.51-.517 1.843-1.843 2.534-4.022 2.074-6.118a6.152 6.152 0 0 0-.285-.936 7.35 7.35 0 0 0-1.112-1.896c-3.214-3.23-4.518-4.56-3.912-3.993 4.23-6.114 11.086-9.732 18.546-9.732 12.438 0 22.558 10.12 22.558 22.558 0 7.504-3.652 14.383-9.821 18.607l-3.421-3.433zm7.32 7.368l-.16-.175a8.672 8.672 0 0 0-.223-.231l-1.563-1.569a25.522 25.522 0 0 0 7.289-8.074 25.246 25.246 0 0 0 3.307-12.493c0-13.943-11.343-25.287-25.286-25.287a25.25 25.25 0 0 0-12.44 3.278 25.526 25.526 0 0 0-8.044 7.204 52.003 52.003 0 0 0-1.838-1.798 8.437 8.437 0 0 0-.143-.138A28.007 28.007 0 0 1 39.119 2.73c15.448 0 28.016 12.568 28.016 28.016 0 8.93-4.23 17.261-11.38 22.542z"/>
        <path fill="#F0514D" d="M35.378 32.382h-2.902c.115-.29.62-.635 1.149-.997 1.073-.735 2.544-1.741 2.544-3.445 0-1.763-1.56-2.715-3.029-2.715-1.427 0-2.944.888-2.944 2.535 0 .992.58 1.2 1.068 1.2.787 0 1.212-.47 1.212-.911 0-.45.228-.677.677-.677.655 0 .688.524.688.629 0 .609-.802 1.198-1.652 1.821-1.05.771-2.137 1.569-2.137 2.677v1.167c0 .517.617.803 1.044.803h4.282c.429 0 .79-.483.79-1.055 0-.56-.361-1.032-.79-1.032z"/>
        <path fill="#F0514D" d="M41.789 30.433h-.292v-.616c0-.48-.457-.791-1.163-.791-.707 0-1.164.31-1.164.79v.617h-.445l1.972-3.955c.041-.095.079-.2.079-.318 0-.605-.769-.935-1.164-.935-.432 0-.781.214-.983.604l-2.775 5.443a.994.994 0 0 0-.124.47c0 .515.35.875.85.875h2.59v1.049c0 .473.478.803 1.164.803.685 0 1.163-.33 1.163-.803v-1.05h.292c.46 0 .803-.576.803-1.091 0-.643-.33-1.092-.803-1.092zM48.645 28.22c-.54 0-.965.205-1.266.473v-2.882c0-.458-.49-.79-1.164-.79-.678 0-1.152.325-1.152.79v7.855c0 .443.517.803 1.152.803.62 0 1.164-.375 1.164-.803v-2.694c0-.424.295-.677.58-.677.33 0 .64.329.64.677v2.694c0 .527.58.803 1.153.803.685 0 1.163-.33 1.163-.803v-2.694c0-1.492-1.04-2.752-2.27-2.752z"/>
    </g>
</svg>
