<svg xmlns="http://www.w3.org/2000/svg" width="31" height="50" viewBox="0 0 31 50">
    <g fill="none" fill-rule="nonzero">
        <g transform="translate(.981 .977)">
            <ellipse cx="14.573" cy="44.969" fill="#55C6D9" rx="3.073" ry="3.059"/>
            <path fill="#F9F9F9" d="M14.519 38.26a3.073 3.073 0 0 1-3.08-3.066v-9.476a3.073 3.073 0 0 1 3.08-3.066c4.57 0 8.288-3.701 8.288-8.25 0-4.55-3.718-8.25-8.288-8.25s-8.288 3.7-8.288 8.25a3.073 3.073 0 0 1-3.08 3.066c-1.7 0-3.08-1.373-3.08-3.066C.071 6.472 6.552.019 14.52.019c7.966 0 14.448 6.452 14.448 14.383 0 6.878-4.876 12.644-11.368 14.053v6.74a3.073 3.073 0 0 1-3.08 3.065z"/>
        </g>
        <g fill="#434A54">
            <path d="M15.554 50c-2.246 0-4.073-1.819-4.073-4.055 0-2.236 1.827-4.055 4.073-4.055 2.246 0 4.073 1.82 4.073 4.055 0 2.236-1.827 4.055-4.073 4.055zm0-6.118a2.07 2.07 0 0 0-2.072 2.063 2.07 2.07 0 0 0 2.072 2.063 2.07 2.07 0 0 0 2.072-2.063 2.07 2.07 0 0 0-2.072-2.063zM15.5 40.233c-2.25 0-4.08-1.822-4.08-4.062v-9.477c0-2.24 1.83-4.062 4.08-4.062 4.018 0 7.287-3.254 7.287-7.254 0-4-3.269-7.254-7.287-7.254s-7.287 3.254-7.287 7.254c0 2.24-1.83 4.062-4.08 4.062S.051 17.618.051 15.378C.052 6.898 6.982 0 15.5 0s15.448 6.899 15.448 15.378c0 3.526-1.234 6.974-3.474 9.708a15.547 15.547 0 0 1-7.893 5.126v5.959c0 2.24-1.831 4.062-4.081 4.062zm0-34.101c5.122 0 9.288 4.148 9.288 9.246 0 5.098-4.166 9.246-9.288 9.246-1.147 0-2.08.929-2.08 2.07v9.477c0 1.141.933 2.07 2.08 2.07s2.08-.929 2.08-2.07v-6.74c0-.468.327-.873.787-.973 6.13-1.33 10.58-6.83 10.58-13.08 0-7.381-6.032-13.386-13.447-13.386-7.415 0-13.447 6.005-13.447 13.386 0 1.142.933 2.07 2.08 2.07 1.146 0 2.079-.928 2.079-2.07 0-5.098 4.166-9.246 9.288-9.246z"/>
            <path d="M15.5 37.052c-.553 0-1-.446-1-.996v-5.777c0-.55.447-.996 1-.996.553 0 1 .446 1 .996v5.777c0 .55-.447.996-1 .996zM14.519 27.49a1.005 1.005 0 0 1 .08-.391 1.01 1.01 0 0 1 .379-.462 1.019 1.019 0 0 1 .571-.172 1.018 1.018 0 0 1 .572.172 1.041 1.041 0 0 1 .38.46 1.006 1.006 0 0 1 0 .784 1.017 1.017 0 0 1-.75.614 1.02 1.02 0 0 1-.93-.28.981.981 0 0 1-.223-.333 1.005 1.005 0 0 1-.08-.392z"/>
        </g>
    </g>
</svg>
