<svg xmlns="http://www.w3.org/2000/svg" width="908" height="127" viewBox="0 0 908 127">
    <g fill="none" fill-rule="evenodd">
        <path d="M-374 0h1658v152H-374z"/>
        <g fill="#FFF">
            <path d="M475.83 47.614a230.53 230.53 0 0 1 3.176-3.214c.562.54 1.101 1.062 1.616 1.564a90.335 90.335 0 0 1 1.646 1.65 80.984 80.984 0 0 0-1.588 1.564 54.79 54.79 0 0 1-1.675 1.622l-3.176-3.186zm-6.44 0a230.507 230.507 0 0 1 3.176-3.214c.563.54 1.102 1.062 1.617 1.564a90.328 90.328 0 0 1 1.646 1.65 80.984 80.984 0 0 0-1.588 1.564 54.79 54.79 0 0 1-1.675 1.622l-3.176-3.186zm12.878 0a230.507 230.507 0 0 1 3.176-3.214c.563.54 1.102 1.062 1.617 1.564a90.331 90.331 0 0 1 1.646 1.65 80.984 80.984 0 0 0-1.588 1.564 54.792 54.792 0 0 1-1.675 1.622l-3.176-3.186zm-83.707 9.6A230.513 230.513 0 0 1 401.737 54c.563.54 1.102 1.062 1.617 1.564a90.332 90.332 0 0 1 1.646 1.65 80.984 80.984 0 0 0-1.588 1.564 54.79 54.79 0 0 1-1.675 1.622l-3.176-3.186zm-6.439 0A230.513 230.513 0 0 1 395.298 54c.563.54 1.102 1.062 1.617 1.564a90.332 90.332 0 0 1 1.646 1.65 80.984 80.984 0 0 0-1.588 1.564 54.79 54.79 0 0 1-1.675 1.622l-3.176-3.186zm-19.317 0A230.509 230.509 0 0 1 375.98 54c.563.54 1.102 1.062 1.617 1.564a90.331 90.331 0 0 1 1.646 1.65 80.984 80.984 0 0 0-1.588 1.564 54.792 54.792 0 0 1-1.675 1.622l-3.176-3.186zm-46.683 13.6a230.504 230.504 0 0 1 3.176-3.214c.563.54 1.102 1.062 1.617 1.564a90.331 90.331 0 0 1 1.646 1.65 80.984 80.984 0 0 0-1.588 1.564A54.792 54.792 0 0 1 329.298 74l-3.176-3.186zm-6.44 0a230.509 230.509 0 0 1 3.176-3.214c.564.54 1.103 1.062 1.618 1.564a90.331 90.331 0 0 1 1.646 1.65 80.984 80.984 0 0 0-1.588 1.564A54.792 54.792 0 0 1 322.859 74l-3.176-3.186zm112.684-25.6A230.507 230.507 0 0 1 435.542 42c.563.54 1.102 1.062 1.617 1.564a90.331 90.331 0 0 1 1.646 1.65 80.984 80.984 0 0 0-1.588 1.564 54.792 54.792 0 0 1-1.675 1.622l-3.176-3.186zm-119.927 2.4a230.506 230.506 0 0 1 3.176-3.214c.563.54 1.102 1.062 1.617 1.564a90.331 90.331 0 0 1 1.646 1.65 80.984 80.984 0 0 0-1.588 1.564 54.792 54.792 0 0 1-1.675 1.622l-3.176-3.186zM426.732 65.2a5.913 5.913 0 0 1-2.11-.576 7.587 7.587 0 0 1-1.902-1.315 8.098 8.098 0 0 1-1.894 1.307c-.674.332-1.962.527-3.864.584h-24.84v-3.317h24.84c1.464-.046 2.34-.143 2.628-.292.288-.15.542-.341.76-.576.22-.235.393-.516.52-.842.126-.327.19-.69.19-1.092v-6.393h3.303v6.393c0 .401.066.765.199 1.092a2.65 2.65 0 0 0 1.271 1.418c.288.149.587.246.899.292v.017h3.147a11.475 11.475 0 0 1-.45-1.487 5.902 5.902 0 0 1-.155-1.28v-3.249c0-.836.161-1.621.484-2.354a6.219 6.219 0 0 1 1.314-1.925 6.232 6.232 0 0 1 1.945-1.307 5.937 5.937 0 0 1 2.378-.48c.842 0 1.634.16 2.378.48.743.321 1.392.757 1.945 1.307.554.55.992 1.191 1.314 1.925a5.78 5.78 0 0 1 .485 2.354v3.249c0 .39-.055.816-.165 1.28-.11.464-.262.96-.458 1.487H458.375c.484 0 .908-.072 1.271-.215.363-.143.66-.335.89-.576.231-.24.404-.512.52-.816.115-.304.172-.61.172-.92 0-.332-.06-.656-.181-.97a2.54 2.54 0 0 0-1.427-1.452c-.357-.15-.772-.224-1.245-.224h-9.528c-.473.022-.92-.02-1.34-.13-.42-.108-.79-.28-1.107-.515a2.624 2.624 0 0 1-.752-.86 2.42 2.42 0 0 1-.277-1.177v-.206c0-.08.006-.16.018-.24a3.81 3.81 0 0 1 .25-.972 5.963 5.963 0 0 1 .977-1.598c.208-.246.427-.501.657-.765a6.906 6.906 0 0 0 .173-.24l2.49-2.82c.83-.939 1.66-1.884 2.49-2.835.462.4.882.765 1.263 1.091.38.327.79.673 1.228 1.04l-6.035 6.91h9.562c.876 0 1.69.157 2.438.472.75.315 1.395.736 1.937 1.263a5.847 5.847 0 0 1 1.28 1.848c.311.705.467 1.44.467 2.209 0 .664-.22 1.564-.657 2.698h2.273c.311-.046.6-.178.888-.327.288-.149.542-.34.76-.575.22-.235.393-.516.52-.843.126-.326.19-.69.19-1.09V52.67h3.303v6.394c0 .447.08.848.242 1.203.161.355.371.653.63.894.26.24.557.424.891.55.335.126.675.189 1.02.189.347 0 .687-.063 1.02-.19.335-.125.632-.308.891-.55.26-.24.47-.538.632-.893.161-.355.242-.756.242-1.203V52.67h3.32v6.394c0 .447.078.845.233 1.195a2.673 2.673 0 0 0 1.505 1.435c.328.126.665.195 1.011.206.346-.011.683-.08 1.012-.206a2.716 2.716 0 0 0 1.513-1.435c.161-.35.242-.748.242-1.195V52.67h3.303v6.463c0 .813-.164 1.578-.493 2.294a6.33 6.33 0 0 1-1.323 1.891 6.67 6.67 0 0 1-1.92 1.315 6.344 6.344 0 0 1-2.3.567 6.274 6.274 0 0 1-2.35-.541 7.783 7.783 0 0 1-2.11-1.367c-.67.642-1.381 1.106-2.136 1.392a8.128 8.128 0 0 1-2.291.516 6.11 6.11 0 0 1-2.3-.507 7.163 7.163 0 0 1-2.127-1.4 8.027 8.027 0 0 1-1.902 1.305c-.68.333-1.378.545-2.116.602h-39.45zm5.88-6.119c0 .447.077.845.233 1.195.155.35.363.644.622.885.26.24.556.427.89.559a3.04 3.04 0 0 0 1.02.214h-.016c.357.023.703-.02 1.037-.129.334-.108.634-.28.9-.515.264-.235.478-.536.64-.902.16-.367.241-.803.241-1.307v-3.11c0-.505-.08-.94-.242-1.307a2.62 2.62 0 0 0-.631-.902c-.26-.235-.56-.41-.9-.524a2.899 2.899 0 0 0-1.028-.155c-.346.023-.686.1-1.02.232a2.815 2.815 0 0 0-.89.558c-.26.241-.468.536-.623.886-.156.35-.234.753-.234 1.211v3.111zm11.22-6.48a3.606 3.606 0 0 1-.138-1.58c.058-.39.153-.745.285-1.066.133-.321.294-.622.484-.903.19-.28.401-.555.632-.825l.709-.833 4.219-4.83 1.452 1.29-7.643 8.748zm-57.841-7.854v14.266c0 .538-.011 1.09-.035 1.658a13.42 13.42 0 0 1-.172 1.676 9.12 9.12 0 0 1-.407 1.573 4.605 4.605 0 0 1-.735 1.332c-.403-.241-.772-.453-1.106-.636a67.869 67.869 0 0 1-1.073-.602c.07-.367.124-.768.165-1.203.04-.435.06-.911.06-1.427v-.378c0-.149-.011-.286-.034-.412V44.747h3.337zM327.001 61.9c1.464-.046 2.34-.143 2.628-.292.288-.15.542-.341.761-.576.219-.235.392-.516.519-.842.127-.327.19-.69.19-1.092v-6.393h3.303v6.393c0 .401.066.765.199 1.092a2.65 2.65 0 0 0 1.271 1.418c.288.149.588.246.899.292h24.355c.484 0 .908-.072 1.271-.215.363-.143.66-.335.89-.576.231-.24.404-.512.52-.816.115-.304.173-.61.173-.92 0-.332-.061-.656-.182-.97a2.54 2.54 0 0 0-1.427-1.452c-.357-.15-.772-.224-1.245-.224h-9.528c-.472.022-.92-.02-1.34-.13-.42-.108-.79-.28-1.107-.515a2.624 2.624 0 0 1-.752-.86 2.42 2.42 0 0 1-.277-1.177v-.206c0-.08.006-.16.018-.24a3.81 3.81 0 0 1 .25-.972 5.963 5.963 0 0 1 .978-1.598c.207-.246.426-.501.657-.765a6.906 6.906 0 0 0 .173-.24l2.49-2.82c.83-.939 1.66-1.884 2.49-2.835.46.4.882.765 1.262 1.091.38.327.79.673 1.228 1.04l-6.035 6.91h9.562c.877 0 1.69.157 2.439.472.749.315 1.395.736 1.936 1.263a5.847 5.847 0 0 1 1.28 1.848c.311.705.467 1.44.467 2.209 0 .664-.22 1.564-.657 2.698h12.555v3.3H336.77v.017a5.913 5.913 0 0 1-2.11-.576 7.587 7.587 0 0 1-1.902-1.314 8.098 8.098 0 0 1-1.893 1.306c-.675.332-1.963.527-3.865.584V65.2h-10.487c-.139.733-.309 1.41-.51 2.028-.202.619-.447 1.146-.735 1.581-.611.894-1.462 1.619-2.55 2.175-1.09.555-2.436.833-4.039.833a14.323 14.323 0 0 1-2.68-.258v-3.18a6.99 6.99 0 0 0 1.262.301 9.1 9.1 0 0 0 1.297.095c.554 0 1.093-.063 1.617-.19a4.827 4.827 0 0 0 1.435-.592 3.74 3.74 0 0 0 1.098-1.048c.3-.43.508-.954.623-1.573.058-.814.107-1.662.147-2.544.04-.882.06-1.805.06-2.767v-.722c0-.275-.005-.521-.017-.739v-5.93h3.338v7.202c0 .218-.003.444-.01.679l-.016.704c-.006.235-.015.45-.026.645H327zm19.582-9.298a3.606 3.606 0 0 1-.138-1.582c.058-.39.153-.744.285-1.065.133-.321.294-.622.485-.903.19-.28.4-.555.63-.825.231-.269.468-.547.71-.833l4.22-4.83 1.452 1.29-7.644 8.748zM512.451 64.912v.024a5.943 5.943 0 0 1-2.222-.593 6.17 6.17 0 0 1-3.009-3.197 5.81 5.81 0 0 1-.44-2.26V44.5h3.302v14.317c0 .402.066.765.199 1.092a2.65 2.65 0 0 0 1.271 1.418c.246.127.5.216.762.268h1.532l-.018-5.998c0-.837.162-1.621.485-2.355a6.219 6.219 0 0 1 1.314-1.925 6.232 6.232 0 0 1 1.945-1.306 5.937 5.937 0 0 1 2.378-.481c.553 0 1.092.077 1.617.232a6.206 6.206 0 0 1 1.478.653c.461.28.885.619 1.271 1.014.386.395.723.833 1.012 1.315h2.957c.841 0 1.63.16 2.369.481a6.26 6.26 0 0 1 1.936 1.306 6.19 6.19 0 0 1 1.315 1.934 5.84 5.84 0 0 1 .484 2.363v2.767H537a2.852 2.852 0 0 0 1.66-.868c.22-.235.392-.515.519-.842.127-.326.19-.69.19-1.091V52.4h3.303v6.394c0 .4.066.765.199 1.091a2.65 2.65 0 0 0 1.271 1.418c.288.15.588.246.899.292.003.003.005.001.008 0 .311-.046.61-.143.899-.292a2.65 2.65 0 0 0 1.271-1.418c.133-.326.199-.69.199-1.091V52.4h3.303v6.394c0 .447.08.848.242 1.203.161.355.372.653.63.894.26.24.557.424.891.55.335.126.675.189 1.02.189a2.802 2.802 0 0 0 1.894-.74c.26-.24.47-.538.631-.893.162-.355.242-.756.242-1.203V52.4h3.338v6.394c0 .447.078.845.233 1.194a2.673 2.673 0 0 0 1.505 1.435c.328.126.666.195 1.011.207.346-.012.683-.08 1.012-.207a2.716 2.716 0 0 0 1.513-1.435c.161-.35.242-.747.242-1.194V52.4h3.303v6.394c0 .4.066.765.199 1.091a2.694 2.694 0 0 0 1.262 1.418c.283.15.58.246.89.292h4.05c1.464-.046 2.34-.143 2.629-.292.288-.149.542-.34.76-.576.22-.235.393-.515.52-.842.126-.326.19-.69.19-1.091V52.4h3.302v6.394c0 .4.067.765.2 1.091a2.65 2.65 0 0 0 1.271 1.418c.287.15.587.246.898.292h8.742c2.675.07 4.156-.143 4.445-.292a2.65 2.65 0 0 0 1.27-1.418c.133-.326.2-.69.2-1.091V52.4h3.302v6.463a5.81 5.81 0 0 1-.44 2.26 6.17 6.17 0 0 1-3.018 3.197c-.692.338-2.611.667-5.759.61H584.6v-.017a5.913 5.913 0 0 1-2.11-.576 7.587 7.587 0 0 1-1.901-1.315 8.098 8.098 0 0 1-1.894 1.306c-.674.332-1.963.527-3.865.585h-4.05a5.837 5.837 0 0 1-2.1-.576 7.649 7.649 0 0 1-1.894-1.315 7.906 7.906 0 0 1-2.084 1.375 6.034 6.034 0 0 1-2.308.533 5.616 5.616 0 0 1-2.335-.516 8.162 8.162 0 0 1-2.126-1.41c-.692.642-1.41 1.11-2.153 1.401a7.783 7.783 0 0 1-2.292.525 6.045 6.045 0 0 1-2.29-.507 7.428 7.428 0 0 1-2.136-1.401 8.098 8.098 0 0 1-1.894 1.306 5.761 5.761 0 0 1-2.118.585l-.008-.003v.003a5.913 5.913 0 0 1-2.11-.576 7.587 7.587 0 0 1-1.902-1.315 8.098 8.098 0 0 1-1.893 1.306 5.787 5.787 0 0 1-2.136.585h-24.549zm4.697-2.465h2.802c.346 0 .686-.052 1.02-.155.334-.103.631-.272.89-.507.26-.235.47-.533.632-.894.161-.36.242-.793.242-1.297v-3.111c0-.504-.08-.94-.242-1.306a2.62 2.62 0 0 0-.631-.903c-.26-.235-.56-.41-.9-.524a2.899 2.899 0 0 0-1.029-.155c-.345.023-.685.1-1.02.232a2.815 2.815 0 0 0-.89.559c-.26.24-.47.536-.631.885-.162.35-.243.753-.243 1.212v5.964zm8.923-5.603v2.801c0 .39-.054.817-.164 1.28-.11.465-.262.96-.458 1.487h5.637v-2.784c0-.344-.063-.685-.19-1.023a2.587 2.587 0 0 0-.562-.893 2.876 2.876 0 0 0-.908-.628 2.97 2.97 0 0 0-1.228-.24h-2.127zm62.441 13.97a230.53 230.53 0 0 1 3.176-3.214c.563.54 1.102 1.062 1.617 1.564a90.332 90.332 0 0 1 1.646 1.65 80.98 80.98 0 0 0-1.588 1.564A54.79 54.79 0 0 1 591.688 74l-3.176-3.186zm-6.439 0a230.508 230.508 0 0 1 3.176-3.214c.563.54 1.102 1.062 1.617 1.564a90.329 90.329 0 0 1 1.646 1.65 80.983 80.983 0 0 0-1.588 1.564A54.792 54.792 0 0 1 585.25 74l-3.176-3.186zm-8.853 0a230.53 230.53 0 0 1 3.176-3.214c.563.54 1.102 1.062 1.616 1.564a90.335 90.335 0 0 1 1.647 1.65 80.984 80.984 0 0 0-1.588 1.564A54.79 54.79 0 0 1 576.395 74l-3.175-3.186zm-6.44 0a230.508 230.508 0 0 1 3.176-3.214c.564.54 1.103 1.062 1.617 1.564a90.329 90.329 0 0 1 1.647 1.65 80.983 80.983 0 0 0-1.588 1.564A54.792 54.792 0 0 1 569.956 74l-3.176-3.186zm-33-23.2a230.507 230.507 0 0 1 3.176-3.214c.564.54 1.103 1.062 1.617 1.564a90.328 90.328 0 0 1 1.647 1.65 80.984 80.984 0 0 0-1.588 1.564 54.792 54.792 0 0 1-1.676 1.622l-3.176-3.186zm61.171 23.2a230.508 230.508 0 0 1 3.176-3.214c.563.54 1.102 1.062 1.617 1.564a90.335 90.335 0 0 1 1.646 1.65 80.986 80.986 0 0 0-1.588 1.564A54.79 54.79 0 0 1 598.127 74l-3.176-3.186zm-40.244-23.2a230.53 230.53 0 0 1 3.176-3.214c.563.54 1.102 1.062 1.617 1.564a90.328 90.328 0 0 1 1.646 1.65 80.984 80.984 0 0 0-1.588 1.564 54.79 54.79 0 0 1-1.675 1.622l-3.176-3.186zm-6.439 0a230.507 230.507 0 0 1 3.176-3.214c.563.54 1.102 1.062 1.617 1.564a90.331 90.331 0 0 1 1.646 1.65 80.984 80.984 0 0 0-1.588 1.564 54.792 54.792 0 0 1-1.675 1.622l-3.176-3.186zm12.878 0a230.485 230.485 0 0 1 3.176-3.214c.563.54 1.102 1.062 1.617 1.564a90.335 90.335 0 0 1 1.646 1.65 80.986 80.986 0 0 0-1.588 1.564 54.79 54.79 0 0 1-1.675 1.622l-3.176-3.186zm-60.795 3.561c.6.504 1.202 1.066 1.807 1.684a17.117 17.117 0 0 1 1.652 1.96c.495.687.905 1.398 1.228 2.131.322.733.507 1.46.553 2.183 0 .813-.164 1.587-.493 2.32a6.376 6.376 0 0 1-3.277 3.257 5.746 5.746 0 0 1-2.352.49h-4.323v-3.3h4.254c.484 0 .908-.083 1.271-.25.363-.165.663-.38.9-.644.236-.263.414-.564.535-.902.122-.338.188-.673.2-1.006-.058-.4-.22-.83-.485-1.289a9.284 9.284 0 0 0-.994-1.383 17.456 17.456 0 0 0-1.332-1.384c-.49-.458-.982-.894-1.478-1.306l2.334-2.561z"/>
        </g>
        <g fill="#FEFEFE">
            <path fill-opacity=".35" d="M629.55-4.25l-.688 15.504c-.09 2.05 1.841 4.154 3.895 4.244l11.928.525c1.963.088 3.724-1.705 3.822-3.903l.688-15.503-19.645-.866zm26.631 18.886c-.238 5.343-4.759 9.424-10.186 9.185l-15.738-.695c-5.46-.24-9.473-4.605-9.23-10.04l1.129-25.4 35.152 1.55-1.127 25.4z"/>
            <path fill-opacity=".49" d="M495.444 13.699l30.688-16.616 3.427 7.241-30.687 16.616zM468.35.698l1.69 9.222L455.182 26l-19.745-10.586-1.69-9.223 19.744 10.587z"/>
            <path fill-opacity=".42" d="M567.986 18.617l.002-.042-.02-.001.018.043zm6.224-16.346c-2.079-.143-4.279 1.593-4.434 3.5l-1.016 12.558-.028.325-.126 1.563-.01-.002-.735-.05-7.09-.484.151-1.851-.008-.002 1.184-14.594c.41-5.065 4.972-8.669 10.488-8.292l17.944 1.224-.582 7.18L574.21 2.27z"/>
            <path fill-opacity=".28" d="M197.671-4.25l-.689 15.504c-.09 2.05 1.842 4.154 3.896 4.244l11.927.525c1.963.088 3.724-1.705 3.822-3.903l.689-15.503-19.645-.866zm26.63 18.886c-.237 5.343-4.758 9.424-10.186 9.185l-15.738-.695c-5.459-.24-9.472-4.605-9.23-10.04l1.13-25.4 35.152 1.55-1.127 25.4z"/>
            <path fill-opacity=".07" d="M879.242-4.25l-.688 15.504c-.09 2.05 1.84 4.154 3.895 4.244l11.927.525c1.963.088 3.724-1.705 3.823-3.903l.688-15.503-19.645-.866zm26.63 18.886c-.237 5.343-4.758 9.424-10.186 9.185l-15.738-.695c-5.459-.24-9.472-4.605-9.23-10.04l1.13-25.4L907-10.764l-1.127 25.4z"/>
            <path fill-opacity=".49" d="M409.068 15.077l-8.493 6.586-24.729-4.173-.167-23.219 8.494-6.585.166 23.218z"/>
            <path fill-opacity=".42" d="M323.74-7.977L340.84 22.32 333.984 26 316.886-4.297z"/>
            <path d="M63.565 13.699L94.252-2.917l3.428 7.241L66.992 20.94z" opacity=".14"/>
            <path fill-opacity=".21" d="M745.136 13.699l30.687-16.616 3.428 7.241-30.688 16.616z"/>
            <path d="M37.196.698l1.69 9.222L24.03 26 4.283 15.414l-1.69-9.223 19.744 10.587z" opacity=".07"/>
            <path fill-opacity=".28" d="M718.768.698l1.69 9.222L705.6 26l-19.746-10.586-1.69-9.223 19.744 10.587z"/>
            <path fill-opacity=".21" d="M135.381 18.617l.002-.042-.02-.001.018.043zm6.223-16.346c-2.078-.143-4.278 1.593-4.433 3.5l-1.017 12.558-.028.325-.125 1.563-.01-.002-.735-.05-7.09-.484.15-1.851-.007-.002 1.184-14.594c.41-5.065 4.971-8.669 10.487-8.292l17.945 1.224-.582 7.18-15.739-1.075z"/>
            <path fill-opacity=".17" d="M816.952 18.617l.002-.042-.02-.001.018.043zm6.224-16.346c-2.079-.143-4.279 1.593-4.434 3.5l-1.017 12.558-.028.325-.125 1.563-.01-.002-.735-.05-7.09-.484.15-1.851-.007-.002 1.184-14.594c.41-5.065 4.971-8.669 10.487-8.292l17.945 1.224-.582 7.18-15.738-1.075z"/>
            <path fill-opacity=".35" d="M256.415 10.572l.032-.033-.014-.014-.018.047zM272.487.99c-1.51-1.397-4.403-1.325-5.836.143l-9.44 9.676-.245.25-1.173 1.205-.006-.006-.533-.494-5.146-4.759 1.39-1.427-.004-.006 10.97-11.245c3.805-3.899 9.813-4.052 13.817-.347l13.023 12.043-5.395 5.53L272.487.99z"/>
            <g opacity=".5">
                <path fill-opacity=".35" d="M621.217 55.398l34.62-7.384 1.628 7.631-34.617 7.384z"/>
                <path fill-opacity=".21" d="M140.768 43.507l-6.904 14.109c-.91 1.865 0 4.607 1.84 5.53l10.674 5.358c1.757.883 4.089-.063 5.069-2.064l6.901-14.11-17.58-8.823zm16.664 28.401c-2.38 4.864-8.158 6.806-13.015 4.369l-14.084-7.07c-4.886-2.453-6.782-8.143-4.362-13.09L137.281 33l31.46 15.794-11.31 23.114z"/>
                <path fill-opacity=".17" d="M822.307 43.507l-6.904 14.109c-.91 1.865 0 4.607 1.84 5.53l10.674 5.358c1.757.883 4.089-.063 5.068-2.064l6.902-14.11-17.58-8.823zm16.663 28.401c-2.379 4.864-8.158 6.806-13.014 4.369l-14.084-7.07c-4.886-2.453-6.782-8.143-4.362-13.09L818.82 33l31.459 15.794-11.309 23.114z"/>
                <path fill-opacity=".35" d="M266.318 77.328l-9.89-4.605-5.434-22.318 23.165-8.998 9.891 4.605-23.164 8.998z"/>
                <path fill-opacity=".28" d="M190.265 55.038l34.506-7.517 1.624 7.769-34.505 7.517z"/>
                <path fill-opacity=".07" d="M871.804 55.038l34.506-7.517 1.624 7.769-34.505 7.517z"/>
                <path d="M68.036 51.955l5.153-9.499 22.94-4.106 8.038 23.365-5.151 9.499-8.04-23.363z" opacity=".14"/>
                <path fill-opacity=".21" d="M749.575 51.955l5.153-9.499 22.94-4.106 8.037 23.365-5.15 9.499-8.04-23.363z"/>
                <path d="M9.38 55.32l.04-.02-.005-.018-.036.037zm18.352-2.962c-.838-1.885-3.506-2.911-5.378-2.068l-12.34 5.554-.319.144-1.536.69-.004-.007-.296-.667L5 49.575l1.82-.82-.003-.005 14.342-6.455c4.976-2.238 10.513-.112 12.738 4.89l7.233 16.271-7.053 3.172-6.345-14.27z" opacity=".07"/>
                <path fill-opacity=".28" d="M690.918 55.32l.041-.02-.006-.018-.035.037zm18.353-2.962c-.838-1.885-3.506-2.911-5.378-2.068l-12.34 5.554-.319.144-1.536.69-.004-.007-.296-.667-2.86-6.429 1.822-.82-.004-.005 14.342-6.455c4.976-2.238 10.512-.112 12.737 4.89l7.234 16.271-7.053 3.172-6.345-14.27z"/>
            </g>
            <g opacity=".2">
                <path fill-opacity=".35" d="M642.461 107.499l-3.735 8.658-21.593 6.433-10.791-18.604 3.733-8.656 10.793 18.601z"/>
                <path fill-opacity=".49" d="M436.28 126.376l-5.923-34.338 7.909-1.252 5.924 34.337zM532.801 102.902l1.302 7.047-7.15 1.282-1.303-7.045z"/>
                <path fill-opacity=".35" d="M293.077 94.997l-15.07 1.232c-1.992.162-3.787 2.252-3.623 4.213l.957 11.38c.158 1.873 2.108 3.324 4.244 3.149l15.07-1.232-1.578-18.742zm-14.981 27.56c-5.194.426-9.694-3.368-10.13-8.546l-1.263-15.016c-.44-5.208 3.288-9.545 8.57-9.978L299.964 87l2.824 33.54-24.691 2.017z"/>
                <path fill-opacity=".28" d="M211.336 107.499l-3.736 8.658-21.593 6.433-10.79-18.604 3.733-8.656 10.793 18.601z"/>
                <path fill-opacity=".07" d="M892.304 107.499l-3.735 8.658-21.593 6.433-10.791-18.604 3.733-8.656 10.793 18.601z"/>
                <path d="M5.924 126.376L0 92.038l7.909-1.252 5.924 34.337z" opacity=".07"/>
                <path fill-opacity=".28" d="M686.892 126.376l-5.924-34.338 7.91-1.252 5.923 34.337z"/>
                <path fill-opacity=".49" d="M366.725 110.931l.018-.04-.018-.01v.05zM378.44 96.55c-1.876-.835-4.543.18-5.381 2.047l-5.514 12.3-.143.32-.685 1.529-.008-.004-.663-.295-6.39-2.847.813-1.813-.006-.002 6.409-14.295c2.223-4.96 7.758-7.07 12.73-4.855l16.172 7.203-3.152 7.03-14.182-6.318z"/>
                <path d="M101.676 102.902l1.302 7.047-7.15 1.282-1.303-7.045z" opacity=".14"/>
                <path fill-opacity=".21" d="M782.644 102.902l1.302 7.047-7.15 1.282-1.303-7.045z"/>
            </g>
        </g>
    </g>
</svg>
