<svg id="Layer_1" data-name="Layer 1" xmlns="http://www.w3.org/2000/svg" viewBox="0 0 274 203.64"><defs><style>.cls-1{opacity:0.4;}.cls-2{fill:#00bfd6;}.cls-3{fill:#fff;}.cls-3,.cls-4,.cls-5{stroke:#000;stroke-linecap:round;stroke-linejoin:round;}.cls-4{fill:none;}.cls-5{fill:#f2f2f2;}</style></defs><title>Artboard 5 copy 7</title><g class="cls-1"><path class="cls-2" d="M204.2,166.67c-47.76,45.59-85.4,43.38-133.17-2.21-45.59-43.52-48-84-2.42-127.55,47.76-45.59,73.71-25,133.47,3.11C264,69.1,249.79,123.15,204.2,166.67Z"/></g><path class="cls-3" d="M103.16,113.32h6V81.56H93.78a4.2,4.2,0,0,0-4.2,4.2v14A13.58,13.58,0,0,0,103.16,113.32Z"/><path class="cls-3" d="M167,113.32h-6V81.56h15.42a4.2,4.2,0,0,1,4.2,4.2v14A13.58,13.58,0,0,1,167,113.32Z"/><rect class="cls-3" x="100.73" y="49.43" width="70" height="85.44" rx="32.78" ry="32.78"/><path class="cls-4" d="M89.58,86.14V80.77a45.49,45.49,0,0,1,91,0v5.37"/><line class="cls-4" x1="144.08" y1="113.32" x2="167.98" y2="113.32"/><path class="cls-4" d="M149.91,62.72h0a11.81,11.81,0,0,1-11.81,11.81h-36"/><path class="cls-4" d="M149.91,62.72h0a11.81,11.81,0,0,0,11.81,11.81H169"/><path class="cls-3" d="M160.22,134.87h-49a30,30,0,0,0-29.49,24.55h0a9.92,9.92,0,0,0,9.75,11.72H180a9.92,9.92,0,0,0,9.75-11.72h0A30,30,0,0,0,160.22,134.87Z"/><polygon class="cls-5" points="135.07 171.42 113.11 134.87 157.03 134.87 135.07 171.42"/></svg>