<svg id="Layer_1" data-name="Layer 1" xmlns="http://www.w3.org/2000/svg" viewBox="0 0 274 203.64"><defs><style>.cls-1{opacity:0.4;}.cls-2{fill:#00bfd6;}.cls-3,.cls-7{fill:#fff;}.cls-3,.cls-4,.cls-5,.cls-6,.cls-7,.cls-8,.cls-9{stroke:#000;}.cls-3,.cls-6,.cls-8,.cls-9{stroke-miterlimit:10;}.cls-4,.cls-9{fill:none;}.cls-4,.cls-5,.cls-7{stroke-linecap:round;stroke-linejoin:round;}.cls-5{fill:#e6e6e6;}.cls-6{fill:#fbb03b;}.cls-8{fill:#fb3449;}.cls-10{fill:#ef5662;}.cls-11{fill:#77787b;}</style></defs><title>Artboard 5 copy</title><g class="cls-1"><path class="cls-2" d="M221.11,166.67c-47.76,45.59-85.4,43.38-133.17-2.21-45.59-43.52-48-84-2.42-127.55C133.29-8.68,159.23,11.95,219,40,280.88,69.1,266.71,123.15,221.11,166.67Z"/></g><path class="cls-3" d="M244.66,148.32h11.73a3.63,3.63,0,0,0,3.63-3.63V84.22A27.21,27.21,0,0,0,232.8,57H201a4.54,4.54,0,0,0-4.54,4.54v86.78h12.37a17.9,17.9,0,1,1,35.81,0"/><circle class="cls-3" cx="226.76" cy="150.08" r="15.14"/><path class="cls-4" d="M216.59,150.54A9.44,9.44,0,0,0,226,160"/><circle class="cls-5" cx="226.76" cy="150.08" r="4.72"/><circle class="cls-3" cx="128.23" cy="149.84" r="15.14"/><path class="cls-4" d="M138.39,149.38a9.44,9.44,0,0,0-9.44-9.44"/><circle class="cls-5" cx="128.23" cy="149.84" r="4.72"/><circle class="cls-3" cx="164.32" cy="150.08" r="15.14" transform="matrix(1, -0.01, 0.01, 1, -1.54, 1.7)"/><path class="cls-4" d="M174.48,149.52a9.44,9.44,0,0,0-9.54-9.34"/><circle class="cls-5" cx="164.32" cy="150.08" r="4.72" transform="translate(-1.54 1.7) rotate(-0.59)"/><circle class="cls-3" cx="79.21" cy="149.84" r="15.14"/><path class="cls-4" d="M69,150.29a9.44,9.44,0,0,0,9.44,9.44"/><circle class="cls-5" cx="79.21" cy="149.84" r="4.72"/><circle class="cls-3" cx="43.53" cy="150.08" r="15.14"/><path class="cls-4" d="M33.37,150.54A9.44,9.44,0,0,0,42.81,160"/><circle class="cls-5" cx="43.53" cy="150.08" r="4.72"/><path class="cls-6" d="M259.6,122.17h-3.85a5.93,5.93,0,0,0-5.49,3.69h0a5.93,5.93,0,0,0,5.49,8.18h3.85"/><path class="cls-7" d="M110.31,148.32a17.91,17.91,0,0,1,34.4-7h3.1a17.91,17.91,0,0,1,34.4,7H191V44.76a6.35,6.35,0,0,0-6.35-6.35H20.55a6.35,6.35,0,0,0-6.35,6.35v99.93a3.63,3.63,0,0,0,3.63,3.63h7.66a17.91,17.91,0,0,1,34.4-7H63a17.91,17.91,0,0,1,34.4,7Z"/><rect class="cls-5" x="250.59" y="143.3" width="14.98" height="6.74" rx="3.37" ry="3.37" transform="translate(516.16 293.34) rotate(-180)"/><rect class="cls-5" x="11.32" y="143.5" width="11.68" height="6.34" rx="3.17" ry="3.17" transform="translate(34.32 293.34) rotate(180)"/><path class="cls-5" d="M219.11,64.57h30.58a2.19,2.19,0,0,1,2.19,2.19V97.34a2.19,2.19,0,0,1-2.19,2.19h-9.35a23.41,23.41,0,0,1-23.41-23.41V66.76a2.19,2.19,0,0,1,2.19-2.19Z" transform="translate(468.79 164.1) rotate(180)"/><rect class="cls-5" x="202.45" y="64.57" width="10.07" height="34.95" rx="4" ry="4" transform="translate(414.97 164.1) rotate(180)"/><path class="cls-8" d="M10.81,134.85h1.14a2.26,2.26,0,0,1,2.26,2.26v0a2.26,2.26,0,0,1-2.26,2.26H10.81a0,0,0,0,1,0,0v-4.51A0,0,0,0,1,10.81,134.85Z" transform="translate(25.01 274.22) rotate(180)"/><rect class="cls-9" x="203.69" y="105.68" width="14.23" height="6.71" rx="3.2" ry="3.2" transform="translate(421.61 218.06) rotate(180)"/><line class="cls-4" x1="214.89" y1="109.03" x2="211.64" y2="109.03"/><rect class="cls-7" x="190.99" y="134.03" width="5.49" height="14.29"/><line class="cls-4" x1="190.99" y1="114.36" x2="14.2" y2="114.36"/><polygon class="cls-10" points="124.9 65.16 116.27 65.16 103.78 80.23 116.27 95.31 124.9 95.31 112.42 80.23 124.9 65.16"/><path class="cls-11" d="M95.51,65.16H80.29v6.66H93.64a3.38,3.38,0,0,1,3.5,3.12V85.17a3.74,3.74,0,0,1-3.5,3.5H80.29V95.3H95.51A8.15,8.15,0,0,0,103.78,87V73.53A8.28,8.28,0,0,0,95.51,65.16Z"/><line class="cls-4" x1="236.07" y1="109.03" x2="247.72" y2="109.03"/><path class="cls-3" d="M207.49,49.65h18A7.36,7.36,0,0,1,232.88,57v0a0,0,0,0,1,0,0h-25.4a0,0,0,0,1,0,0V49.65A0,0,0,0,1,207.49,49.65Z"/><line class="cls-4" x1="212.19" y1="51.81" x2="212.19" y2="54.85"/><line class="cls-4" x1="215.44" y1="51.81" x2="215.44" y2="54.85"/><line class="cls-4" x1="218.56" y1="51.81" x2="218.56" y2="54.85"/><line class="cls-4" x1="221.81" y1="51.81" x2="221.81" y2="54.85"/><line class="cls-4" x1="148.6" y1="114.35" x2="148.6" y2="116.93"/><line class="cls-4" x1="147.25" y1="116.93" x2="150.16" y2="116.93"/><line class="cls-4" x1="143.03" y1="114.35" x2="143.03" y2="116.93"/><line class="cls-4" x1="141.68" y1="116.93" x2="144.59" y2="116.93"/><line class="cls-4" x1="64.68" y1="114.35" x2="64.68" y2="116.93"/><line class="cls-4" x1="63.33" y1="116.93" x2="66.24" y2="116.93"/><line class="cls-4" x1="59.11" y1="114.35" x2="59.11" y2="116.93"/><line class="cls-4" x1="57.76" y1="116.93" x2="60.67" y2="116.93"/></svg>