<svg id="Layer_1" data-name="Layer 1" xmlns="http://www.w3.org/2000/svg" viewBox="0 0 274 203.64"><defs><style>.cls-1{opacity:0.4;}.cls-2{fill:#00bfd6;}.cls-3,.cls-5{fill:#fff;}.cls-3,.cls-4,.cls-5,.cls-6{stroke:#000;}.cls-3,.cls-4,.cls-6{stroke-linecap:round;stroke-linejoin:round;}.cls-4{fill:none;}.cls-5{stroke-miterlimit:10;}.cls-6{fill:#e6e6e6;}.cls-7{fill:#ef5662;}.cls-8{fill:#77787b;}</style></defs><title>Artboard 5 copy 4</title><g class="cls-1"><path class="cls-2" d="M204.11,166.67c-47.76,45.59-85.4,43.38-133.17-2.21-45.59-43.52-48-84-2.42-127.55C116.29-8.68,142.23,11.95,202,40,263.88,69.1,249.71,123.15,204.11,166.67Z"/></g><path class="cls-3" d="M124.66,97.71,115.4,62.63A5,5,0,0,1,119,56.52l30.24-8a5,5,0,0,1,6.11,3.56l9.26,35.07"/><path class="cls-3" d="M131.71,88.24h58.92a5,5,0,0,1,5,5v58.92a0,0,0,0,1,0,0H131.71a0,0,0,0,1,0,0V88.24A0,0,0,0,1,131.71,88.24Z" transform="translate(-25.27 45.78) rotate(-14.79)"/><rect class="cls-4" x="142.33" y="98.86" width="42.67" height="42.67" rx="5" ry="5" transform="translate(-25.27 45.78) rotate(-14.79)"/><rect class="cls-5" x="115.34" y="37.28" width="10.43" height="130.01" rx="5.22" ry="5.22" transform="matrix(0.97, -0.26, 0.26, 0.97, -22.12, 34.17)"/><rect class="cls-5" x="176.52" y="105.42" width="10.68" height="96.72" rx="5.34" ry="5.34" transform="translate(284.1 -61.32) rotate(75.21)"/><rect class="cls-5" x="83.02" y="23.56" width="10.43" height="37.21" rx="5.22" ry="5.22" transform="translate(106.47 -53.91) rotate(75.21)"/><circle class="cls-5" cx="103.76" cy="38.26" r="8.6" transform="translate(-6.33 27.76) rotate(-14.79)"/><circle class="cls-3" cx="137.15" cy="165.13" r="16.56" transform="translate(-37.62 40.5) rotate(-14.79)"/><circle class="cls-6" cx="137.15" cy="165.13" r="7.02" transform="translate(-37.62 40.5) rotate(-14.79)"/><polygon class="cls-7" points="173.04 109.19 168.55 110.37 164.13 119.93 172.69 126.05 177.18 124.87 168.62 118.74 173.04 109.19"/><path class="cls-8" d="M157.75,113.23l-7.92,2.09.92,3.47,6.94-1.83a1.82,1.82,0,0,1,2.25,1.14l1.41,5.32a2,2,0,0,1-1.34,2.3l-6.94,1.83L154,131l7.92-2.09a4.38,4.38,0,0,0,3.17-5.44l-1.85-7A4.46,4.46,0,0,0,157.75,113.23Z"/><path class="cls-6" d="M129.65,52.19h14a0,0,0,0,1,0,0V70.46a2,2,0,0,1-2,2h-10a2,2,0,0,1-2-2V52.19a0,0,0,0,1,0,0Z" transform="translate(-11.38 36.96) rotate(-14.79)"/></svg>