<?xml version="1.0" encoding="UTF-8"?>
<svg width="836px" height="314px" viewBox="0 0 836 314" version="1.1" xmlns="http://www.w3.org/2000/svg" xmlns:xlink="http://www.w3.org/1999/xlink">
    <!-- Generator: Sketch 48.2 (47327) - http://www.bohemiancoding.com/sketch -->
    <title>Page 1</title>
    <desc>Created with Sketch.</desc>
    <defs>
        <polygon id="path-1" points="0.210933333 0.312615385 13.8156667 0.312615385 13.8156667 9.75876923 0.210933333 9.75876923"></polygon>
    </defs>
    <g id="Promotion-Center-2" stroke="none" stroke-width="1" fill="none" fill-rule="evenodd" transform="translate(0.000000, -17.000000)" opacity="0.139945652">
        <g id="Page-1" transform="translate(-7.000000, -49.000000)">
            <path d="M85.989948,79.9808891 L83.4642978,74.4376859 C83.1300545,73.7052599 83.5211576,72.6558596 84.2518827,72.3219595 L88.494852,70.3839541 C89.1925369,70.0646717 90.0938413,70.4601202 90.4519043,71.2456317 L92.9775544,76.788835 L85.989948,79.9808891 Z M92.8615298,69.2060714 C91.9909603,67.2949935 89.7542194,66.4717835 87.8240602,67.3534644 L82.226445,69.9108007 C80.2839918,70.7978671 79.4718189,72.9751419 80.3569874,74.9185328 L84.4954577,84 L97,78.2875386 L92.8615298,69.2060714 Z" id="Fill-1" fill="#FEFEFE"></path>
            <path d="M534.068539,128.560115 L538.662099,124.776443 C539.269475,124.276566 540.332016,124.415723 540.804094,125.05709 L543.546846,128.778568 C543.998334,129.39117 543.830681,130.369933 543.179185,130.907126 L538.585626,134.69002 L534.068539,128.560115 Z M545.610161,132.800905 C547.194046,131.496405 547.463174,129.101972 546.216067,127.408765 L542.59681,122.497844 C541.341614,120.794532 539.137117,120.504556 537.526761,121.830824 L530,128.029919 L538.0834,139 L545.610161,132.800905 Z" id="Fill-3" fill="#FEFEFE"></path>
            <path d="M739.147705,204.970708 L736.469282,199.559683 C736.115916,198.844415 736.469282,197.792864 737.182868,197.439043 L741.324257,195.383982 C742.005857,195.045411 742.910595,195.408383 743.290616,196.175504 L745.968277,201.58653 L739.147705,204.970708 Z M745.612627,194.078503 C744.68961,192.213316 742.447564,191.468309 740.563454,192.40319 L735.099228,195.114803 C733.203694,196.055022 732.468022,198.237428 733.407031,200.134642 L737.795166,209 L750,202.943099 L745.612627,194.078503 Z" id="Fill-5" fill="#FEFEFE"></path>
            <path d="M435.036014,194.064111 L438.458756,198.800775 C438.910649,199.426818 438.741097,200.487695 438.116703,200.940247 L434.49271,203.56697 C433.895591,203.999589 432.974112,203.798783 432.488308,203.126968 L429.066303,198.390304 L435.036014,194.064111 Z M430.607754,205.501944 C431.787247,207.134971 434.046714,207.486382 435.695793,206.291142 L440.477901,202.82502 C442.136564,201.623136 442.489674,199.420912 441.28954,197.760569 L435.682524,190 L425,197.741375 L430.607754,205.501944 Z" id="Fill-7" fill="#FEFEFE"></path>
            <path d="M312.133524,250.371943 L312.520444,244.458389 C312.571335,243.676351 313.390077,242.957923 314.171401,243.008812 L318.702924,243.305163 C319.449073,243.353807 320.039556,244.108155 319.984923,244.94632 L319.598003,250.859874 L312.133524,250.371943 Z M322.991969,244.310213 C323.125183,242.271676 321.585737,240.53398 319.523912,240.399275 L313.543498,240.00863 C311.468951,239.872428 309.769349,241.363165 309.633889,243.436875 L309,253.125914 L322.358079,254 L322.991969,244.310213 Z" id="Fill-9" fill="#FEFEFE"></path>
            <path d="M508.43657,369.148467 L514.310515,368.122763 C515.086831,367.987307 515.984375,368.616425 516.11991,369.391535 L516.906014,373.89018 C517.035526,374.630673 516.438418,375.386969 515.605629,375.532208 L509.731684,376.557912 L508.43657,369.148467 Z M516.942157,378.319593 C518.966902,377.965902 520.299665,376.049199 519.942003,374.002308 L518.904405,368.066323 C518.544484,366.007392 516.683134,364.700241 514.623752,365.059199 L505,366.740359 L507.317652,380 L516.942157,378.319593 Z" id="Fill-11" fill="#FEFEFE"></path>
            <path d="M4.39546381,250.689408 L5.11524313,244.582994 C5.21074783,243.77631 6.09824271,243.075218 6.9042092,243.170716 L11.5839395,243.722738 C12.3541887,243.813578 12.925664,244.626472 12.8231712,245.492162 L12.1033918,251.598576 L4.39546381,250.689408 Z M15.9732733,244.99604 C16.2209644,242.890434 14.7200653,241.007655 12.5910093,240.756877 L6.41659171,240.02861 C4.2743359,239.775503 2.43257049,241.227377 2.18022067,243.368698 L1,253.373435 L14.7930526,255 L15.9732733,244.99604 Z" id="Fill-13" fill="#FEFEFE"></path>
            <path d="M111.768847,313.434179 L117.618453,314.487328 C118.391495,314.626196 119.015183,315.523962 118.876335,316.296371 L118.069519,320.779946 C117.936676,321.517825 117.118602,322.020754 116.28927,321.872127 L110.439664,320.818228 L111.768847,313.434179 Z M116.583476,324.940745 C118.600142,325.303304 120.504978,323.965663 120.871986,321.925423 L121.936983,316.009626 C122.306993,313.957376 121.013085,312.095037 118.961895,311.725722 L109.378419,310 L107,323.214272 L116.583476,324.940745 Z" id="Fill-15" fill="#FEFEFE"></path>
            <path d="M207.294646,124.019396 L212.773858,126.613197 C213.497889,126.955615 213.87368,128.005852 213.531564,128.729757 L211.546221,132.932236 C211.218647,133.623967 210.27955,133.902805 209.502709,133.535107 L204.024263,130.941306 L207.294646,124.019396 Z M208.977673,136.63679 C210.866581,137.530755 213.097605,136.719522 214.00073,134.806728 L216.621323,129.261387 C217.53057,127.337868 216.751434,125.159259 214.83038,124.249973 L205.853473,120 L200,132.386817 L208.977673,136.63679 Z" id="Fill-17" fill="#FEFEFE"></path>
            <path d="M170.629719,219.133169 L176.542324,219.521541 C177.324236,219.573175 178.042548,220.391825 177.990919,221.173059 L177.693119,225.704069 C177.644483,226.450133 176.891004,227.040549 176.052225,226.985922 L170.139621,226.59755 L170.629719,219.133169 Z M176.687483,229.991879 C178.725692,230.125826 180.463109,228.587303 180.598541,226.525712 L180.991368,220.545976 C181.127547,218.471664 179.637799,216.772255 177.564422,216.636063 L167.876939,216 L167,229.355816 L176.687483,229.991879 Z" id="Fill-19" fill="#FEFEFE"></path>
            <path d="M602.916779,219.099642 L602.908178,225.291887 C602.907396,226.110587 602.10199,226.914429 601.284072,226.913647 L596.53843,226.907392 C595.757264,226.905828 595.091044,226.159067 595.091826,225.281722 L595.100428,219.088694 L602.916779,219.099642 Z M592.000004,226.145774 C591.996876,228.280492 593.717162,229.989048 595.876902,229.992176 L602.138741,229.999996 C604.310211,230.003123 605.983579,228.33601 605.985925,226.164541 L606,216.018767 L592.013297,216 L592.000004,226.145774 Z" id="Fill-21" fill="#FEFEFE"></path>
            <path d="M633.036991,322.977426 L630.465392,317.474103 C630.125935,316.746771 630.505238,315.696437 631.230895,315.356555 L635.443075,313.383246 C636.136548,313.058708 637.038447,313.443857 637.403191,314.224127 L639.974789,319.72745 L633.036991,322.977426 Z M639.787054,312.16719 C638.899714,310.269836 636.662209,309.470385 634.745004,310.368042 L629.187256,312.971245 C627.259323,313.874271 626.470066,316.053198 627.371965,317.982775 L631.584911,327 L644,321.184415 L639.787054,312.16719 Z" id="Fill-23" fill="#FEFEFE"></path>
            <path d="M455.173851,69.7128192 L456.71571,75.625399 C456.919235,76.4062329 456.352602,77.3761028 455.572422,77.5797986 L451.045524,78.7618516 C450.300035,78.9562885 449.478224,78.410785 449.259281,77.5728544 L447.717422,71.6602747 L455.173851,69.7128192 Z M446.526336,79.171558 C447.058277,81.2100593 449.126681,82.4098585 451.186604,81.8712991 L457.159765,80.3111744 C459.232024,79.7703002 460.410004,77.7595756 459.868811,75.6863534 L457.343246,66 L444,69.4852046 L446.526336,79.171558 Z" id="Fill-30" fill="#FEFEFE"></path>
            <path d="M682.021073,134.686432 L677.855391,130.192455 C677.304915,129.598575 677.346664,128.471984 677.93889,127.921464 L681.377047,124.724422 C681.942986,124.197905 682.92874,124.290045 683.518647,124.927286 L687.685102,129.420489 L682.021073,134.686432 Z M685.175487,122.214175 C683.738992,120.664821 681.343029,120.588167 679.778192,122.042283 L675.240629,126.260613 C673.666515,127.72402 673.579923,130.0616 675.040386,131.63728 L681.865672,139 L692,129.576895 L685.175487,122.214175 Z" id="Fill-32" fill="#FEFEFE"></path>
            <path d="M652.800059,165.313476 L657.109366,169.664871 C657.678067,170.239846 657.674204,171.366581 657.100866,171.936139 L653.771334,175.243602 C653.223495,175.787623 652.235994,175.72881 651.624794,175.112046 L647.31626,170.760651 L652.800059,165.313476 Z M650.060864,177.876261 C651.545979,179.376769 653.942099,179.374448 655.457349,177.870071 L659.850879,173.50552 C661.374628,171.991857 661.383901,169.654037 659.873287,168.128766 L652.813195,161 L643,170.747496 L650.060864,177.876261 Z" id="Fill-34" fill="#FEFEFE"></path>
            <path d="M674.930465,200.381834 L670.381254,204.215222 C669.779638,204.7208 668.717446,204.594212 668.238504,203.959714 L665.460348,200.273884 C665.002709,199.666568 665.159908,198.686476 665.805598,198.14362 L670.354809,194.311008 L674.930465,200.381834 Z M663.358,196.279736 C661.788952,197.600764 661.544339,199.995078 662.808539,201.672573 L666.474059,206.536534 C667.745605,208.223349 669.950794,208.487399 671.546287,207.14385 L679,200.864114 L670.811713,190 L663.358,196.279736 Z" id="Fill-36" fill="#FEFEFE"></path>
            <path d="M648.428425,227.967081 L643.133088,225.163119 C642.43259,224.792841 642.108062,223.739557 642.477979,223.039892 L644.624103,218.977441 C644.977378,218.308822 645.917678,218.0756 646.668103,218.47238 L651.96344,221.276341 L648.428425,227.967081 Z M647.323969,215.433682 C645.497834,214.46672 643.259419,215.169414 642.282808,217.017772 L639.450559,222.378087 C638.467896,224.237047 639.14116,226.423122 640.997554,227.405985 L649.673585,232 L656,220.026939 L647.323969,215.433682 Z" id="Fill-38" fill="#FEFEFE"></path>
            <path d="M697.876997,243.517157 L697.569606,249.490357 C697.528822,250.279583 696.712385,251.016699 695.924648,250.975916 L691.347014,250.74028 C690.593264,250.701763 689.986789,249.948788 690.029839,249.102163 L690.33723,243.128963 L697.876997,243.517157 Z M687.00502,249.786411 C686.899284,251.845198 688.476268,253.576965 690.559277,253.683454 L696.599851,253.994613 C698.694945,254.102613 700.388994,252.57476 700.496241,250.480478 L701,240.694066 L687.508779,240 L687.00502,249.786411 Z" id="Fill-40" fill="#FEFEFE"></path>
            <path d="M728.997259,273.990448 L726.632285,279.6665 C726.319182,280.416475 725.274212,280.847361 724.523698,280.53526 L720.171338,278.724761 C719.454232,278.425858 719.127144,277.488002 719.462778,276.682905 L721.827752,271.007629 L728.997259,273.990448 Z M716.295236,276.299377 C715.480237,278.255833 716.408668,280.477032 718.389838,281.301538 L724.132902,283.69121 C726.125727,284.520374 728.295691,283.627547 729.124675,281.637707 L733,272.33833 L720.170561,267 L716.295236,276.299377 Z" id="Fill-42" fill="#FEFEFE"></path>
            <path d="M789.707727,279.332694 L791.256339,273.430374 C791.460611,272.649819 792.429553,272.083473 793.20887,272.287666 L797.734455,273.474294 C798.479084,273.66924 798.928482,274.547653 798.709564,275.383687 L797.160952,281.286778 L789.707727,279.332694 Z M801.874622,275.329749 C802.408041,273.294759 801.19166,271.237423 799.132754,270.697276 L793.161849,269.132313 C791.090609,268.589084 789.080266,269.763384 788.537596,271.833049 L786,281.503299 L799.337026,285 L801.874622,275.329749 Z" id="Fill-44" fill="#FEFEFE"></path>
            <path d="M477.971884,175.266913 L472.285906,173.452019 C471.534558,173.212244 471.031148,172.23656 471.270042,171.485569 L472.661203,167.126656 C472.889547,166.408842 473.769762,166.014496 474.576123,166.271612 L480.261347,168.087261 L477.971884,175.266913 Z M474.684643,163.177169 C472.724506,162.551343 470.652836,163.634851 470.020558,165.617889 L468.186275,171.370206 C467.549475,173.366062 468.593223,175.389816 470.587272,176.026197 L479.902629,179 L484,166.150971 L474.684643,163.177169 Z" id="Fill-46" fill="#FEFEFE"></path>
            <path d="M485.940218,198.313935 L482.568034,203.094503 C482.122204,203.726595 481.061974,203.910463 480.429828,203.465931 L476.761902,200.884395 C476.157852,200.4598 476.048428,199.521261 476.526049,198.843386 L479.898233,194.062818 L485.940218,198.313935 Z M473.664017,197.832481 C472.501017,199.480648 472.903963,201.734323 474.57342,202.909158 L479.413219,206.314777 C481.092287,207.496259 483.292599,207.115231 484.475562,205.439005 L490,197.606523 L479.189195,190 L473.664017,197.832481 Z" id="Fill-48" fill="#FEFEFE"></path>
            <path d="M429.052066,247.94568 L432.224026,242.980709 C432.643231,242.324761 433.702039,242.090494 434.358024,242.5092 L438.167354,244.937395 C438.7943,245.336765 438.94843,246.276063 438.498697,246.980352 L435.325993,251.944579 L429.052066,247.94568 Z M441.424197,247.866104 C442.518001,246.154096 442.008701,243.90439 440.276037,242.799989 L435.2493,239.59611 C433.506212,238.484271 431.309667,238.968423 430.197248,240.709435 L425,248.843331 L436.226949,256 L441.424197,247.866104 Z" id="Fill-50" fill="#FEFEFE"></path>
            <path d="M391.976921,248.951318 L386.483238,251.53427 C385.757136,251.875805 384.706704,251.498279 384.365505,250.773858 L382.383485,246.568999 C382.056855,245.87674 382.440224,244.974659 383.219231,244.60862 L388.712914,242.025668 L391.976921,248.951318 Z M381.158237,242.231661 C379.263625,243.122255 378.47005,245.360609 379.371735,247.27351 L381.986315,252.8223 C382.893367,254.745921 385.072438,255.530073 386.998486,254.624929 L396,250.393268 L390.158984,238 L381.158237,242.231661 Z" id="Fill-52" fill="#FEFEFE"></path>
            <path d="M371.080943,271.014565 L373.537287,276.616877 C373.862175,277.357825 373.453942,278.405506 372.715418,278.730009 L368.427042,280.615217 C367.72093,280.92504 366.821891,280.515548 366.473851,279.721288 L364.017507,274.118204 L371.080943,271.014565 Z M364.024453,281.734752 C364.871787,283.666317 367.105108,284.525477 369.056755,283.667862 L374.714912,281.180779 C376.678135,280.318528 377.525469,278.144358 376.664244,276.180343 L372.639791,267 L360,272.555181 L364.024453,281.734752 Z" id="Fill-54" fill="#FEFEFE"></path>
            <path d="M509.593835,219.432726 L508.785188,225.470988 C508.678241,226.269525 507.788037,226.949589 506.990931,226.842656 L502.362947,226.223367 C501.601234,226.12105 501.048031,225.306357 501.162672,224.450123 L501.971319,218.41186 L509.593835,219.432726 Z M498.034263,224.893241 C497.754969,226.974976 499.212995,228.863616 501.318862,229.145951 L507.425646,229.96372 C509.543823,230.247593 511.39117,228.83746 511.675081,226.719568 L513,216.826326 L499.359182,215 L498.034263,224.893241 Z" id="Fill-56" fill="#FEFEFE"></path>
            <path d="M581.687159,200.032255 L577.151241,204.155132 C576.551719,204.699589 575.425485,204.647 574.879409,204.049179 L571.715265,200.57826 C571.194749,200.006734 571.296219,199.022224 571.939117,198.43755 L576.47581,194.315447 L581.687159,200.032255 Z M569.242043,196.754681 C567.678173,198.176149 567.577478,200.572073 569.017416,202.15131 L573.192382,206.732026 C574.640065,208.31977 576.977736,208.430363 578.567941,206.98492 L586,200.23024 L576.674102,190 L569.242043,196.754681 Z" id="Fill-58" fill="#FEFEFE"></path>
            <path d="M556.582593,250.000045 L550.576659,250.854566 C549.783018,250.967124 548.890555,250.298668 548.777943,249.505403 L548.12296,244.905078 C548.014945,244.1478 548.646181,243.39818 549.498043,243.2772 L555.503976,242.422679 L556.582593,250.000045 Z M548.229442,240.399699 C546.158774,240.694494 544.741558,242.599555 545.039556,244.692979 L545.903675,250.764213 C546.203206,252.869888 548.054014,254.258867 550.159155,253.959479 L560,252.559779 L558.069521,239 L548.229442,240.399699 Z" id="Fill-60" fill="#FEFEFE"></path>
            <path d="M533.254439,244.223892 L531.294431,249.789187 C531.034985,250.525266 530.056099,250.993884 529.321003,250.735362 L525.053568,249.234148 C524.35053,248.986801 523.98671,248.105443 524.264794,247.316468 L526.224802,241.751173 L533.254439,244.223892 Z M521.209597,247.119038 C520.534143,249.037463 521.543596,251.116067 523.484965,251.798504 L529.116727,253.780256 C531.070025,254.467164 533.100859,253.494914 533.788241,251.543708 L537,242.425415 L524.421356,238 L521.209597,247.119038 Z" id="Fill-62" fill="#FEFEFE"></path>
            <path d="M374.994462,168.036125 L372.595171,173.683308 C372.278883,174.429293 371.232342,174.852251 370.486585,174.53542 L366.155457,172.69873 C365.443034,172.395843 365.12287,171.457745 365.46319,170.656759 L367.861706,165.010351 L374.994462,168.036125 Z M362.304962,170.251618 C361.477808,172.199082 362.389461,174.421547 364.360058,175.257392 L370.074171,177.681265 C372.056396,178.522532 374.227774,177.646405 375.068883,175.666406 L379,166.414788 L366.236079,161 L362.304962,170.251618 Z" id="Fill-64" fill="#FEFEFE"></path>
            <path d="M343.553048,219.933144 L342.380075,225.68885 C342.225014,226.44985 341.324325,227.045446 340.563859,226.890428 L336.152413,225.99147 C335.426075,225.843869 334.946796,225.024274 335.112985,224.208388 L336.2867,218.452682 L343.553048,219.933144 Z M332.07483,224.429419 C331.669743,226.414247 332.94881,228.326388 334.956441,228.735073 L340.778273,229.921074 C342.797033,230.332726 344.666667,229.097029 345.078432,227.078824 L347,217.648663 L333.99714,215 L332.07483,224.429419 Z" id="Fill-66" fill="#FEFEFE"></path>
            <path d="M295.13705,166.01124 L300.719182,168.486343 C301.456169,168.813476 301.860895,169.861229 301.534801,170.598822 L299.639143,174.87933 C299.327697,175.584518 298.388733,175.888505 297.597783,175.537454 L292.015651,173.062351 L295.13705,166.01124 Z M297.145261,178.672996 C299.070214,179.52632 301.29582,178.653707 302.157693,176.705567 L304.658513,171.057117 C305.526554,169.097403 304.687808,166.923202 302.731248,166.055218 L293.585987,162 L288,174.617777 L297.145261,178.672996 Z" id="Fill-68" fill="#FEFEFE"></path>
            <path d="M268.33385,194.310078 L273.004261,198.293565 C273.621663,198.8203 273.711523,199.945917 273.186306,200.563415 L270.138028,204.147389 C269.63605,204.736961 268.645262,204.761785 267.98293,204.197038 L263.313294,200.213551 L268.33385,194.310078 Z M266.652068,207.090593 C268.261807,208.463674 270.656274,208.259651 272.042911,206.62902 L276.064933,201.900036 C277.460867,200.25932 277.274174,197.923531 275.636548,196.526402 L267.985254,190 L259,200.563415 L266.652068,207.090593 Z" id="Fill-70" fill="#FEFEFE"></path>
            <path d="M215.731819,221.014367 L221.480899,219.271097 C222.24107,219.040682 223.215182,219.560632 223.445054,220.318575 L224.782561,224.719953 C225.002571,225.444547 224.498824,226.272979 223.683271,226.520827 L217.934191,228.264097 L215.731819,221.014367 Z M225.360655,229.144069 C227.342259,228.54302 228.44079,226.463981 227.83235,224.460736 L226.068479,218.653373 C225.455487,216.638759 223.434433,215.559448 221.419448,216.17035 L212,219.027039 L215.941207,232 L225.360655,229.144069 Z" id="Fill-72" fill="#FEFEFE"></path>
            <path d="M247.903455,251.540307 L242.242339,250.247231 C241.494465,250.076337 240.926227,249.172724 241.097065,248.425337 L242.086899,244.085502 C242.250404,243.371119 243.0716,242.917113 243.873732,243.100476 L249.534848,244.392818 L247.903455,251.540307 Z M243.725623,240.091856 C241.773818,239.645917 239.854273,240.865648 239.404082,242.8401 L238.096768,248.56616 C237.643644,250.552347 238.82118,252.428517 240.80598,252.882524 L250.08109,255 L253,242.210065 L243.725623,240.091856 Z" id="Fill-74" fill="#FEFEFE"></path>
            <path d="M222.709739,279.304911 L224.278741,273.419063 C224.486505,272.640642 225.4553,272.079133 226.23249,272.286045 L230.744813,273.48829 C231.488146,273.685972 231.933684,274.563619 231.7113,275.398191 L230.142298,281.284808 L222.709739,279.304911 Z M234.87085,275.356655 C235.411805,273.327529 234.205236,271.269175 232.152221,270.721511 L226.197863,269.136209 C224.132537,268.585468 222.121075,269.750023 221.570885,271.813762 L219,281.457107 L232.299964,285 L234.87085,275.356655 Z" id="Fill-76" fill="#FEFEFE"></path>
            <path d="M253.843043,323.285275 L252.283501,317.387322 C252.077204,316.608478 252.639902,315.638582 253.418133,315.432123 L257.933568,314.235738 C258.67716,314.039294 259.500807,314.580864 259.721729,315.417486 L261.281271,321.314669 L253.843043,323.285275 Z M262.444384,313.811264 C261.907089,311.777487 259.837194,310.587265 257.782694,311.131917 L251.823182,312.709635 C249.756366,313.257368 248.587095,315.268804 249.134397,317.337248 L251.690013,327 L265,323.474016 L262.444384,313.811264 Z" id="Fill-78" fill="#FEFEFE"></path>
            <path d="M150.040635,172.234733 L152.99199,167.069904 C153.381395,166.387317 154.437598,166.098964 155.119431,166.487941 L159.081885,168.746709 C159.734401,169.118414 159.93662,170.058566 159.517898,170.790714 L156.567294,175.955543 L150.040635,172.234733 Z M162.512854,171.537879 C163.529966,169.757447 162.904514,167.513698 161.101075,166.486439 L155.873433,163.505285 C154.05947,162.472019 151.868882,163.069001 150.834479,164.88022 L146,173.342341 L157.678375,180 L162.512854,171.537879 Z" id="Fill-80" fill="#FEFEFE"></path>
            <path d="M3.46066792,196.347879 L9.15846833,195.097243 C9.91129988,194.93162 10.8151397,195.508723 10.9801439,196.260283 L11.9399673,200.623891 C12.0976052,201.34159 11.5466091,202.105663 10.7385306,202.283063 L5.04146684,203.534435 L3.46066792,196.347879 Z M12.1624283,204.950694 C14.1262726,204.519339 15.3483348,202.590017 14.9115157,200.604752 L13.6459926,194.846968 C13.206227,192.850662 11.332251,191.651553 9.33452189,192.090269 L0,194.140311 L2.82790637,207 L12.1624283,204.950694 Z" id="Fill-82" fill="#FEFEFE"></path>
            <path d="M97.3101803,199.69069 L102.068626,195.79658 C102.697906,195.282278 103.823618,195.393206 104.337918,196.020762 L107.32661,199.661989 C107.818381,200.26162 107.665334,201.242129 106.990994,201.794441 L102.231772,205.687776 L97.3101803,199.69069 Z M109.604449,203.620484 C111.245239,202.27849 111.471313,199.883845 110.111758,198.226132 L106.168269,193.421327 C104.800944,191.755082 102.465616,191.523142 100.796858,192.888408 L93,199.267923 L101.808368,210 L109.604449,203.620484 Z" id="Fill-84" fill="#FEFEFE"></path>
            <path d="M81.54008,227.239837 L76.12213,225.103682 C75.4059135,224.821118 74.9786837,223.838766 75.2603171,223.12279 L76.8971734,218.968215 C77.1663061,218.284616 78.0487083,217.957165 78.8163983,218.260333 L84.2350836,220.396488 L81.54008,227.239837 Z M79.1230331,215.253674 C77.2545463,214.517094 75.1676649,215.437635 74.4235056,217.328018 L72.2652967,222.810056 C71.5167255,224.712213 72.4013338,226.750501 74.30144,227.500326 L83.1776716,231 L88,218.754084 L79.1230331,215.253674 Z" id="Fill-86" fill="#FEFEFE"></path>
            <path d="M61.6895045,248.274857 L56.958132,252.197321 C56.3330286,252.716026 55.207066,252.61213 54.6883467,251.988754 L51.6777557,248.367898 C51.1823321,247.772434 51.3290955,246.790849 52.0000139,246.234927 L56.7313864,242.312463 L61.6895045,248.274857 Z M49.3753563,244.42605 C47.7446518,245.77825 47.5342133,248.174062 48.904005,249.820892 L52.8759352,254.597786 C54.2534922,256.254696 56.5892822,256.471792 58.2479416,255.096332 L66,248.669507 L57.1274147,238 L49.3753563,244.42605 Z" id="Fill-88" fill="#FEFEFE"></path>
            <path d="M55.6861966,276.859784 L51.2872625,281.121616 C50.7060522,281.684966 49.5792316,281.667965 49.0158213,281.088387 L45.7452556,277.722197 C45.2066106,277.16812 45.2770369,276.182064 45.9000386,275.577757 L50.2997467,271.315926 L55.6861966,276.859784 Z M43.1534135,273.981985 C41.6365397,275.451023 41.6125483,277.847386 43.1007873,279.379018 L47.4161386,283.820905 C48.9128906,285.361037 51.2508885,285.396585 52.7925276,283.902819 L60,276.920833 L50.360112,267 L43.1534135,273.981985 Z" id="Fill-90" fill="#FEFEFE"></path>
            <path d="M31.9369775,371.421308 L28.4816752,376.124365 C28.0251475,376.746038 26.9638497,376.908822 26.3421166,376.453616 L22.7334092,373.809297 C22.1397019,373.373979 22.0482489,372.435578 22.5379652,371.768974 L25.99253,367.065916 L31.9369775,371.421308 Z M19.702921,370.705353 C18.5110814,372.3273 18.8702558,374.582705 20.5119854,375.786276 L25.2734436,379.275451 C26.9254985,380.48565 29.1277466,380.148297 30.3387619,378.499096 L36,370.793743 L25.3634216,363 L19.702921,370.705353 Z" id="Fill-92" fill="#FEFEFE"></path>
            <path d="M121.717329,202.197697 L123.364634,196.375528 C123.582491,195.606116 124.554057,195.062866 125.323054,195.280625 L129.787212,196.542858 C130.521811,196.750684 130.951409,197.629358 130.7175,198.454547 L129.06943,204.276716 L121.717329,202.197697 Z M133.85617,198.460659 C134.424891,196.452699 133.257636,194.39049 131.226597,193.815914 L125.336049,192.151018 C123.293544,191.573385 121.277028,192.698852 120.699134,194.740431 L118,204.279772 L131.157036,208 L133.85617,198.460659 Z" id="Fill-94" fill="#FEFEFE"></path>
            <path d="M150.761839,251.941484 L145.926959,248.628152 C145.288474,248.190375 145.089456,247.130375 145.525964,246.491116 L148.062888,242.781489 C148.48016,242.171119 149.419022,242.048897 150.104118,242.517785 L154.938997,245.831857 L150.761839,251.941484 Z M151.079232,239.637046 C149.412364,238.494824 147.158799,238.928898 146.004643,240.616305 L142.658329,245.511117 C141.497514,247.208894 141.908127,249.408893 143.60385,250.570373 L151.524618,256 L159,245.065932 L151.079232,239.637046 Z" id="Fill-96" fill="#FEFEFE"></path>
            <path d="M797.236597,174.854396 L791.394995,174.369602 C790.623072,174.30595 789.927379,173.483652 789.991027,172.712424 L790.361817,168.236044 C790.423245,167.498862 791.178886,166.928213 792.007057,166.997046 L797.847918,167.481839 L797.236597,174.854396 Z M791.42978,164.012793 C789.41671,163.84552 787.672297,165.337647 787.503555,167.374518 L787.013609,173.281593 C786.843386,175.330307 788.28806,177.036335 790.335913,177.206568 L799.905394,178 L801,164.806225 L791.42978,164.012793 Z" id="Fill-98" fill="#FEFEFE"></path>
            <path d="M806.04533,201.130612 L809.07577,196.036982 C809.476483,195.363618 810.532568,195.09502 811.205916,195.49455 L815.113431,197.813917 C815.756819,198.196238 815.941072,199.135208 815.511897,199.857953 L812.481457,204.950834 L806.04533,201.130612 Z M818.481668,200.654767 C819.527267,198.898782 818.942301,196.653485 817.164932,195.597799 L812.008091,192.536983 C810.220237,191.475311 808.027175,192.031959 806.965098,193.817872 L802,202.163104 L813.517319,209 L818.481668,200.654767 Z" id="Fill-100" fill="#FEFEFE"></path>
            <path d="M761.292226,226.876256 L761.026619,220.871626 C760.99171,220.077788 761.736929,219.2627 762.529198,219.22779 L767.130277,219.024397 C767.887638,218.990245 768.566834,219.684664 768.604778,220.53618 L768.870386,226.540811 L761.292226,226.876256 Z M771.565163,219.561718 C771.473338,217.492124 769.729436,215.911278 767.63569,216.003868 L761.564664,216.273287 C759.458776,216.365876 757.910664,218.056765 758.004006,220.162029 L758.439602,230 L772,229.399689 L771.565163,219.561718 Z" id="Fill-102" fill="#FEFEFE"></path>
            <polygon id="Fill-104" fill="#FEFEFE" points="199.278946 193 195.337801 193.206927 190 200.403044 196.058855 207 200 206.793073 193.941145 200.196117"></polygon>
            <polygon id="Fill-106" fill="#FEFEFE" points="204 220.579413 201.683013 217.394593 192.991875 217 191 225.815181 193.316987 229 195.308113 220.184819"></polygon>
            <polygon id="Fill-108" fill="#FEFEFE" points="133.047798 227 134 223.194607 128.852089 216 120.952202 219.809225 120 223.614618 127.899887 219.805393"></polygon>
            <polygon id="Fill-110" fill="#FEFEFE" points="226.132871 253 228 249.453903 224.632239 241 215.867129 242.800943 214 246.34704 222.76511 244.546097"></polygon>
            <polygon id="Fill-112" fill="#FEFEFE" points="216 373.156505 215.213127 369.240258 207.468125 365 202 372.082973 202.787627 376 208.254998 368.916247"></polygon>
            <polygon id="Fill-114" fill="#FEFEFE" points="831 125.564485 827.997297 123 819.156777 124.509018 819 133.434747 822.002703 136 822.15948 127.074271"></polygon>
            <polygon id="Fill-116" fill="#FEFEFE" points="641.337838 77 642 73.3618018 636.288 67 628.662162 71.1592793 628 74.7974775 635.625838 70.6381982"></polygon>
            <polygon id="Fill-118" fill="#FEFEFE" points="641 204.853391 644.380952 207 653 204.176009 651.843872 195.146609 648.46292 193 649.619828 202.0294"></polygon>
            <polygon id="Fill-120" fill="#FEFEFE" points="545.017978 220 545 224.075253 551.965217 230 558.982022 224.139687 559 220.064434 551.983195 225.924747"></polygon>
            <polygon id="Fill-122" fill="#FEFEFE" points="395 324.549346 398.775503 325 405 318.877669 400.308257 311.451416 396.532755 311 401.225239 318.426253"></polygon>
            <polygon id="Fill-126" fill="#FEFEFE" points="207.232609 82 211.069565 81.6401028 216 74.299732 209.836956 68 206 68.3598972 212.163796 74.6596292"></polygon>
            <polygon id="Fill-128" fill="#FEFEFE" points="118 122.449916 114.224217 122 108 128.124952 112.695059 135.550084 116.470841 136 111.775783 128.574868"></polygon>
            <polygon id="Fill-130" fill="#FEFEFE" points="43 173.109816 45.6706361 176 54.6969661 175.623053 56 166.889424 53.3293639 164 52.02633 172.732869"></polygon>
            <polygon id="Fill-132" fill="#FEFEFE" points="128.387776 240 124.424563 240.718588 120 248.397884 127.036788 254 131 253.282168 123.963212 247.680052"></polygon>
            <polygon id="Fill-134" fill="#FEFEFE" points="26 253.30791 29.3499703 255 37 251.291446 34.9641986 242.691326 31.6142283 241 33.6507549 249.60012"></polygon>
            <polygon id="Fill-136" fill="#FEFEFE" points="257.376591 166 256 169.536189 260.321575 177 268.623409 174.237814 270 170.701625 261.698166 173.463072"></polygon>
            <polygon id="Fill-138" fill="#FEFEFE" points="274.211618 227 275 223.084587 269.534138 216 261.789136 220.235453 261 224.150085 268.745756 219.914632"></polygon>
            <polygon id="Fill-140" fill="#FEFEFE" points="293.757458 254 297.078183 251.909522 298 243.431676 289.320725 241 286 243.090478 294.679275 245.522154"></polygon>
            <polygon id="Fill-142" fill="#FEFEFE" points="329.606487 270 327 272.957222 328.428741 281.755227 337.393513 282 340 279.04201 331.035228 278.797238"></polygon>
            <polygon id="Fill-144" fill="#FEFEFE" points="766 170.089548 764.552115 166.59563 756.182526 164 752 171.506816 753.447128 175 757.63041 167.493919"></polygon>
            <polygon id="Fill-146" fill="#FEFEFE" points="787.562763 192 783.972689 193.794773 782 202.493289 790.409139 206 794 204.205227 785.590861 200.698515"></polygon>
            <polygon id="Fill-148" fill="#FEFEFE" points="842 219.519831 838.947491 217 830.059899 218.596505 830 227.480169 833.052509 230 833.112408 221.116335"></polygon>
            <polygon id="Fill-150" fill="#FEFEFE" points="29.8298309 207 33.5444095 206.456075 38 198.941397 31.7145786 193 28 193.543925 34.2854214 199.485322"></polygon>
            <polygon id="Fill-152" fill="#FEFEFE" points="77.7403987 254 81.6779035 253.786967 87 246.585511 80.9375048 240 77 240.213033 83.0632648 246.797773"></polygon>
            <polygon id="Fill-154" fill="#FEFEFE" points="199 275.464052 197.335947 272.098039 188.76108 270 185 277.633987 186.664053 281 190.425133 273.366013"></polygon>
            <polygon id="Fill-156" fill="#FEFEFE" points="241 205.886321 244.700363 207 252 202.166031 248.599136 194.112927 244.898018 193 248.299637 201.052352"></polygon>
            <polygon id="Fill-158" fill="#FEFEFE" points="610 173.221848 612.568051 176 620.997514 175.405163 622 166.777404 619.431222 164 618.429463 172.627011"></polygon>
            <polygon id="Fill-160" fill="#FEFEFE" points="663.29125 244 663 247.882809 669.433637 254 676.70875 248.889801 677 245.006232 669.724887 250.117191"></polygon>
            <polygon id="Fill-162" fill="#FEFEFE" points="501.793976 193 499 195.553794 499.563894 203.968897 508.206024 205 511 202.446932 502.35787 201.41583"></polygon>
            <polygon id="Fill-164" fill="#FEFEFE" points="453 253.019353 456.786647 254 464 248.908612 460.264555 240.980647 456.477907 240 460.213353 247.927212"></polygon>
            <polygon id="Fill-168" fill="#FEFEFE" points="120.086573 164 118 177.528228 120.913427 178 123 164.471772"></polygon>
            <polygon id="Fill-170" fill="#FEFEFE" points="89.5142005 272 78 278.534861 79.4865454 281 91 274.465139"></polygon>
            <polygon id="Fill-172" fill="#FEFEFE" points="26.4750765 315 13 317.222699 13.5249235 320 27 317.776587"></polygon>
            <polygon id="Fill-174" fill="#FEFEFE" points="149.086573 193 147 206.528228 149.913427 207 152 193.471772"></polygon>
            <polygon id="Fill-176" fill="#FEFEFE" points="181.532772 245 168 247.074891 168.467228 250 182 247.925109"></polygon>
            <polygon id="Fill-178" fill="#FEFEFE" points="106.592148 217 98 227.223866 100.407852 229 109 218.776134"></polygon>
            <polygon id="Fill-180" fill="#FEFEFE" points="155 371.974895 141.639109 369 141 372.02432 154.360127 375"></polygon>
            <polygon id="Fill-182" fill="#FEFEFE" points="215 196.286462 225.122389 205 227 202.713538 216.878351 194"></polygon>
            <polygon id="Fill-184" fill="#FEFEFE" points="244.346193 216 243 229.662512 245.653807 230 247 216.337488"></polygon>
            <polygon id="Fill-186" fill="#FEFEFE" points="256 277.109397 269.597238 279 270 275.890603 256.401995 274"></polygon>
            <polygon id="Fill-188" fill="#FEFEFE" points="202 317.825526 215.274267 321 216 318.174474 202.725733 315"></polygon>
            <polygon id="Fill-192" fill="#FEFEFE" points="273 80.6260626 271.196735 67 268 67.3739374 269.803265 81"></polygon>
            <polygon id="Fill-194" fill="#FEFEFE" points="568 72.7529045 579.707101 79 581 76.2470955 569.293631 70"></polygon>
            <polygon id="Fill-196" fill="#FEFEFE" points="688.141284 163 686 176.507738 688.858716 177 691 163.493028"></polygon>
            <polygon id="Fill-198" fill="#FEFEFE" points="666 217.095598 671.084216 230 674 228.904402 668.915784 216"></polygon>
            <polygon id="Fill-200" fill="#FEFEFE" points="642.540491 252 654 244.658198 652.459509 242 641 249.341013"></polygon>
            <polygon id="Fill-202" fill="#FEFEFE" points="758 200.049388 771.370795 203 772 199.950612 758.629969 197"></polygon>
            <polygon id="Fill-204" fill="#FEFEFE" points="809.575579 229 816 217.408025 813.424421 216 807 227.591975"></polygon>
            <polygon id="Fill-206" fill="#FEFEFE" points="830.833902 252 842 244.286189 840.166098 242 829 249.713811"></polygon>
            <polygon id="Fill-208" fill="#FEFEFE" points="724 312.604024 731.430867 324 734 322.39522 726.569133 311"></polygon>
            <polygon id="Fill-210" fill="#FEFEFE" points="439.74888 132 453 128.775935 452.25112 126 439 129.224065"></polygon>
            <polygon id="Fill-212" fill="#FEFEFE" points="293.353467 230 294 216.130413 290.646533 216 290 229.869587"></polygon>
            <polygon id="Fill-214" fill="#FEFEFE" points="403.599454 250 417 247.126146 416.400546 244 403 246.873046"></polygon>
            <polygon id="Fill-216" fill="#FEFEFE" points="405.058078 177 407 163.420199 403.941922 163 402 176.580567"></polygon>
            <polygon id="Fill-218" fill="#FEFEFE" points="771 249.473233 759.635907 242 758 244.527531 769.364093 252"></polygon>
            <polygon id="Fill-220" fill="#FEFEFE" points="504 169.99785 517.144828 174 518 171.002942 504.854406 167"></polygon>
            <g id="Group-224" transform="translate(829.000000, 195.000000)">
                <mask id="mask-2" fill="white">
                    <use xlink:href="#path-1"></use>
                </mask>
                <g id="Clip-223"></g>
                <polygon id="Fill-222" fill="#FEFEFE" mask="url(#mask-2)" points="0.210933333 2.94953846 12.2968222 9.75876923 13.8158222 7.12107692 1.72993333 0.312615385"></polygon>
            </g>
            <polygon id="Fill-225" fill="#FEFEFE" points="711 220.731741 722.693917 227 724 224.268259 712.306083 218"></polygon>
            <polygon id="Fill-227" fill="#FEFEFE" points="628.008606 130 642 129.96098 641.991394 127 628 127.03902"></polygon>
            <polygon id="Fill-229" fill="#FEFEFE" points="597 193.284252 598.193571 207 601 206.715748 599.805714 193"></polygon>
            <polygon id="Fill-231" fill="#FEFEFE" points="529.387269 216 525 228.941896 527.612025 230 532 217.058104"></polygon>
            <polygon id="Fill-233" fill="#FEFEFE" points="583 248.078509 570.092325 243 569 245.921491 581.907675 251"></polygon>
            <polygon id="Fill-235" fill="#FEFEFE" points="487.32496 220 474 223.059258 474.67504 226 488 222.940742"></polygon>
            <polygon id="Fill-237" fill="#FEFEFE" points="488 246.979892 474.433092 245 474 248.020108 487.566908 250"></polygon>
            <polygon id="Fill-239" fill="#FEFEFE" points="440.735544 221 427 222.13275 427.263685 225 441 223.86725"></polygon>
            <polygon id="Fill-241" fill="#FEFEFE" points="452 323.120812 443.459803 312 441 313.879188 449.540197 325"></polygon>
            <polygon id="Fill-243" fill="#FEFEFE" points="297 129.114845 310.599518 131 311 127.885155 297.400482 126"></polygon>
            <polygon id="Fill-245" fill="#FEFEFE" points="13.9569037 132 27 127.792244 26.0430963 125 13 129.207756"></polygon>
            <polygon id="Fill-247" fill="#FEFEFE" points="49 198.947697 62.12131 203 63 200.053084 49.87869 196"></polygon>
            <polygon id="Fill-249" fill="#FEFEFE" points="2 223.790615 15.9492923 224 16 221.209385 2.05070768 221"></polygon>
            <polygon id="Fill-251" fill="#FEFEFE" points="53 216.746544 56.218625 230 59 229.253456 55.781375 216"></polygon>
            <polygon id="Fill-253" fill="#FEFEFE" points="771.060536 133 784 127.981261 782.939464 125 770 130.018739"></polygon>
            <polygon id="Fill-255" fill="#FEFEFE" points="346 201.074526 333.089885 196 332 198.925474 344.910115 204"></polygon>
            <polygon id="Fill-257" fill="#FEFEFE" points="464 201.719892 463.62582 197.893074 456.271535 193 450 199.173182 450.37418 203 456.645715 196.826818"></polygon>
            <polygon id="Fill-259" fill="#FEFEFE" points="416.58152 226 417 222.203324 410.815197 216 403.41848 220.775285 403 224.571216 410.395953 219.796676"></polygon>
            <polygon id="Fill-261" fill="#FEFEFE" points="367 241.585952 363.588746 240 356 243.913586 358.275384 252.414048 361.686638 254 359.411254 245.500299"></polygon>
            <polygon id="Fill-263" fill="#FEFEFE" points="468 276.239334 469.223776 279.869633 477.38128 283 482 275.631046 480.776224 272 476.157504 279.368954"></polygon>
            <polygon id="Fill-265" fill="#FEFEFE" points="546.836651 321 547 317.028396 540.317408 311 533.163349 316.456591 533 320.428195 540.154059 314.971604"></polygon>
            <polygon id="Fill-267" fill="#FEFEFE" points="629 376.920821 632.327744 379 641 376.545455 640.050887 368.079179 636.723143 366 637.673036 374.466276"></polygon>
            <polygon id="Fill-269" fill="#FEFEFE" points="558 195.007176 554.628293 193 546 195.595336 547.123122 203.993553 550.494829 206 549.371707 197.602512"></polygon>
            <polygon id="Fill-271" fill="#FEFEFE" points="630 220.914772 627.798632 217.661037 619.216187 217 617 225.746265 619.201368 229 621.417555 220.252956"></polygon>
            <polygon id="Fill-273" fill="#FEFEFE" points="623.25483 240 619.727126 241.391314 617 249.707472 624.472297 254 628 252.607931 620.527703 248.316159"></polygon>
            <polygon id="Fill-275" fill="#FEFEFE" points="700.348221 226 701 222.35537 695.268736 216 687.651779 220.183747 687 223.829099 694.6162 219.64463"></polygon>
            <polygon id="Fill-277" fill="#FEFEFE" points="711 201.032296 712.996564 204.500685 721.885268 206 725 197.468389 723.004212 194 719.888704 202.530828"></polygon>
            <polygon id="Fill-279" fill="#FEFEFE" points="407.443028 206 415 194.701871 412.556222 193 405 204.298894"></polygon>
            <polygon id="Fill-281" fill="#FEFEFE" points="393 225.786426 382.942693 217 381 219.21432 391.057307 228"></polygon>
            <polygon id="Fill-283" fill="#FEFEFE" points="342.742046 241 334 251.097525 336.258707 253 345 242.903218"></polygon>
            <polygon id="Fill-285" fill="#FEFEFE" points="355.669887 314 344 320.306839 345.330113 323 357 316.693161"></polygon>
            <polygon id="Fill-287" fill="#FEFEFE" points="539 274.72958 551.796711 280 553 277.27042 540.202511 272"></polygon>
            <path d="M585.892786,272.348446 L585.706674,278.411184 C585.682166,279.211533 584.870323,279.975886 584.069968,279.951378 L579.424081,279.808923 C578.658957,279.785181 578.027864,279.034614 578.05467,278.175292 L578.240782,272.113319 L585.892786,272.348446 Z M575.001834,278.932752 C574.937499,281.022849 576.57344,282.744557 578.687295,282.809657 L584.817476,282.998065 C586.944352,283.063165 588.630075,281.478551 588.695176,279.353222 L589,269.42047 L575.307424,269 L575.001834,278.932752 Z" id="Fill-289" fill="#FEFEFE"></path>
            <polygon id="Fill-291" fill="#FEFEFE" points="682 274.53781 682.154144 278.516981 689.299768 284 696 277.978394 695.845856 274 689.145624 280.021606"></polygon>
            <polygon id="Fill-293" fill="#FEFEFE" points="836.779867 272 824 277.298517 825.220133 280 838 274.702229"></polygon>
            <polygon id="Fill-295" fill="#FEFEFE" points="699.565535 366 691 377.098519 693.433684 379 702 367.901481"></polygon>
            <path d="M397.612955,72.5535123 L397.596532,72.5482376 L397.598025,72.5407023 L397.612955,72.5535123 Z M390.544849,72.2950528 C390.774032,71.5415265 391.734065,71.0276216 392.48059,71.2582007 L397.397209,72.7818307 L397.524865,72.8217676 L398.137016,73.0109027 L398.137763,73.0078886 L398.219134,72.7411403 L399,70.1708623 L398.275123,69.947065 L398.27587,69.9440509 L392.561215,68.1732642 C390.579189,67.5591403 388.585965,68.6246264 387.978293,70.6244851 L386,77.1296772 L388.809923,78 L390.544849,72.2950528 Z" id="Fill-299" fill="#FEFEFE"></path>
            <path d="M345.180478,128.098374 L345.195066,128.109303 L345.190459,128.115548 L345.180478,128.098374 Z M351.906946,130.91338 C351.418642,131.562877 350.311511,131.714322 349.673491,131.219393 L345.469161,127.953955 L345.360137,127.869645 L344.837283,127.46371 L344.83498,127.466051 L344.662998,127.695561 L343,129.909471 L343.620361,130.391129 L343.618826,130.39269 L348.504939,134.187406 C350.199416,135.503573 352.498132,135.190534 353.792599,133.468431 L358,127.866522 L355.597635,126 L351.906946,130.91338 Z" id="Fill-301" fill="#FEFEFE"></path>
            <path d="M492.941668,133.794974 L492.952695,133.781183 L492.959785,133.78578 L492.941668,133.794974 Z M495.895523,127.129329 C496.542221,127.625804 496.676129,128.733681 496.165703,129.362703 L492.801458,133.504597 L492.714024,133.61186 L492.295758,134.12749 L492.298121,134.129789 L492.52734,134.305241 L494.732098,136 L495.228346,135.389366 L495.230709,135.390898 L499.140826,130.57631 C500.497236,128.906068 500.219968,126.60757 498.504368,125.288998 L492.923551,121 L491,123.367453 L495.895523,127.129329 Z" id="Fill-303" fill="#FEFEFE"></path>
            <path d="M825.740238,168.726145 L825.747081,168.742577 L825.740238,168.746489 L825.740238,168.726145 Z M830.280943,174.481311 C829.554065,174.815431 828.520013,174.409322 828.195351,173.662051 L826.058057,168.740229 L826.002553,168.611902 L825.737197,168 L825.734155,168.001565 L825.477163,168.11972 L823,169.259016 L823.315538,169.984378 L823.313257,169.985161 L825.797263,175.705897 C826.658719,177.691058 828.804377,178.535358 830.73182,177.648804 L837,174.766135 L835.778146,171.953107 L830.280943,174.481311 Z" id="Fill-305" fill="#FEFEFE"></path>
            <path d="M778.287106,312.509424 L778.27272,312.520886 L778.267125,312.514773 L778.287106,312.509424 Z M773.921826,318.424605 C773.386356,317.810239 773.491052,316.702241 774.132817,316.191034 L778.36383,312.821192 L778.473321,312.733316 L779,312.31457 L778.997602,312.311513 L778.80819,312.094498 L776.983596,310 L776.359413,310.496689 L776.357016,310.494396 L771.440282,314.41136 C769.734769,315.769995 769.514987,318.068518 770.935981,319.699185 L775.55461,325 L777.973016,323.074376 L773.921826,318.424605 Z" id="Fill-307" fill="#FEFEFE"></path>
            <path d="M62.7402379,314.726145 L62.7478412,314.742577 L62.7402379,314.746489 L62.7402379,314.726145 Z M67.2809428,320.481311 C66.5548254,320.815431 65.520013,320.409322 65.1961114,319.662051 L63.0580568,314.740229 L63.0033129,314.611902 L62.7371965,314 L62.7341552,314.001565 L62.4771629,314.11972 L60,315.259016 L60.3155379,315.984378 L60.3132569,315.985161 L62.7980231,321.705897 C63.6594797,323.691058 65.8043773,324.535358 67.7318199,323.648804 L74,320.766135 L72.7781459,317.953107 L67.2809428,320.481311 Z" id="Fill-309" fill="#FEFEFE"></path>
            <path d="M332.597508,377.646557 L332.602006,377.62995 L332.61025,377.63146 L332.597508,377.646557 Z M332.709189,370.495877 C333.463968,370.712519 333.994637,371.671931 333.780271,372.431309 L332.365903,377.433689 L332.329176,377.563523 L332.153036,378.185519 L332.156034,378.186273 L332.423617,378.262513 L334.995263,379 L335.203633,378.262513 L335.205881,378.263268 L336.849606,372.45018 C337.42075,370.433225 336.319687,368.440425 334.317685,367.86674 L327.808746,366 L327,368.858611 L332.709189,370.495877 Z" id="Fill-311" fill="#FEFEFE"></path>
            <path d="M819.03755,377.75247 L819.041245,377.734458 L819.048636,377.736024 L819.03755,377.75247 Z M818.716789,370.340904 C819.47213,370.516325 820.053047,371.476446 819.887493,372.276024 L818.79661,377.546506 L818.768525,377.683554 L818.632534,378.339036 L818.636229,378.339819 L818.903037,378.401687 L821.478734,379 L821.639853,378.223133 L821.64207,378.223916 L822.909594,372.09747 C823.349347,369.972831 822.146123,367.980542 820.141737,367.514578 L813.623045,366 L813,369.011928 L818.716789,370.340904 Z" id="Fill-313" fill="#FEFEFE"></path>
            <path d="M737.667135,218.632054 L737.667872,218.648668 L737.660506,218.64939 L737.667135,218.632054 Z M739.967457,225.092725 C739.19921,225.149068 738.386032,224.462839 738.328579,223.709431 L737.952926,218.746184 L737.942614,218.617607 L737.89621,218 L737.892527,218.000722 L737.620731,218.020226 L735,218.211648 L735.05598,218.943385 L735.053033,218.944108 L735.490558,224.712048 C735.642293,226.713672 737.328311,228.13814 739.367149,227.989337 L746,227.505364 L745.78492,224.667985 L739.967457,225.092725 Z" id="Fill-315" fill="#FEFEFE"></path>
            <path d="M783.413854,221.645952 L783.426034,221.658516 L783.420705,221.663689 L783.413854,221.645952 Z M789.564578,225.302156 C788.986805,225.83503 787.879218,225.807684 787.331134,225.247465 L783.718346,221.555045 L783.624715,221.459705 L783.17559,221 L783.173306,221.002217 L782.969297,221.190681 L781,223.006589 L781.532098,223.551287 L781.530576,223.553505 L785.728749,227.844575 C787.184978,229.332333 789.483887,229.39072 791.01624,227.976869 L796,223.3813 L793.935549,221.271241 L789.564578,225.302156 Z" id="Fill-317" fill="#FEFEFE"></path>
            <path d="M571.685318,219.701849 L571.690467,219.71856 L571.683847,219.721598 L571.685318,219.701849 Z M575.553324,225.687317 C574.824441,225.942535 573.863876,225.453367 573.617482,224.701386 L571.990552,219.745145 L571.947893,219.616777 L571.745629,219 L571.742687,219.00076 L571.484526,219.091149 L569,219.961625 L569.239774,220.692338 L569.236832,220.693097 L571.128543,226.45373 C571.783876,228.452178 573.776351,229.467732 575.710721,228.790949 L582,226.588935 L581.070325,223.755712 L575.553324,225.687317 Z" id="Fill-319" fill="#FEFEFE"></path>
            <path d="M460.23186,227.322498 L460.23186,227.304315 L460.239579,227.303525 L460.23186,227.322498 Z M458.180842,220.133227 C458.988281,220.115044 459.801123,220.909548 459.818877,221.736464 L459.939298,227.18178 L459.942386,227.322498 L459.957825,228 L459.960912,228 L460.246526,227.993676 L463,227.929641 L462.982246,227.126441 L462.984561,227.126441 L462.845614,220.79808 C462.796982,218.60193 461.11186,216.95205 458.968982,217.001064 L452,217.162336 L452.068702,220.274736 L458.180842,220.133227 Z" id="Fill-321" fill="#FEFEFE"></path>
            <path d="M359.673619,226.205245 L359.691782,226.205245 L359.691782,226.213062 L359.673619,226.205245 Z M366.881264,224.220382 C366.889951,225.038874 366.084451,225.851112 365.259209,225.859711 L359.818135,225.911307 L359.676778,225.912089 L359,225.918343 L359,225.922251 L359.003159,226.211499 L359.030009,229 L359.83235,228.992964 L359.83235,228.99531 L366.156314,228.935897 C368.349328,228.914789 370.020345,227.229337 369.999813,225.0592 L369.931108,218 L366.822036,218.029706 L366.881264,224.220382 Z" id="Fill-323" fill="#FEFEFE"></path>
            <path d="M318.29776,217.585332 L318.283001,217.596095 L318.27834,217.589945 L318.29776,217.585332 Z M313.751844,223.313346 C313.264005,222.669127 313.424028,221.561347 314.074222,221.079336 L318.356021,217.90206 L318.467106,217.819803 L319,217.424662 L318.99767,217.422355 L318.825217,217.194034 L317.162835,215 L316.531285,215.468173 L316.529731,215.465867 L311.552683,219.158979 C309.825825,220.439729 309.493349,222.738315 310.787521,224.446494 L314.994746,230 L317.441711,228.184963 L313.751844,223.313346 Z" id="Fill-325" fill="#FEFEFE"></path>
            <path d="M149.406604,217.78511 L149.399405,217.800756 L149.392207,217.79703 L149.406604,217.78511 Z M147.939588,224.678197 C147.270865,224.319834 146.954139,223.285722 147.300378,222.594327 L149.584402,218.036933 L149.643428,217.919217 L149.927761,217.352243 L149.924882,217.350753 L149.688058,217.224097 L147.408353,216 L147.071472,216.671279 L147.069312,216.670534 L144.415295,221.967005 C143.494632,223.803523 144.151117,225.949231 145.925501,226.902134 L151.694946,230 L153,227.395349 L147.939588,224.678197 Z" id="Fill-327" fill="#FEFEFE"></path>
            <path d="M36.3261955,219.789765 L36.3080273,219.789765 L36.3072374,219.781968 L36.3261955,219.789765 Z M29.1213064,221.788134 C29.1110374,220.971789 29.9143893,220.159342 30.739859,220.149206 L36.1824295,220.083711 L36.3230359,220.082152 L37,220.074355 L37,220.070456 L36.9968403,219.781968 L36.9620837,217 L36.1595218,217.010136 L36.1595218,217.007797 L29.834607,217.083428 C27.6402005,217.109938 25.9734626,218.795648 26.00032,220.960094 L26.0872116,228 L29.197929,227.961795 L29.1213064,221.788134 Z" id="Fill-329" fill="#FEFEFE"></path>
            <path d="M156.351328,281.278435 L156.3592,281.262564 L156.366284,281.265587 L156.351328,281.278435 Z M157.648541,274.227422 C158.39554,274.562213 158.787537,275.596059 158.43962,276.311741 L156.145884,281.030553 L156.086848,281.152982 L155.801115,281.740189 L155.804264,281.7417 L156.068744,281.859595 L158.613578,283 L158.95205,282.303968 L158.954411,282.304723 L161.619679,276.821107 C162.543785,274.918165 161.731453,272.772632 159.751,271.885398 L153.310594,269 L152,271.69722 L157.648541,274.227422 Z" id="Fill-331" fill="#FEFEFE"></path>
            <path d="M408.291759,279.268489 L408.284213,279.251935 L408.291004,279.248782 L408.291759,279.268489 Z M403.672883,273.568533 C404.387485,273.216966 405.42128,273.604005 405.757829,274.349705 L407.976338,279.261394 L408.033687,279.389093 L408.309114,280 L408.312133,279.998423 L408.564922,279.873877 L411,278.674136 L410.672506,277.949719 L410.675524,277.948142 L408.097073,272.239516 C407.202878,270.25939 405.057565,269.453781 403.162777,270.387877 L397,273.42428 L398.26772,276.232086 L403.672883,273.568533 Z" id="Fill-333" fill="#FEFEFE"></path>
            <path d="M435.679883,272.703296 L435.685022,272.720023 L435.678414,272.722304 L435.679883,272.703296 Z M439.561674,278.680175 C438.834802,278.938684 437.874449,278.45284 437.625551,277.700122 L435.984581,272.745114 L435.941997,272.61662 L435.737885,272 L435.734949,272.001521 L435.477974,272.092759 L433,272.97245 L433.241557,273.703118 L433.239354,273.703878 L435.146843,279.463306 C435.80837,281.461428 437.800294,282.471133 439.728341,281.786085 L446,279.559866 L445.061674,276.726912 L439.561674,278.680175 Z" id="Fill-335" fill="#FEFEFE"></path>
            <path d="M647.360731,274.755399 L647.373668,274.767342 L647.368341,274.773313 L647.360731,274.755399 Z M653.643075,278.224859 C653.085997,278.783197 651.978691,278.795886 651.409437,278.250238 L647.6621,274.653136 L647.564688,274.559831 L647.098174,274.112713 L647.09589,274.114952 L646.898782,274.312013 L645,276.216185 L645.553272,276.746158 L645.550989,276.747651 L649.907154,280.92847 C651.417808,282.378059 653.716895,282.354173 655.194064,280.873233 L660,276.0557 L657.858447,274 L653.643075,278.224859 Z" id="Fill-337" fill="#FEFEFE"></path>
            <path d="M262.847779,247.255927 L262.862497,247.263984 L262.859553,247.271309 L262.847779,247.255927 Z M269.586912,249.03222 C269.204258,249.697323 268.170355,249.977135 267.502917,249.596239 L263.103863,247.085989 L262.989803,247.020797 L262.443049,246.708023 L262.441577,246.710953 L262.306176,246.946815 L261,249.213878 L261.649041,249.583786 L261.647569,249.585984 L266.759685,252.503499 C268.533141,253.515071 270.678949,252.936402 271.694455,251.172562 L275,245.434219 L272.485519,244 L269.586912,249.03222 Z" id="Fill-339" fill="#FEFEFE"></path>
            <path d="M195.532696,243.043084 L195.529774,243.060444 L195.522471,243.059689 L195.532696,243.043084 Z M196.283502,250.151456 C195.528313,250.031449 194.899477,249.145355 195.015603,248.365683 L195.782477,243.225737 L195.802197,243.092144 L195.897874,242.452859 L195.894222,242.452859 L195.626912,242.409837 L193.051676,242 L192.93847,242.757784 L192.936279,242.757029 L192.045245,248.730989 C191.736304,250.802818 193.039259,252.642179 195.044087,252.961444 L201.561786,254 L202,251.062457 L196.283502,250.151456 Z" id="Fill-341" fill="#FEFEFE"></path>
            <path d="M99.2658448,247.965307 L99.2837393,247.969011 L99.2821833,247.977158 L99.2658448,247.965307 Z M106.632174,247.716444 C106.449339,248.471922 105.490035,249.044455 104.697229,248.870399 L99.4727991,247.726073 L99.3374229,247.696446 L98.6877731,247.554239 L98.686995,247.557202 L98.6224191,247.824581 L98,250.39987 L98.7702436,250.568741 L98.7694656,250.570963 L104.841941,251.900455 C106.948052,252.362629 108.940571,251.175345 109.424502,249.171108 L111,242.654006 L108.013945,242 L106.632174,247.716444 Z" id="Fill-343" fill="#FEFEFE"></path>
            <path d="M594.322571,246.006405 L594.335516,246.01815 L594.330186,246.024022 L594.322571,246.006405 Z M600.69936,249.259786 C600.157173,249.822815 599.049193,249.862455 598.465123,249.340534 L594.621078,245.898497 L594.521322,245.808941 L594.043101,245.38098 L594.040816,245.383183 L593.848919,245.582115 L592,247.501698 L592.567316,248.008937 L592.565032,248.010406 L597.033506,252.011066 C598.583156,253.398452 600.88212,253.31697 602.320591,251.82388 L607,246.967297 L604.803076,245 L600.69936,249.259786 Z" id="Fill-345" fill="#FEFEFE"></path>
            <path d="M502.032034,241.821543 L502.030589,241.838459 L502.023365,241.838459 L502.032034,241.821543 Z M503.296179,248.669698 C502.542026,248.611594 501.856498,247.798877 501.913565,247.032495 L502.291364,241.979674 L502.301477,241.848756 L502.348431,241.219912 L502.345542,241.219912 L502.078265,241.199318 L499.508801,241 L499.453178,241.745052 L499.450289,241.745052 L499.011089,247.617946 C498.859392,249.65452 500.28029,251.341 502.280529,251.495453 L508.784012,252 L509,249.111728 L503.296179,248.669698 Z" id="Fill-347" fill="#FEFEFE"></path>
            <path d="M719.335289,242.660515 L719.320215,242.668729 L719.316626,242.662009 L719.335289,242.660515 Z M714.282484,247.395381 C713.940796,246.699451 714.26382,245.665262 714.93212,245.310577 L719.338161,242.973385 L719.452296,242.912902 L720,242.621686 L719.998564,242.6187 L719.877969,242.373033 L718.714366,240 L718.06473,240.344232 L718.064012,240.341992 L712.943013,243.05851 C711.166383,244.000853 710.496648,246.146141 711.402549,247.993493 L714.347088,254 L716.865236,252.663395 L714.282484,247.395381 Z" id="Fill-349" fill="#FEFEFE"></path>
            <path d="M742.26206,250.903115 L742.264997,250.886126 L742.273074,250.887603 L742.26206,250.903115 Z M741.717948,243.926628 C742.473536,244.067709 743.079329,244.953342 742.939079,245.712668 L742.016805,250.716976 L741.992574,250.846239 L741.878024,251.468915 L741.880961,251.469654 L742.148244,251.519143 L744.724148,252 L744.860726,251.262095 L744.862929,251.262095 L745.934999,245.446756 C746.306551,243.429521 745.050909,241.590299 743.046286,241.215807 L736.527223,240 L736,242.860027 L741.717948,243.926628 Z" id="Fill-351" fill="#FEFEFE"></path>
            <path d="M813.32847,242.618939 L813.31395,242.627082 L813.310321,242.62042 L813.32847,242.618939 Z M808.350436,247.457833 C807.985995,246.77756 808.283646,245.743457 808.949368,245.372601 L813.340086,242.928356 L813.453338,242.865436 L814,242.561201 L813.998548,242.55824 L813.869324,242.317665 L812.628627,240 L811.981054,240.360493 L811.979602,240.358272 L806.8767,243.198541 C805.10749,244.184529 804.488957,246.32972 805.454508,248.133665 L808.595817,254 L811.105524,252.603183 L808.350436,247.457833 Z" id="Fill-353" fill="#FEFEFE"></path>
            <path d="M783.158135,247.238236 L783.172753,247.249079 L783.168137,247.255275 L783.158135,247.238236 Z M789.938757,249.930316 C789.460197,250.580876 788.352277,250.748163 787.705991,250.266439 L783.445117,247.091086 L783.334325,247.008991 L782.804986,246.614009 L782.802677,246.616332 L782.633412,246.847126 L781,249.067549 L781.627821,249.536107 L781.626282,249.538431 L786.578067,253.228036 C788.296112,254.508245 790.595045,254.163603 791.866075,252.435746 L796,246.815372 L793.564885,245 L789.938757,249.930316 Z" id="Fill-355" fill="#FEFEFE"></path>
            <path d="M524.643387,203.169797 L524.660089,203.168242 L524.660816,203.176013 L524.643387,203.169797 Z M531.04168,200.46393 C531.12882,201.272115 530.471635,202.158011 529.717144,202.251263 L524.74723,202.863619 L524.617971,202.879938 L524,202.956094 L524,202.959202 L524.031225,203.245175 L524.327503,206 L525.06021,205.909079 L525.060936,205.912188 L530.837626,205.199586 C532.841857,204.952467 534.20488,203.114622 533.974684,200.9706 L533.223823,194 L530.383769,194.349696 L531.04168,200.46393 Z" id="Fill-357" fill="#FEFEFE"></path>
            <path d="M367.461079,201.291163 L367.449594,201.276939 L367.455719,201.271407 L367.461079,201.291163 Z M361.618345,196.854018 C362.244653,196.337208 363.351794,196.464435 363.852534,197.109263 L367.147925,201.360703 L367.232913,201.471336 L367.643306,202 L367.645603,201.997629 L367.866878,201.815086 L370,200.053662 L369.514573,199.427009 L369.516104,199.425429 L365.686285,194.483327 C364.357103,192.769317 362.058598,192.505379 360.398652,193.87643 L355,198.33412 L356.883518,200.764079 L361.618345,196.854018 Z" id="Fill-359" fill="#FEFEFE"></path>
            <path d="M390.942037,197.58626 L390.92478,197.584066 L390.92628,197.576021 L390.942037,197.58626 Z M383.869443,198.283215 C383.995498,197.527022 384.880885,196.904663 385.655974,197.026794 L390.758207,197.834911 L390.891015,197.85612 L391.525793,197.956311 L391.526543,197.953386 L391.570812,197.68572 L392,195.110717 L391.247421,194.991511 L391.247421,194.988585 L385.316826,194.050292 C383.259426,193.72412 381.420371,195.015644 381.086475,197.020212 L380,203.537801 L382.917276,204 L383.869443,198.283215 Z" id="Fill-361" fill="#FEFEFE"></path>
            <path d="M310.808485,199.470235 L310.824056,199.478202 L310.820348,199.485445 L310.808485,199.470235 Z M317.644987,201.050709 C317.27721,201.717811 316.242837,202.020578 315.560669,201.662038 L311.062073,199.295673 L310.94566,199.234105 L310.386579,198.94003 L310.385096,198.942203 L310.254595,199.179057 L309,201.454157 L309.66363,201.802557 L309.662147,201.805454 L314.889624,204.555711 C316.7033,205.509645 318.849161,204.881657 319.824956,203.110685 L323,197.352312 L320.429268,196 L317.644987,201.050709 Z" id="Fill-363" fill="#FEFEFE"></path>
            <path d="M287.860031,195.674198 L287.863931,195.690479 L287.856911,195.6927 L287.860031,195.674198 Z M291.298776,201.880372 C290.50246,202.051327 289.541577,201.476298 289.362191,200.721433 L288.177466,195.748204 L288.147048,195.618693 L287.99964,195 L287.99574,195.00074 L287.714183,195.061425 L285,195.643115 L285.174706,196.377259 L285.172366,196.377259 L286.548956,202.157896 C287.027058,204.163469 289.019018,205.357192 291.13109,204.904273 L298,203.430806 L297.323014,200.588221 L291.298776,201.880372 Z" id="Fill-365" fill="#FEFEFE"></path>
            <path d="M179.897956,199.4226 L179.882471,199.412722 L179.887117,199.405883 L179.897956,199.4226 Z M172.977857,197.032882 C173.436203,196.377134 174.543357,196.172736 175.211521,196.621045 L179.614587,199.577609 L179.728399,199.654353 L180.276556,200.022119 L180.278105,200.01908 L180.439919,199.786567 L182,197.549578 L181.350418,197.113426 L181.351967,197.111146 L176.235057,193.675879 C174.460514,192.48368 172.161041,192.906155 170.947042,194.647723 L167,200.310101 L169.516259,202 L172.977857,197.032882 Z" id="Fill-367" fill="#FEFEFE"></path>
            <path d="M80.3289597,203.920178 L80.3318915,203.903074 L80.3392209,203.904561 L80.3289597,203.920178 Z M79.7176856,196.902082 C80.4733494,197.036688 81.0860895,197.92241 80.9541598,198.688399 L80.0819581,203.735002 L80.0592368,203.86589 L79.9507613,204.493555 L79.954426,204.494298 L80.2219501,204.541894 L82.7975105,205 L82.9257755,204.256321 L82.9279743,204.256321 L83.941634,198.390183 C84.2934465,196.355478 83.021791,194.516361 81.0171929,194.160139 L74.498401,193 L74,195.88473 L79.7176856,196.902082 Z" id="Fill-369" fill="#FEFEFE"></path>
            <path d="M628.148879,196.133846 L628.13219,196.132399 L628.13219,196.124437 L628.148879,196.133846 Z M621.373285,197.291958 C621.442942,196.537738 622.254881,195.863862 623.010224,195.933348 L627.988522,196.391526 L628.117678,196.403107 L628.737335,196.460289 L628.737335,196.457394 L628.762005,196.190304 L629,193.618573 L628.265699,193.551258 L628.265699,193.549086 L622.479815,193.016355 C620.472823,192.831781 618.787269,194.228753 618.602243,196.230114 L618,202.738701 L620.845778,203 L621.373285,197.291958 Z" id="Fill-371" fill="#FEFEFE"></path>
            <path d="M689.696878,200.483893 L689.712843,200.491719 L689.710562,200.498763 L689.696878,200.483893 Z M696.808254,201.657891 C696.483627,202.405337 695.449688,202.812324 694.724409,202.478125 L689.943198,200.275704 L689.819278,200.218569 L689.224002,199.945419 L689.222482,199.947767 L689.107684,200.212308 L688,202.76145 L688.705512,203.086257 L688.703991,203.088605 L694.261417,205.647922 C696.189411,206.535465 698.334836,205.692534 699.196959,203.709259 L702,197.257744 L699.266902,196 L696.808254,201.657891 Z" id="Fill-373" fill="#FEFEFE"></path>
            <path d="M577.701146,167.731938 L577.708681,167.748519 L577.7019,167.752467 L577.701146,167.731938 Z M582.336419,173.420838 C581.625155,173.776147 580.590657,173.393202 580.251601,172.647842 L578.016092,167.737465 L577.958829,167.610343 L577.680803,167 L577.677789,167.00079 L577.425381,167.127122 L575,168.339912 L575.329261,169.063953 L575.327001,169.064743 L577.92417,174.771803 C578.825305,176.751272 580.971153,177.547955 582.859319,176.604411 L589,173.534537 L587.722136,170.728381 L582.336419,173.420838 Z" id="Fill-375" fill="#FEFEFE"></path>
            <path d="M221.342941,169.87593 L221.355881,169.887777 L221.350553,169.89296 L221.342941,169.87593 Z M227.669948,173.241931 C227.119608,173.802438 226.012078,173.827612 225.435857,173.293021 L221.64285,169.770049 L221.544656,169.678976 L221.072719,169.241381 L221.070435,169.243602 L220.875571,169.442038 L219,171.35235 L219.559474,171.872133 L219.557952,171.873614 L223.966761,175.968199 C225.496752,177.388347 227.795545,177.336516 229.254745,175.84973 L234,171.013973 L231.832132,169 L227.669948,173.241931 Z" id="Fill-377" fill="#FEFEFE"></path>
            <path d="M18.6041118,169.591568 L18.5877334,169.586286 L18.5892223,169.578741 L18.6041118,169.591568 Z M11.5569236,169.296549 C11.7891994,168.542779 12.7495705,168.03272 13.4918108,168.268132 L18.3882144,169.819435 L18.5147749,169.859424 L19.1237544,170.052583 L19.1252434,170.04881 L19.2071355,169.782463 L20,167.213307 L19.2778605,166.984686 L19.278605,166.982422 L13.5878479,165.179109 C11.6142481,164.554362 9.62203642,165.611451 9.00486771,167.610941 L7,174.113434 L9.79773222,175 L11.5569236,169.296549 Z" id="Fill-379" fill="#FEFEFE"></path>
            <path d="M759.303653,69.6254439 L759.289098,69.6362514 L759.284501,69.6293037 L759.303653,69.6254439 Z M754.668999,75.2538212 C754.205533,74.5945654 754.392452,73.4867994 755.0459,73.0197622 L759.352681,69.9450363 L759.464525,69.8655242 L760,69.4826308 L759.998468,69.480315 L759.833765,69.2464104 L758.254153,67 L757.61909,67.4531419 L757.617558,67.450826 L752.612132,71.0250116 C750.876243,72.2647831 750.486319,74.5629149 751.715843,76.3121816 L755.715435,82 L758.176781,80.2422418 L754.668999,75.2538212 Z" id="Fill-381" fill="#FEFEFE"></path>
            <polygon id="Fill-395" fill="#FEFEFE" points="29 74.6369811 27.6379928 72 25 73.3622642 26.3620072 76"></polygon>
            <polygon id="Fill-397" fill="#FEFEFE" points="150 73.8854879 147.886208 72 146 74.1145121 148.113792 76"></polygon>
            <polygon id="Fill-399" fill="#FEFEFE" points="333 73.9737552 330.97411 72 329 74.0262448 331.025171 76"></polygon>
            <polygon id="Fill-401" fill="#FEFEFE" points="515 74.0791652 513.08023 72 511 73.9208348 512.920489 76"></polygon>
            <polygon id="Fill-403" fill="#FEFEFE" points="694.957015 77 698 76.0431786 697.042174 73 694 73.9568214"></polygon>
            <polygon id="Fill-405" fill="#FEFEFE" points="818.683891 77 820 74.3168693 817.316869 73 816 75.6831307"></polygon>
            <polygon id="Fill-407" fill="#FEFEFE" points="731.318123 131 732 127.681309 728.681016 127 728 130.317829"></polygon>
            <polygon id="Fill-409" fill="#FEFEFE" points="590 127.672131 587.673588 126 586 128.32714 588.32714 130"></polygon>
            <polygon id="Fill-411" fill="#FEFEFE" points="400 127.348063 397.34822 127 397 129.651937 399.65246 130"></polygon>
            <polygon id="Fill-413" fill="#FEFEFE" points="258 127.690797 255.691524 126 254 128.309203 256.308476 130"></polygon>
            <polygon id="Fill-415" fill="#FEFEFE" points="162.34513 131 164 128.6556 161.654141 127 160 129.34513"></polygon>
            <polygon id="Fill-417" fill="#FEFEFE" points="69 129.891859 68.8918853 127 66 127.108877 66.1081147 130"></polygon>
            <polygon id="Fill-419" fill="#FEFEFE" points="85.696099 173 87 170.303636 84.303901 169 83 171.695603"></polygon>
            <polygon id="Fill-421" fill="#FEFEFE" points="191.647317 173 194 171.353414 192.353414 169 190 170.646586"></polygon>
            <polygon id="Fill-423" fill="#FEFEFE" points="335 171.979545 334.979551 169 332 169.020455 332.020449 172"></polygon>
            <polygon id="Fill-425" fill="#FEFEFE" points="440.024088 172 442 169.975912 439.975193 168 438 170.024088"></polygon>
            <polygon id="Fill-427" fill="#FEFEFE" points="548 170.591676 546.591676 168 544 169.409074 545.407574 172"></polygon>
            <polygon id="Fill-429" fill="#FEFEFE" points="724.537806 172 725 169.46174 722.462194 169 722 171.537604"></polygon>
            <polygon id="Fill-431" fill="#FEFEFE" points="761 276.465116 759.465855 274 757 275.534884 758.534145 278"></polygon>
            <polygon id="Fill-433" fill="#FEFEFE" points="616.87536 278 619 276.12536 617.12464 274 615 275.87464"></polygon>
            <polygon id="Fill-435" fill="#FEFEFE" points="510.905345 278 513 276.095375 511.094655 274 509 275.904625"></polygon>
            <polygon id="Fill-437" fill="#FEFEFE" points="298.514477 278 300 275.486266 297.485523 274 296 276.514477"></polygon>
            <polygon id="Fill-439" fill="#FEFEFE" points="123 276.577844 121.57811 274 119 275.422904 120.42189 278"></polygon>
            <polygon id="Fill-441" fill="#FEFEFE" points="15.0066412 279 16 275.993559 12.9925538 275 12 278.006441"></polygon>
            <polygon id="Fill-443" fill="#FEFEFE" points="164 319.029519 163.029519 316 160 316.970481 160.969672 320"></polygon>
            <polygon id="Fill-445" fill="#FEFEFE" points="305.963837 319 306 316.035427 303.036163 316 303 318.963819"></polygon>
            <polygon id="Fill-447" fill="#FEFEFE" points="495 318.520548 494.520652 316 492 316.479452 492.479348 319"></polygon>
            <polygon id="Fill-449" fill="#FEFEFE" points="588.22174 320 590 317.778984 587.77826 316 586 318.221016"></polygon>
            <polygon id="Fill-451" fill="#FEFEFE" points="684 319.07573 683.076546 316 680 316.92427 680.923454 320"></polygon>
            <polygon id="Fill-453" fill="#FEFEFE" points="825.153527 320 826 316.847479 822.847303 316 822 319.152521"></polygon>
            <polygon id="Fill-455" fill="#FEFEFE" points="759 373.110014 758.110197 370 755 370.889163 755.88898 374"></polygon>
            <polygon id="Fill-457" fill="#FEFEFE" points="576 372.200542 574.201265 370 572 371.799458 573.798735 374"></polygon>
            <polygon id="Fill-459" fill="#FEFEFE" points="454 372.22761 452.228334 370 450 371.77239 451.771666 374"></polygon>
            <polygon id="Fill-461" fill="#FEFEFE" points="392.309931 374 394 371.690797 391.689342 370 390 372.309931"></polygon>
            <polygon id="Fill-463" fill="#FEFEFE" points="272 371.213778 269.214539 371 269 373.785511 271.785461 374"></polygon>
            <polygon id="Fill-465" fill="#FEFEFE" points="87.4880666 374 89 371.512953 86.5126735 370 85 372.487047"></polygon>
        </g>
    </g>
</svg>