<svg xmlns="http://www.w3.org/2000/svg" width="147" height="34" viewBox="0 0 147 34">
    <defs>
        <filter id="a" width="103.4%" height="119.4%" x="-1.7%" y="-4.8%" filterUnits="objectBoundingBox">
            <feOffset dy="2" in="SourceAlpha" result="shadowOffsetOuter1"/>
            <feGaussianBlur in="shadowOffsetOuter1" result="shadowBlurOuter1" stdDeviation=".5"/>
            <feColorMatrix in="shadowBlurOuter1" result="shadowMatrixOuter1" values="0 0 0 0 0 0 0 0 0 0 0 0 0 0 0 0 0 0 0.143200861 0"/>
            <feMerge>
                <feMergeNode in="shadowMatrixOuter1"/>
                <feMergeNode in="SourceGraphic"/>
            </feMerge>
        </filter>
    </defs>
    <g fill="#FFF" fill-rule="nonzero" filter="url(#a)" transform="translate(.603)">
        <path d="M8.437 16.88c0-.255-.032-.504-.095-.748a3.414 3.414 0 0 0-.35-.812 6.303 6.303 0 0 0-.749-1.003 31.193 31.193 0 0 0-1.257-1.321c-.53.509-.955.96-1.274 1.353a7.457 7.457 0 0 0-.732 1.05c-.17.309-.282.584-.334.828-.053.244-.08.483-.08.717 0 .552.201 1.034.606 1.448.402.414 1.007.62 1.814.62.785 0 1.39-.21 1.815-.636.424-.424.636-.923.636-1.496m-8.086.732c0-.615.08-1.199.238-1.751.16-.552.393-1.103.7-1.656a11.06 11.06 0 0 1 1.163-1.671 41.896 41.896 0 0 1 1.624-1.83L2.61 9.238l2.197-2.356a99 99 0 0 1 3.295 3.375c.88.955 1.587 1.82 2.117 2.595.53.774.908 1.501 1.13 2.18.223.68.335 1.38.335 2.101 0 .786-.149 1.508-.446 2.165a5.302 5.302 0 0 1-1.21 1.704c-.51.477-1.12.849-1.83 1.114a6.54 6.54 0 0 1-2.309.398c-.827 0-1.581-.117-2.26-.35a5.065 5.065 0 0 1-1.751-1.003 4.504 4.504 0 0 1-1.13-1.544C.483 19.024.35 18.355.35 17.612M19.071 22.006a8.922 8.922 0 0 1-.573 3.215 8.312 8.312 0 0 1-1.576 2.611 7.26 7.26 0 0 1-2.388 1.751 7.12 7.12 0 0 1-3.009.637H9.52l-.158-3.47h1.336c.956 0 1.768-.133 2.436-.399.669-.265 1.215-.62 1.64-1.066a4.05 4.05 0 0 0 .923-1.528 5.503 5.503 0 0 0 .287-1.751v-8.819h3.247v3.788c0 .68.207 1.19.621 1.528.413.34.94.51 1.576.51h.35c.467 0 .7.563.7 1.688 0 1.209-.233 1.814-.7 1.814h-.35a4.1 4.1 0 0 1-1.274-.207c-.424-.138-.785-.419-1.082-.844v.542z"/>
        <path d="M40.738 19.013c.275 0 .462.143.557.43.096.286.143.706.143 1.257 0 .616-.047 1.072-.143 1.37-.095.297-.282.445-.557.445H21.777c-.276 0-.462-.143-.557-.43-.095-.286-.144-.705-.144-1.257 0-.616.049-1.072.144-1.37.095-.296.281-.445.557-.445h18.96zM47.183 17.007c0 .743.164 1.263.493 1.56.329.298.982.446 1.958.446h2.102v-1.496c0-1.104-.207-1.879-.62-2.325-.415-.445-.994-.668-1.736-.668-.7 0-1.242.212-1.624.637-.382.425-.573 1.04-.573 1.846zm-.318 9.742c.806 0 1.501-.11 2.085-.334.583-.223 1.066-.525 1.449-.907a4.06 4.06 0 0 0 .891-1.353c.212-.52.34-1.067.382-1.64h-2.165c-1.104 0-2.006-.117-2.706-.35-.7-.233-1.252-.579-1.655-1.035-.404-.456-.685-1.013-.844-1.671-.16-.658-.24-1.401-.24-2.229 0-.828.117-1.608.351-2.34a5.7 5.7 0 0 1 1.035-1.926 5.013 5.013 0 0 1 1.703-1.321c.68-.33 1.465-.494 2.356-.494.722 0 1.406.117 2.054.35a4.413 4.413 0 0 1 1.703 1.115c.488.509.875 1.167 1.162 1.974.287.807.43 1.793.43 2.96v4.458a9.114 9.114 0 0 1-.541 3.12 8.03 8.03 0 0 1-1.545 2.626 7.313 7.313 0 0 1-2.467 1.8c-.976.445-2.07.668-3.28.668h-3.215l-.19-3.47h3.247zM87.839 16.944c0 .743.196 1.273.589 1.592.393.317.854.477 1.385.477.637 0 1.13-.175 1.48-.526.35-.35.526-.864.526-1.543v-3.757h3.247v3.98c0 1.761-.446 3.093-1.337 3.995-.891.902-2.155 1.353-3.789 1.353a5.465 5.465 0 0 1-2.07-.398c-.657-.265-1.23-.8-1.718-1.608-.51.807-1.099 1.343-1.768 1.608a5.423 5.423 0 0 1-2.021.398c-.595 0-1.098-.09-1.512-.27a3.043 3.043 0 0 1-1.035-.717v.477c0 1.083-.18 2.123-.541 3.12a8.052 8.052 0 0 1-1.544 2.627 7.318 7.318 0 0 1-2.468 1.8c-.976.445-2.069.668-3.279.668h-2.006c-2.377 0-4.224-.733-5.54-2.197-1.316-1.465-1.974-3.47-1.974-6.018v-5.698h3.216v5.571c0 .743.085 1.412.255 2.006.17.594.44 1.103.812 1.528.37.425.859.753 1.464.987.605.233 1.342.35 2.213.35h1.4c.892 0 1.65-.132 2.277-.398.626-.265 1.135-.626 1.529-1.082a4.12 4.12 0 0 0 .843-1.592c.17-.605.255-1.247.255-1.926v-8.564h3.216v3.788c0 .68.217 1.19.652 1.528.435.34.981.51 1.64.51 1.592 0 2.388-.69 2.388-2.07v-3.756h3.215v3.757zM101.624 17.007c0 .743.165 1.263.494 1.56.329.298.982.446 1.958.446h2.101v-1.496c0-1.104-.207-1.879-.62-2.325-.414-.445-.993-.668-1.736-.668-.7 0-1.241.212-1.623.637-.382.425-.574 1.04-.574 1.846zm-.318 9.742c.807 0 1.502-.11 2.085-.334.584-.223 1.067-.525 1.45-.907a4.06 4.06 0 0 0 .89-1.353c.213-.52.34-1.067.383-1.64h-2.165c-1.104 0-2.006-.117-2.707-.35-.7-.233-1.252-.579-1.655-1.035-.404-.456-.685-1.013-.844-1.671-.159-.658-.239-1.401-.239-2.229 0-.828.117-1.608.35-2.34a5.7 5.7 0 0 1 1.035-1.926 5.013 5.013 0 0 1 1.704-1.321c.679-.33 1.464-.494 2.356-.494.721 0 1.406.117 2.053.35a4.413 4.413 0 0 1 1.703 1.115c.488.509.876 1.167 1.163 1.974.286.807.43 1.793.43 2.96v4.458a9.114 9.114 0 0 1-.542 3.12 8.03 8.03 0 0 1-1.544 2.626 7.313 7.313 0 0 1-2.467 1.8c-.977.445-2.07.668-3.28.668H98.25l-.19-3.47h3.246zM118.562 16.975c0 .68.211 1.19.636 1.528.424.34.955.51 1.592.51h.35c.467 0 .7.563.7 1.688 0 1.209-.233 1.814-.7 1.814h-.35c-.425 0-.855-.069-1.29-.207-.434-.138-.8-.419-1.098-.844v.542a8.913 8.913 0 0 1-.573 3.215 8.305 8.305 0 0 1-1.576 2.611 7.257 7.257 0 0 1-2.387 1.751 7.123 7.123 0 0 1-3.01.637h-.795l-.255-3.47h.51c.89 0 1.655-.133 2.292-.399.637-.265 1.151-.62 1.544-1.066.392-.446.684-.955.876-1.528.19-.573.286-1.157.286-1.751v-8.819h3.248v3.788z"/>
        <path d="M126.393 19.013c.276 0 .462.143.557.43.096.286.144.706.144 1.257 0 .616-.048 1.072-.144 1.37-.095.297-.281.445-.557.445h-5.253c-.276 0-.462-.143-.557-.43-.095-.286-.143-.705-.143-1.257 0-.616.048-1.072.143-1.37.095-.296.281-.445.557-.445h5.253z"/>
        <path d="M131.646 19.013c.275 0 .462.143.557.43.096.286.143.706.143 1.257 0 .616-.047 1.072-.143 1.37-.095.297-.282.445-.557.445h-5.253c-.276 0-.462-.143-.557-.43-.096-.286-.144-.705-.144-1.257 0-.616.048-1.072.144-1.37.095-.296.281-.445.557-.445h5.253z"/>
        <path d="M139.319 12.677c-.744 0-1.295.239-1.655.717-.362.477-.542.982-.542 1.512 0 .297.037.579.111.844.075.265.25.536.526.811.275.276.689.574 1.241.892.552.319 1.316.68 2.293 1.082.17-.211.302-.504.398-.875.095-.371.143-.737.143-1.099v-.827c0-.892-.18-1.624-.541-2.197-.362-.573-1.02-.86-1.974-.86zm-4.807 6.336c.339 0 .636.006.891.016s.494.027.716.048c.223.021.44.053.653.095.212.043.445.096.7.16-.743-.32-1.332-.653-1.767-1.004-.435-.35-.77-.726-1.002-1.13a3.739 3.739 0 0 1-.462-1.321 10.233 10.233 0 0 1-.111-1.576c0-.573.111-1.167.334-1.783a4.911 4.911 0 0 1 1.002-1.656 5.347 5.347 0 0 1 1.672-1.21c.668-.318 1.437-.477 2.308-.477.828 0 1.576.106 2.245.318a4.224 4.224 0 0 1 1.735 1.051c.488.489.865 1.13 1.13 1.926.265.796.398 1.778.398 2.945v1.624c0 1.72-.493 3.062-1.48 4.027-.988.967-2.543 1.45-4.664 1.45h-7.164c-.276 0-.462-.144-.557-.43-.095-.287-.144-.706-.144-1.258 0-.616.049-1.072.144-1.37.095-.296.281-.445.557-.445h2.866zM141.829 4.238a2.21 2.21 0 1 1-4.421 0 2.21 2.21 0 0 1 4.42 0M93.188 6.007a2.21 2.21 0 1 1-4.421 0 2.21 2.21 0 0 1 4.42 0M88.324 6.007a2.21 2.21 0 1 1-4.421 0 2.21 2.21 0 0 1 4.42 0M39.24 28.116a2.21 2.21 0 1 1-4.421 0 2.21 2.21 0 0 1 4.422 0M34.377 28.116a2.21 2.21 0 1 1-4.422 0 2.21 2.21 0 0 1 4.422 0M22.88 7.776a2.21 2.21 0 1 1-4.422 0 2.21 2.21 0 0 1 4.422 0M17.131 7.776a2.21 2.21 0 1 1-4.422 0 2.21 2.21 0 0 1 4.422 0M20.227 2.911a2.21 2.21 0 1 1-4.422 0 2.21 2.21 0 0 1 4.422 0M83.46 6.007a2.21 2.21 0 1 1-4.422 0 2.21 2.21 0 0 1 4.422 0"/>
    </g>
</svg>
