<?xml version="1.0" encoding="UTF-8"?>
<svg width="117px" height="118px" viewBox="0 0 117 118" version="1.1" xmlns="http://www.w3.org/2000/svg" xmlns:xlink="http://www.w3.org/1999/xlink">
    <!-- Generator: Sketch 48.2 (47327) - http://www.bohemiancoding.com/sketch -->
    <title>CHARACTER1-09</title>
    <desc>Created with Sketch.</desc>
    <defs></defs>
    <g id="profile-change-avatar" stroke="none" stroke-width="1" fill="none" fill-rule="evenodd" transform="translate(-773.000000, -281.000000)">
        <g id="hamedof" transform="translate(634.000000, 281.000000)" fill-rule="nonzero">
            <g id="CHARACTER1-09" transform="translate(139.000000, 0.000000)">
                <g id="Group" opacity="0.3" fill="#FFFFFF">
                    <path d="M101.769878,19.5728049 C78.7315963,-1.28977286 43.3787567,-0.414275833 21.4013868,21.5630941 C-0.57598315,43.540464 -1.45148017,78.8933036 19.4110976,101.931585 C3.45910739,87.4860795 -3.23898012,65.4282931 1.98710945,44.5518322 C7.21319903,23.6753713 23.513664,7.37490634 44.3901249,2.14881677 C65.2665858,-3.0772728 87.3243722,3.62081471 101.769878,19.5728049 Z" id="Shape"></path>
                </g>
                <g id="Group" opacity="0.08" transform="translate(15.000000, 16.000000)" fill="#333333">
                    <path d="M82.8065854,0.217682927 C103.669163,23.2559647 102.793666,58.6088043 80.8162962,80.5861742 C58.8389263,102.563544 23.4860866,103.439041 0.447804878,82.5764634 C14.8933108,98.5284536 36.9510972,105.226541 57.827558,100.000452 C78.7040189,94.7743619 95.0044839,78.473897 100.230573,57.5974361 C105.456663,36.7209752 98.7585755,14.6631888 82.8065854,0.217682927 Z" id="Shape"></path>
                </g>
                <path d="M80.2895824,86 L36.7042221,86 C27.74596,86.0111771 19.9852609,92.1343278 18,100.757533 C40.5434589,122.414156 76.4565411,122.414156 99,100.757533 C97.0142227,92.1320992 89.2501636,86.0083259 80.2895824,86 Z" id="Shape" fill="#3A6684"></path>
                <path d="M115.999961,58.2588431 C116.006584,31.7963246 98.2450382,8.65574291 72.7588475,1.92227667 C47.2726567,-4.81118958 20.4692077,6.55529481 7.50490074,29.5943858 C-5.45940625,52.6334768 -1.32526404,81.5530041 17.5696165,100 C19.5518065,91.2419487 27.3005011,85.0230465 36.2449062,85.0116947 L79.7628469,85.0116947 C88.707252,85.0230465 96.4559466,91.2419487 98.4381366,100 C109.680943,89.0491809 116.018176,73.9867681 115.999961,58.2588431 Z" id="Shape" fill="#FCD38B"></path>
                <rect id="Rectangle-path" fill="#F4997F" x="49" y="68" width="19" height="26" rx="9.5"></rect>
                <path d="M49.4404125,88 C49.1467971,87.078346 48.9982551,86.1173606 49.0000155,85.1508728 L49.0000155,77.4139651 C49.0000155,72.2147757 53.2533069,68 58.5000077,68 C61.0195623,68 63.4359225,68.9918256 65.2175167,70.7572865 C66.9991108,72.5227475 68,74.9172263 68,77.4139651 L68,82.819202" id="Shape" fill="#721D00" opacity="0.15"></path>
                <rect id="Rectangle-path" fill="#7BC5FF" x="31" y="16" width="54" height="76" rx="27"></rect>
                <rect id="Rectangle-path" fill="#FECBB8" x="79" y="56" width="1" height="2"></rect>
                <path d="M31,66 L42,66 L42,104 C35.9248678,104 31,98.9282522 31,92.6719342 L31,66 Z" id="Shape" fill="#7BC5FF"></path>
                <path d="M56.3028725,34 L59.6971275,34 C70.3578096,34 79,42.5839697 79,53.1728329 L79,62.1445763 C79,73.6627082 69.5993791,82.9999991 58.0031255,82.9999991 C52.4333251,83.0016461 47.0910819,80.8051117 43.152052,76.8937827 C39.2130222,72.9824537 36.9999998,67.6768542 37,62.1445763 L37,53.1666241 C37.0034515,42.5801856 45.644631,33.9999994 56.3028725,34 Z" id="Shape" fill="#FECBB8"></path>
                <circle id="Oval" fill="#333333" cx="49" cy="51" r="3"></circle>
                <circle id="Oval" fill="#333333" cx="68" cy="51" r="3"></circle>
                <path d="M80.1669823,86 L43,86 L43,104 L96.0555865,104 C97.0661691,103.125968 98.0476403,102.220267 99,101.282899 C97.0010688,92.3527092 89.1869302,86.011575 80.1669823,86 Z" id="Shape" fill="#7BC5FF"></path>
                <path d="M68,98 L84,98 C84,106.284271 77.5031127,113 69.4887961,113 C68.6665567,113 68,112.310991 68,111.461055 L68,98 Z" id="Shape" fill="#7BC5FF"></path>
                <path d="M67.5699411,109.987097 C67.5699411,106.334891 64.6615148,103.374194 61.073789,103.374194 L58,103.374194 L58,100 L72,100 L72,110 L67.5699411,109.987097 Z" id="Shape" fill="#7BC5FF"></path>
                <rect id="Rectangle-path" fill="#7BC5FF" x="42" y="85" width="7" height="18"></rect>
                <g id="Group" opacity="0.4" transform="translate(70.000000, 58.000000)" fill="#F4997F">
                    <circle id="Oval" cx="3.33714286" cy="0.845714286" r="1"></circle>
                    <circle id="Oval" cx="0.765714286" cy="1.20571429" r="1"></circle>
                    <circle id="Oval" cx="2.38857143" cy="3.29142857" r="1"></circle>
                </g>
                <g id="Group" opacity="0.4" transform="translate(41.000000, 58.000000)" fill="#F4997F">
                    <circle id="Oval" cx="0.708571429" cy="0.845714286" r="1"></circle>
                    <circle id="Oval" cx="3.28" cy="1.20571429" r="1"></circle>
                    <circle id="Oval" cx="1.65142857" cy="3.29142857" r="1"></circle>
                </g>
                <g id="Group" opacity="0.08" transform="translate(15.000000, 16.000000)" fill="#333333">
                    <path d="M82.4098182,0.519272727 C103.174227,23.4155282 102.315622,58.578068 80.458457,80.4335826 C58.6012919,102.289097 23.4386874,103.145047 0.544,82.3789091 C14.9063774,98.2158474 36.8213746,104.859228 57.5598505,99.6628721 C78.2983264,94.466516 94.4915535,78.2745117 99.6894756,57.5364282 C104.887398,36.7983448 98.2456719,14.882846 82.4098182,0.519272727 Z" id="Shape"></path>
                </g>
                <g id="Group" opacity="0.15" fill="#FFFFFF">
                    <path d="M101.925366,19.7818182 C78.8760794,-0.819404883 43.6384666,0.105695235 21.7154833,21.8875843 C-0.207500029,43.6694734 -1.15154869,78.6931731 19.5665854,101.610545 C3.52625573,87.2738583 -3.23971986,65.3062236 1.9771429,44.5014943 C7.19400567,23.696765 23.5411796,7.45479995 44.4747357,2.27741197 C65.4082918,-2.89997601 87.5073187,3.83328944 101.925366,19.7818182 Z" id="Shape"></path>
                </g>
                <path d="M63.5357512,68 C63.9809686,68.0001447 64.4019535,68.2115729 64.6797889,68.5745618 C64.9576243,68.9375506 65.0621447,69.4126892 64.9638259,69.8657634 C64.1328765,73.4641476 61.0473807,76 57.5,76 C53.9526193,76 50.8671235,73.4641476 50.0361741,69.8657634 C49.9378553,69.4126892 50.0423757,68.9375506 50.3202111,68.5745618 C50.5980465,68.2115729 51.0190314,68.0001447 51.4642488,68 L63.5357512,68 Z" id="Shape" fill="#FFFFFF"></path>
                <path d="M44.9160305,45 L51.0839695,45 C51.5898792,45 52,44.5522847 52,44 C52,43.4477153 51.5898792,43 51.0839695,43 L44.9160305,43 C44.4101208,43 44,43.4477153 44,44 C44,44.5522847 44.4101208,45 44.9160305,45 Z" id="Shape" fill="#333333"></path>
                <path d="M64.9160305,45 L71.0839695,45 C71.5898792,45 72,44.5522847 72,44 C72,43.4477153 71.5898792,43 71.0839695,43 L64.9160305,43 C64.4101208,43 64,43.4477153 64,44 C64,44.5522847 64.4101208,45 64.9160305,45 Z" id="Shape" fill="#333333"></path>
            </g>
        </g>
    </g>
</svg>