<svg xmlns="http://www.w3.org/2000/svg" width="111" height="111" viewBox="0 0 111 111">
    <g fill="none" fill-rule="evenodd">
        <g>
            <path fill="#D6ECFE" fill-rule="nonzero" d="M110.87 55.474C110.87 24.87 86.077.076 55.475.076 24.87.076.076 24.871.076 55.474c0 15.587 6.419 29.647 16.772 39.695 1.834-8.176 9.131-14.25 17.842-14.25h41.567c8.71 0 16.008 6.112 17.842 14.25C104.414 85.12 110.87 71.06 110.87 55.474z"/>
            <path fill="#FFF" fill-rule="nonzero" d="M96.506 18.224C86.687 9.322 73.659 3.935 59.37 3.935c-30.603 0-55.398 24.795-55.398 55.397 0 14.289 5.425 27.317 14.289 37.136C7.068 86.343.038 71.673.038 55.398.038 24.794 24.833 0 55.435 0c16.276-.038 30.908 7.03 41.07 18.224z" opacity=".3"/>
            <path fill="#FEB91F" fill-rule="nonzero" d="M76.257 80.918H34.69c-8.71 0-16.008 6.113-17.842 14.25 9.972 9.705 23.611 15.703 38.626 15.703 15.014 0 28.653-5.998 38.625-15.702-1.872-8.138-9.131-14.25-17.842-14.25z"/>
            <path fill="#FFF" fill-rule="nonzero" d="M69.266 83.21c0 7.87-6.724 14.174-14.748 13.487-7.03-.611-12.34-6.762-12.34-13.83a3.669 3.669 0 0 1 3.668-3.668h19.752a3.669 3.669 0 0 1 3.668 3.668v.343z"/>
            <path fill="#F4997F" fill-rule="nonzero" d="M55.703 89.667c-4.929 0-8.902-4.011-8.902-8.902V73.43c0-4.928 4.012-8.902 8.902-8.902 4.928 0 8.902 4.012 8.902 8.902v7.335c.038 4.89-3.974 8.902-8.902 8.902z"/>
            <path stroke="#B7735F" stroke-linecap="round" d="M77.25 53.41c.153.306.23.612.23.994a2.095 2.095 0 0 1-2.102 2.101M35.149 53.41c-.153.306-.23.612-.23.994 0 1.146.917 2.101 2.102 2.101" opacity=".38"/>
            <path fill="#FECBB8" fill-rule="nonzero" d="M36.982 53.907h1v3.82h-1zM74.805 53.907h1v3.82h-1z"/>
            <path fill="#FFF" fill-rule="nonzero" d="M80.574 97.728l1.949 3.21H79.39l-1.834-3.095-1.413-2.33 1.413-.841.879-.535zM77.556 99.677l.764 1.26h-3.133l-1.719-2.865-.076-.114.076-.077 2.216-1.299zM73.468 99.868l.65 1.07h-3.133l-.344-.574 2.292-1.375z"/>
            <path fill="#333" fill-rule="nonzero" d="M92.494 14.403c8.902 9.819 14.289 22.847 14.289 37.136 0 30.602-24.795 55.397-55.397 55.397-14.289 0-27.317-5.425-37.136-14.289 10.125 11.194 24.795 18.224 41.07 18.224 30.603 0 55.398-24.795 55.398-55.397.038-16.276-6.991-30.946-18.224-41.07z" opacity=".08"/>
            <path fill="#721D00" fill-rule="nonzero" d="M47.221 82.676a8.96 8.96 0 0 1-.42-2.713v-7.335c0-4.929 4.012-8.902 8.902-8.902 4.928 0 8.902 4.011 8.902 8.902v5.12" opacity=".15"/>
            <path fill="#1A1A1A" fill-rule="nonzero" d="M75.455 52.532h-.191v-23.84h6.189v17.842c-.038 3.323-2.713 5.998-5.998 5.998z"/>
            <path fill="#F4997F" fill-rule="nonzero" d="M74.385 48.062c2.942 0 5.349 2.407 5.349 5.349 0 2.941-2.407 5.348-5.349 5.348"/>
            <path fill="#333" fill-rule="nonzero" d="M36.791 52.532h.191v-23.84h-6.189v17.842c0 3.323 2.713 5.998 5.998 5.998z"/>
            <path fill="#F4997F" fill-rule="nonzero" d="M37.403 48.062c-2.942 0-5.349 2.407-5.349 5.349 0 2.941 2.407 5.348 5.349 5.348"/>
            <path fill="#FECBB8" fill-rule="nonzero" d="M63.802 76.83H48.444A11.446 11.446 0 0 1 36.982 65.37V28.272h38.282v37.097c0 6.342-5.158 11.461-11.462 11.461z"/>
            <path fill="#1A1A1A" fill-rule="nonzero" d="M67.432 35.722h1.49a6.31 6.31 0 0 1 6.304 6.303v-6.494l-7.794.19z"/>
            <path fill="#333" fill-rule="nonzero" d="M74.729 35.722H31.175a.342.342 0 0 1-.344-.344V27.24c0-5.96 4.852-10.812 10.812-10.812H85.77a3.065 3.065 0 0 1 3.057 3.057v2.139c0 7.794-6.304 14.098-14.098 14.098z"/>
            <path fill="#FFF" fill-rule="nonzero" d="M56.429 32.169h6.686c1.49 0 1.49-2.293 0-2.293h-6.686c-1.49 0-1.49 2.293 0 2.293z" opacity=".35"/>
            <circle cx="66.515" cy="50.163" r="2.56" fill="#333" fill-rule="nonzero"/>
            <circle cx="48.597" cy="50.163" r="2.56" fill="#333" fill-rule="nonzero"/>
            <path fill="#333" fill-rule="nonzero" d="M44.814 35.722h-1.49a6.31 6.31 0 0 0-6.303 6.303v-6.303h7.793z"/>
            <path fill="#FFF" fill-rule="nonzero" d="M81.797 21.242c0 3.133-.573 6.075-3.591 7.756-2.102 1.146-4.585.878-6.877.878-1.49 0-1.49 2.293 0 2.293 3.132 0 6.189.19 8.863-1.72 3.133-2.254 3.859-5.578 3.859-9.207.038-1.452-2.254-1.452-2.254 0z" opacity=".35"/>
            <circle cx="46.61" cy="50.965" r="7.221" stroke="#333" stroke-width="3"/>
            <circle cx="65.178" cy="50.965" r="7.221" stroke="#333" stroke-width="3"/>
            <path stroke="#333" stroke-linecap="round" stroke-linejoin="round" stroke-width="3" d="M53.869 50.813l.191-.153c1.108-.994 2.827-.917 3.82.19"/>
            <path fill="#FFF" fill-rule="nonzero" d="M59.294 70.526L49.82 68.35a2.253 2.253 0 0 1-1.757-2.216 2.258 2.258 0 0 1 2.254-2.254h9.704a3.367 3.367 0 0 1 3.362 3.362c.076 2.177-1.948 3.782-4.088 3.285z"/>
        </g>
        <path fill="#333" fill-rule="nonzero" d="M36.791 34.27h1v5.96h-1z"/>
        <path fill="#1A1A1A" fill-rule="nonzero" d="M75.264 35.722h1v4.89h-1z"/>
        <path fill="#333" fill-rule="nonzero" d="M32.818 35.263h5.578v1h-5.578z"/>
        <path fill="#333" fill-rule="nonzero" d="M36.409 35.072h3.935v1.184h-3.935z"/>
        <path fill="#1A1A1A" fill-rule="nonzero" d="M74.691 35.874h1v3.286h-1z"/>
    </g>
</svg>
