<svg xmlns="http://www.w3.org/2000/svg" width="112" height="114" viewBox="0 0 112 114">
    <g fill="none" fill-rule="evenodd">
        <path fill="#E6EDFB" fill-rule="nonzero" d="M111.772 56.552C111.772 25.58 86.828.459 56.076.459 25.323.459.38 25.58.38 56.552a56.205 56.205 0 0 0 16.857 40.224c1.86-8.259 9.187-14.453 17.958-14.453h41.8c8.77 0 16.098 6.156 17.958 14.453 10.365-10.209 16.82-24.47 16.82-40.224z"/>
        <path fill="#FFF" fill-rule="nonzero" d="M97.307 18.812C87.436 9.79 74.337 4.321 59.948 4.321c-30.752 0-55.696 25.121-55.696 56.093 0 14.491 5.43 27.683 14.39 37.624C7.364 87.753.303 72.917.303 56.437.304 25.465 25.247.344 56 .344c16.401 0 31.132 7.112 41.307 18.468z" opacity=".3"/>
        <path fill="#72C27B" fill-rule="nonzero" d="M76.957 82.323h-41.8c-8.77 0-16.098 6.156-17.958 14.453 10.023 9.827 23.728 15.907 38.839 15.907 15.11 0 28.816-6.042 38.84-15.907-1.823-8.259-9.15-14.453-17.92-14.453z"/>
        <path fill="#333" fill-rule="nonzero" d="M93.32 15.448c8.96 9.941 14.39 23.133 14.39 37.624 0 30.972-24.944 56.093-55.696 56.093-14.39 0-27.488-5.468-37.36-14.492 10.214 11.357 24.945 18.469 41.308 18.469 30.753 0 55.696-25.122 55.696-56.093 0-16.518-7.061-31.354-18.337-41.601z" opacity=".08"/>
        <ellipse cx="57.708" cy="103.391" fill="#56925C" fill-rule="nonzero" rx="1.063" ry="1.071"/>
        <path fill="#56925C" fill-rule="nonzero" d="M56.835 96.47l-4.138 3.136c-1.405 1.07-3.417.803-4.518-.612l-7.365-9.788c-1.443-1.95-1.063-4.703.835-6.156l2.126-1.606c1.405-1.071 3.417-.803 4.518.611l8.846 11.815c.645.803.494 1.95-.304 2.6z"/>
        <path fill="#56925C" fill-rule="nonzero" d="M55.355 96.47l4.138 3.136c1.405 1.07 3.417.803 4.518-.612l7.365-9.788c1.443-1.95 1.063-4.703-.835-6.156l-2.126-1.606c-1.405-1.071-3.417-.803-4.518.611L55.05 93.87c-.684.803-.494 1.95.304 2.6z"/>
        <path fill="#F4997F" fill-rule="nonzero" d="M55.924 95.056c-4.936 0-8.96-4.053-8.96-9.024V75.326c0-4.971 4.024-9.024 8.96-9.024 4.936 0 8.96 4.053 8.96 9.024v10.706c.038 4.97-3.986 9.024-8.96 9.024z"/>
        <path stroke="#B7735F" stroke-linecap="round" d="M78.02 50.013c.152.306.228.65.228.994a2.09 2.09 0 0 1-2.088 2.103M34.473 50.013c-.152.306-.228.65-.228.994a2.09 2.09 0 0 0 2.089 2.103" opacity=".38"/>
        <path fill="#FECBB8" fill-rule="nonzero" d="M36.334 50.013h1v3.862h-1zM75.591 50.472h1v3.862h-1z"/>
        <path fill="#721D00" fill-rule="nonzero" d="M47.496 89.512a9.417 9.417 0 0 1-.418-2.715v-7.418c0-4.97 4.024-9.024 8.96-9.024 4.936 0 8.96 4.053 8.96 9.024v5.2" opacity=".15"/>
        <path fill="#FECBB8" fill-rule="nonzero" d="M62.113 75.746H50.267c-7.707 0-13.933-6.27-13.933-14.032V34.795c0-8.985 7.251-16.289 16.173-16.289h7.366c8.922 0 16.173 7.304 16.173 16.29v26.918c0 7.762-6.226 14.032-13.933 14.032z"/>
        <path fill="#83644D" fill-rule="nonzero" d="M56.19 13.536c-10.972 0-19.894 8.947-19.894 20.036v5.43c0-11.051 8.884-20.037 19.894-20.037 10.972 0 19.894 8.948 19.894 20.036v-5.43c-.038-11.088-8.922-20.035-19.894-20.035z"/>
        <ellipse cx="65.15" cy="43.054" fill="#624B3A" fill-rule="nonzero" rx="2.658" ry="2.677"/>
        <ellipse cx="46.395" cy="43.054" fill="#624B3A" fill-rule="nonzero" rx="2.658" ry="2.677"/>
        <path fill="#83644D" fill-rule="nonzero" d="M43.395 42.328h5.999c1.48 0 1.48-2.294 0-2.294h-5.999c-1.48 0-1.48 2.294 0 2.294zM62.15 42.328h6c1.48 0 1.48-2.294 0-2.294h-6c-1.48 0-1.48 2.294 0 2.294z"/>
        <ellipse cx="56.569" cy="70.087" fill="#83644D" fill-rule="nonzero" rx="15.073" ry="15.18"/>
        <path fill="#F4997F" fill-rule="nonzero" d="M76.046 45.616c3.075 0 5.543 2.524 5.543 5.583s-2.506 5.582-5.543 5.582M36.296 56.82c-3.076 0-5.543-2.524-5.543-5.583 0-3.06 2.505-5.583 5.543-5.583"/>
        <path fill="#83644D" fill-rule="nonzero" d="M58.392 14.95h-4.404c-3.227 0-5.809 2.639-5.809 5.85 0 3.25 2.62 5.85 5.809 5.85h4.404c3.227 0 5.809-2.638 5.809-5.85 0-3.25-2.582-5.85-5.81-5.85z"/>
        <path fill="#FFF" fill-rule="nonzero" d="M59.873 19.615c0 1.07-.798 1.95-1.823 2.103-.607.077-1.253 0-1.822 0-1.48 0-1.48 2.294 0 2.294 1.177 0 2.316.077 3.417-.42 1.518-.688 2.543-2.294 2.543-4.015-.037-1.453-2.315-1.453-2.315.038z" opacity=".35"/>
        <path fill="#FEFEFE" fill-rule="nonzero" d="M48.027 69.934c0 1.033.684 1.912 1.633 2.065l11.959 1.683c1.898.267 3.569-1.377 3.569-3.518 0-2.103-1.595-3.71-3.455-3.518l-11.997 1.262c-.988.076-1.709.956-1.709 2.026"/>
        <path stroke="#56925C" stroke-linecap="round" stroke-linejoin="round" stroke-width="4" d="M53.266 97.656v4.97c0 2.945 2.392 5.354 5.316 5.354"/>
    </g>
</svg>
