<svg xmlns="http://www.w3.org/2000/svg" width="114" height="113" viewBox="0 0 114 113">
    <g fill="none" fill-rule="nonzero">
        <path fill="#EFECFE" d="M113.066 56.514c0-31.134-25.228-56.4-56.4-56.4-31.172 0-56.4 25.228-56.4 56.4 0 15.853 6.555 30.181 17.073 40.394 1.867-8.308 9.298-14.52 18.14-14.52h42.299c8.879 0 16.272 6.212 18.14 14.52 10.593-10.251 17.148-24.541 17.148-40.394z"/>
        <path fill="#E5329A" d="M77.892 82.389h-42.3c-8.879 0-16.271 6.211-18.139 14.519 10.175 9.87 24.008 15.967 39.327 15.967 15.32 0 29.153-6.097 39.328-15.967-1.944-8.308-9.375-14.52-18.216-14.52z"/>
        <path fill="#FFF" d="M70.766 84.713c0 8.003-6.86 14.443-15.014 13.72-7.165-.61-12.538-6.86-12.538-14.063a3.74 3.74 0 0 1 3.735-3.734h20.12a3.74 3.74 0 0 1 3.735 3.734v.343h-.038z"/>
        <path fill="#F4997F" d="M56.971 91.306c-5.03 0-9.07-4.077-9.07-9.07v-7.469c0-5.03 4.078-9.07 9.07-9.07 5.03 0 9.07 4.078 9.07 9.07v7.47c0 4.992-4.04 9.069-9.07 9.069z"/>
        <path fill="#721D00" d="M48.32 84.98a9.382 9.382 0 0 1-.419-2.744v-7.469c0-5.03 4.078-9.07 9.07-9.07 5.03 0 9.07 4.078 9.07 9.07v5.221" opacity=".15"/>
        <path fill="#FFF" d="M55.163 103.783l2.29-2.29 2.29 2.29-2.29 2.29zM55.147 109.659l2.29-2.29 2.29 2.29-2.29 2.29zM52.217 106.714l2.29-2.29 2.291 2.29-2.29 2.29zM58.092 106.729l2.29-2.29 2.29 2.29-2.29 2.29zM65.532 103.794l2.29-2.29 2.29 2.29-2.29 2.29zM65.516 109.669l2.29-2.29 2.29 2.29-2.29 2.29z"/>
        <path fill="#FFF" d="M62.587 106.723l2.29-2.29 2.29 2.29-2.29 2.29zM68.49 106.712l2.29-2.29 2.29 2.29-2.29 2.29zM44.687 103.791l2.29-2.29 2.29 2.29-2.29 2.29zM44.671 109.667l2.29-2.29 2.291 2.29-2.29 2.29zM41.741 106.722l2.29-2.29 2.29 2.29-2.29 2.29zM47.643 106.71l2.29-2.29 2.29 2.29-2.29 2.291zM33.79 103.798l2.29-2.29 2.291 2.29-2.29 2.29zM33.774 109.673l2.29-2.29 2.291 2.29-2.29 2.29zM30.845 106.726l2.29-2.29 2.29 2.29-2.29 2.29zM36.747 106.715l2.29-2.29 2.29 2.29-2.29 2.29zM76.08 103.776l2.291-2.29 2.29 2.29-2.29 2.29zM76.065 109.652l2.29-2.29 2.29 2.29-2.29 2.29zM73.108 106.734l2.29-2.29 2.291 2.29-2.29 2.29zM79.01 106.723l2.29-2.29 2.291 2.29-2.29 2.29z"/>
        <path fill="#FE9252" d="M75.072 58.648h1v2.21h-1zM39.052 60.902h-1v-2.21h1z"/>
        <path fill="#FFF" d="M98.508 18.558C88.524 9.527 75.263 4.001 60.706 4.001c-31.134 0-56.4 25.228-56.4 56.4 0 14.557 5.526 27.818 14.557 37.803C7.47 87.876.305 72.976.305 56.399.305 25.265 25.532 0 56.705 0 73.28 0 88.18 7.164 98.507 18.558z" opacity=".3"/>
        <path fill="#333" d="M94.545 14.71c9.032 9.984 14.557 23.245 14.557 37.802 0 31.134-25.227 56.4-56.4 56.4-14.556 0-27.818-5.526-37.802-14.557 10.327 11.394 25.227 18.558 41.804 18.558 31.134 0 56.4-25.227 56.4-56.4 0-16.538-7.165-31.476-18.559-41.803z" opacity=".15"/>
        <g transform="translate(29.724 14.862)">
            <path fill="#FEA691" d="M33.04 65.774H21.53A12.604 12.604 0 0 1 8.918 53.16V25.837c0-3.696 3.01-6.707 6.707-6.707h23.36c3.697 0 6.707 3.01 6.707 6.707V53.16c0 6.974-5.678 12.614-12.652 12.614z"/>
            <path fill="#721D00" d="M45.691 42.414V19.549h5.907v16.958c0 3.277-2.668 5.907-5.907 5.907z"/>
            <path fill="#F4997F" d="M45.691 37.27a5.147 5.147 0 0 1 5.145 5.144 5.147 5.147 0 0 1-5.145 5.144"/>
            <path fill="#721D00" d="M8.917 42.414V19.549H3.011v16.958c0 3.277 2.667 5.907 5.906 5.907z"/>
            <path fill="#F4997F" d="M8.917 37.27a5.147 5.147 0 0 0-5.144 5.144 5.147 5.147 0 0 0 5.144 5.144"/>
            <path fill="#903100" d="M46.606 26.294H9.45c-5.107 0-9.26-4.153-9.26-9.26 0-5.106 4.153-9.26 9.26-9.26h37.155c5.106 0 9.26 4.154 9.26 9.26.038 5.107-4.116 9.26-9.26 9.26z"/>
            <path fill="#903100" d="M45.691 26.294c-7.24 0-13.109-5.868-13.109-13.109 0-7.24 5.869-13.109 13.11-13.109 7.24 0 13.108 5.869 13.108 13.11-.038 7.24-5.907 13.108-13.109 13.108z"/>
            <path fill="#FFF" d="M9.108 21.035H21.95c2.21 0 2.21-3.43 0-3.43H9.108c-2.21 0-2.21 3.43 0 3.43zM29.533 21.035h4.802c2.21 0 2.21-3.43 0-3.43h-4.802c-2.21 0-2.21 3.43 0 3.43z" opacity=".35"/>
            <path fill="#923201" d="M33.04 34.373c1.486.61 2.972 1.22 4.42 1.83.571.228 1.257-.267 1.41-.801.19-.648-.229-1.181-.8-1.41-1.487-.61-2.973-1.22-4.42-1.83-.573-.228-1.258.268-1.41.801-.153.648.228 1.143.8 1.41zM16.5 36.05c1.525-.534 3.011-1.029 4.535-1.563 1.372-.457.8-2.667-.61-2.21-1.524.534-3.01 1.03-4.534 1.563-1.372.457-.8 2.667.61 2.21z"/>
            <circle cx="35.593" cy="41.271" r="2.477" fill="#602905"/>
            <circle cx="18.444" cy="41.271" r="2.477" fill="#602905"/>
            <path fill="#FFF" d="M32.925 54.113c.877 0 1.524.8 1.334 1.677-.762 3.124-3.582 5.487-6.936 5.45-3.353-.039-6.173-2.326-6.935-5.488-.19-.839.457-1.677 1.333-1.677l11.204.038z"/>
            <path fill="#903100" d="M35.173 65.736H19.435c-5.792 0-10.518-4.687-10.518-10.518v-3.43a4.464 4.464 0 0 1 4.459-4.458h27.857a4.464 4.464 0 0 1 4.458 4.458v3.43c0 5.792-4.725 10.518-10.518 10.518z"/>
            <path fill="#FFF" d="M32.773 52.97c.876 0 1.524.8 1.333 1.676-.762 3.125-3.582 5.488-6.935 5.45-3.354 0-6.174-2.325-6.936-5.488-.19-.838.457-1.676 1.334-1.676l11.204.038z"/>
            <path fill="#FEA691" d="M45.539 37.346h1v10.175h-1zM8.917 37.269h1v10.175h-1z"/>
        </g>
    </g>
</svg>
