<svg id="Layer_1" data-name="Layer 1" xmlns="http://www.w3.org/2000/svg" viewBox="0 0 112 112"><defs><style>.cls-1{fill:#f7e494;}.cls-2{opacity:0.3;}.cls-3{fill:#fff;}.cls-4{fill:#f4997f;}.cls-5{fill:#333;}.cls-6{fill:#ffe471;}.cls-7{fill:#4d4d4d;}.cls-8{fill:#fecbb8;}.cls-9{fill:none;}.cls-10{fill:#ff5252;}.cls-11{fill:#ff8a80;}.cls-12{opacity:0.35;}.cls-13{opacity:0.08;}</style></defs><title>ji</title><path class="cls-1" d="M110.82,56A54.87,54.87,0,1,0,17.7,95.28,18.12,18.12,0,0,1,35.37,81.16H76.54A18.12,18.12,0,0,1,94.21,95.28,54.7,54.7,0,0,0,110.82,56Z"/><g class="cls-2"><path class="cls-3" d="M96.65,19A54.86,54.86,0,0,0,19.15,96.54,54.86,54.86,0,1,1,96.65,19Z"/></g><path class="cls-3" d="M69.61,83.42A13.42,13.42,0,0,1,55,96.78,13.62,13.62,0,0,1,42.78,83.09h0a3.63,3.63,0,0,1,3.63-3.63H66a3.63,3.63,0,0,1,3.63,3.63Z"/><rect class="cls-4" x="47.36" y="64.88" width="17.67" height="24.93" rx="8.18" ry="8.18"/><path class="cls-5" d="M75.74,25.57a6.23,6.23,0,0,1,5.33,3,6.23,6.23,0,0,1-10.65,0A6.23,6.23,0,0,1,75.74,25.57Z"/><path class="cls-5" d="M75.39,23.56A6.17,6.17,0,0,0,74,17.67a6.17,6.17,0,0,0-2.92,10.14A6.17,6.17,0,0,0,75.39,23.56Z"/><rect class="cls-6" x="16.31" y="79.4" width="79.73" height="13.2"/><path class="cls-7" d="M76.54,81.16H35.37a18.17,18.17,0,0,0-4,.44V105a55,55,0,0,0,49.16,0V81.61A18.17,18.17,0,0,0,76.54,81.16Z"/><path class="cls-8" d="M17.64,95.36a55,55,0,0,0,13.68,9.74V81.69A18.14,18.14,0,0,0,17.64,95.36Z"/><path class="cls-8" d="M80.53,81.74v23.41a55,55,0,0,0,13.68-9.74A18.14,18.14,0,0,0,80.53,81.74Z"/><path class="cls-8" d="M54.38,17.84H57.3A18.2,18.2,0,0,1,75.5,36V62.25A11.84,11.84,0,0,1,63.66,74.09H48A11.84,11.84,0,0,1,36.19,62.25V36a18.2,18.2,0,0,1,18.2-18.2Z"/><circle class="cls-5" cx="64.69" cy="47.88" r="2.64"/><circle class="cls-5" cx="46.28" cy="47.88" r="2.64"/><path class="cls-5" d="M43.32,41.27h5.94a1.13,1.13,0,0,0,0-2.25H43.32a1.13,1.13,0,0,0,0,2.25Z"/><path class="cls-5" d="M61.73,41.27h5.94a1.13,1.13,0,0,0,0-2.25H61.73a1.13,1.13,0,0,0,0,2.25Z"/><path class="cls-4" d="M75.5,44.5a5.5,5.5,0,0,1,0,11"/><path class="cls-4" d="M36.19,55.49a5.5,5.5,0,0,1,0-11"/><path class="cls-9" d="M23.46,85.71l-1.2-3.45-3.47,10A18.25,18.25,0,0,1,23.46,85.71Z"/><path class="cls-9" d="M76.28,108.42l.51-1.48-.91.36Z"/><path class="cls-9" d="M35.77,108.42l.45-1.3-1.05-.42Z"/><path class="cls-9" d="M18.06,94.38l-.33,1,4.54,13.08L24.83,101a55.46,55.46,0,0,1-7-5.77C17.9,95,18,94.67,18.06,94.38Z"/><path class="cls-9" d="M92.26,89.4l-2.48-7.14L88.7,85.37A18.3,18.3,0,0,1,92.26,89.4Z"/><path class="cls-9" d="M89.78,108.42l4.37-12.61a55.43,55.43,0,0,1-6.84,5.51Z"/><path class="cls-10" d="M92.26,89.4a18.3,18.3,0,0,0-3.56-4l-3.46,10,2.07,6a55.43,55.43,0,0,0,6.84-5.51l.16-.47Z"/><path class="cls-10" d="M52.88,110.78c1.12.07,2.26.11,3.4.11q1.45,0,2.89-.08L56,101.73Z"/><path class="cls-10" d="M71.74,95.34l4.15,12,.91-.36,4-11.6L76.28,82.26Z"/><path class="cls-10" d="M40.17,108.5q2.52.77,5.15,1.3l-2.8-8.07Z"/><path class="cls-10" d="M28.45,103.35l1.4.79L29,101.73Z"/><path class="cls-10" d="M85.1,83a18.06,18.06,0,0,0-4.69-1.59L83,89Z"/><polygon class="cls-10" points="45.25 81.08 39.79 81.08 42.52 88.96 45.25 81.08"/><polygon class="cls-10" points="58.76 81.08 53.29 81.08 56.02 88.96 58.76 81.08"/><polygon class="cls-10" points="58.24 95.34 62.77 108.42 67.31 95.34 62.77 82.26 58.24 95.34"/><polygon class="cls-10" points="72.26 81.08 66.79 81.08 69.53 88.96 72.26 81.08"/><path class="cls-10" d="M31.6,81.52A18.06,18.06,0,0,0,27,83.22L29,89Z"/><path class="cls-10" d="M18.79,92.27l-.73,2.11c-.08.29-.16.59-.23.89a55.46,55.46,0,0,0,7,5.77l2-5.7-3.34-9.63A18.25,18.25,0,0,0,18.79,92.27Z"/><path class="cls-10" d="M66.69,109.9q2.66-.51,5.23-1.27l-2.4-6.91Z"/><path class="cls-10" d="M82.07,104.5c.54-.29,1.08-.59,1.61-.89L83,101.73Z"/><path class="cls-10" d="M31.23,95.34l3.94,11.36,1.05.42L40.3,95.34,35.77,82.26Z"/><polygon class="cls-10" points="44.73 95.34 49.27 108.42 53.81 95.34 49.27 82.26 44.73 95.34"/><path class="cls-11" d="M94.15,95.82l.25-.23-.08-.24Z"/><path class="cls-11" d="M85.24,95.34l3.46-10A18.22,18.22,0,0,0,85.1,83L83,89Z"/><path class="cls-11" d="M80.82,95.34l-4,11.6a54.87,54.87,0,0,0,5.28-2.45l1-2.77Z"/><polygon class="cls-11" points="71.74 95.34 76.28 82.26 75.87 81.08 72.26 81.08 69.53 88.96 71.74 95.34"/><path class="cls-11" d="M67.31,95.34l-4.54,13.08.69,2q1.63-.21,3.22-.52l2.84-8.18Z"/><polygon class="cls-11" points="58.24 95.34 62.77 82.26 62.36 81.08 58.76 81.08 56.02 88.96 58.24 95.34"/><path class="cls-11" d="M53.81,95.34l-4.54,13.08.73,2.11q1.43.16,2.88.25L56,101.73Z"/><path class="cls-11" d="M40.3,95.34l-4.09,11.78q1.94.76,4,1.38l2.35-6.77Z"/><polygon class="cls-11" points="44.73 95.34 49.27 82.26 48.86 81.08 45.25 81.08 42.52 88.96 44.73 95.34"/><path class="cls-11" d="M26.8,95.34l-2,5.7q1.76,1.23,3.63,2.32l.56-1.63Z"/><path class="cls-11" d="M31.23,95.34l4.54-13.08-.41-1.18a18.25,18.25,0,0,0-3.76.44L29,89Z"/><path class="cls-11" d="M18.06,94.38l.73-2.11A18.09,18.09,0,0,0,18.06,94.38Z"/><path class="cls-11" d="M31.23,95.34,29,101.73l.84,2.42a54.9,54.9,0,0,0,5.31,2.55Z"/><path class="cls-11" d="M26.8,95.34,29,89l-2-5.74a18.24,18.24,0,0,0-3.56,2.49Z"/><polygon class="cls-11" points="26.8 95.34 29.02 101.73 31.23 95.34 29.02 88.96 26.8 95.34"/><polygon class="cls-11" points="35.77 82.26 40.3 95.34 42.52 88.96 39.79 81.08 36.18 81.08 35.77 82.26"/><path class="cls-11" d="M49.27,108.42,44.73,95.34l-2.21,6.38,2.8,8.07q1.62.33,3.28.56Z"/><path class="cls-11" d="M50,110.53l-.73-2.11-.67,1.93Z"/><polygon class="cls-11" points="40.3 95.34 42.52 101.73 44.73 95.34 42.52 88.96 40.3 95.34"/><path class="cls-11" d="M35.59,81.08h-.23l.41,1.18.41-1.18Z"/><path class="cls-11" d="M62.77,108.42,58.24,95.34,56,101.73l3.15,9.09q1.43-.07,2.85-.22Z"/><polygon class="cls-11" points="49.27 82.26 53.81 95.34 56.02 88.96 53.29 81.08 49.68 81.08 49.27 82.26"/><path class="cls-11" d="M63.47,110.42l-.69-2L62,110.59Z"/><polygon class="cls-11" points="53.81 95.34 56.02 101.73 58.24 95.34 56.02 88.96 53.81 95.34"/><polygon class="cls-11" points="48.86 81.08 49.27 82.26 49.68 81.08 48.86 81.08"/><path class="cls-11" d="M71.74,95.34l-2.21,6.38,2.4,6.91q2-.6,4-1.34Z"/><polygon class="cls-11" points="62.77 82.26 67.31 95.34 69.53 88.96 66.79 81.08 63.18 81.08 62.77 82.26"/><polygon class="cls-11" points="67.31 95.34 69.53 101.73 71.74 95.34 69.53 88.96 67.31 95.34"/><polygon class="cls-11" points="62.36 81.08 62.77 82.26 63.18 81.08 62.36 81.08"/><path class="cls-11" d="M85.24,95.34,83,101.73l.65,1.88q1.87-1.07,3.64-2.28Z"/><path class="cls-11" d="M76.69,81.08l-.41,1.18,4.54,13.08L83,89l-2.62-7.55A18.28,18.28,0,0,0,77,81.08Z"/><polygon class="cls-11" points="80.81 95.34 83.03 101.73 85.24 95.34 83.03 88.96 80.81 95.34"/><polygon class="cls-11" points="75.87 81.08 76.28 82.26 76.69 81.08 75.87 81.08"/><path class="cls-11" d="M94.32,95.34l.25-.72a18.12,18.12,0,0,0-2.31-5.21Z"/><path class="cls-11" d="M94.4,95.58l.33-.31c0-.22-.1-.43-.16-.65l-.25.72Z"/><path class="cls-5" d="M42.52,55.61H69.06A6.39,6.39,0,0,1,75.45,62V82.06a18.2,18.2,0,0,1-18.2,18.2H54.33a18.2,18.2,0,0,1-18.2-18.2V62a6.39,6.39,0,0,1,6.39-6.39Z"/><g class="cls-12"><path class="cls-3" d="M69.62,85.52A19.38,19.38,0,0,1,64,92.45c-1.14.87,0,2.82,1.14,1.94a21.74,21.74,0,0,0,6.43-7.74c.64-1.29-1.3-2.44-1.94-1.14Z"/></g><path class="cls-5" d="M69.45,23.26H42.32a19.65,19.65,0,0,0-5.18,8.19H74.63A19.65,19.65,0,0,0,69.45,23.26Z"/><line class="cls-8" x1="47.29" y1="42.27" x2="42.64" y2="37.62"/><path class="cls-8" d="M47.55,42,42.9,37.36a.38.38,0,0,0-.53.53L47,42.54a.38.38,0,0,0,.53-.53Z"/><g class="cls-13"><path class="cls-5" d="M92.85,15.46A54.86,54.86,0,0,1,15.35,93,54.86,54.86,0,1,0,92.85,15.46Z"/></g><ellipse class="cls-5" cx="70.41" cy="27.29" rx="3.65" ry="4.04"/><ellipse class="cls-5" cx="73.17" cy="29.05" rx="3.65" ry="2.32"/><path class="cls-3" d="M61.53,73.86a1.36,1.36,0,0,1,1.33,1.66,7.12,7.12,0,0,1-13.85,0,1.36,1.36,0,0,1,1.33-1.66Z"/></svg>