<svg xmlns="http://www.w3.org/2000/svg" width="111" height="111" viewBox="0 0 111 111">
    <g fill="none" fill-rule="nonzero">
        <path fill="#FCD38B" d="M110.909 55.667c0-30.499-24.795-55.21-55.397-55.21C24.91.457.115 25.168.115 55.667c0 15.535 6.418 29.548 16.772 39.562 1.833-8.149 9.13-14.203 17.841-14.203h41.567c8.711 0 16.008 6.092 17.842 14.203 10.354-10.053 16.772-24.065 16.772-39.562z"/>
        <path fill="#FFF" d="M96.544 18.505c-9.819-8.872-22.847-14.24-37.135-14.24-30.602 0-55.397 24.711-55.397 55.21 0 14.24 5.425 27.224 14.288 37.01C7.106 86.395.076 71.774.076 55.553.076 25.054 24.871.343 55.474.343c16.313 0 30.946 7.006 41.07 18.162z" opacity=".3"/>
        <path fill="#7BC5FF" d="M76.295 81.026H34.728c-8.71 0-16.008 6.092-17.841 14.203 9.971 9.67 23.61 15.649 38.625 15.649 15.014 0 28.654-5.978 38.625-15.65-1.834-8.148-9.13-14.202-17.842-14.202z"/>
        <path fill="#3A6684" d="M36.524 98.275c2.75-3.351 7.87-3.351 10.62 0v-20.98c-5.883 0-10.62 4.721-10.62 10.585v10.395zM74.92 98.275c-2.75-3.351-7.87-3.351-10.621 0v-20.98c5.884 0 10.621 4.721 10.621 10.585v10.395z"/>
        <g fill="#FFF">
            <path d="M64.681 105.433V80.15c0-4.911-4.012-8.871-8.902-8.871-4.928 0-8.901 3.998-8.901 8.871v26.654c1.528.114 3.094.19 4.66.19 4.509 0 8.902-.533 13.143-1.561z"/>
            <path d="M64.681 105.433c-4.24 1.028-8.634 1.6-13.18 1.6-1.567 0-3.095-.077-4.662-.191v3.465c2.79.419 5.655.647 8.558.647a56.8 56.8 0 0 0 9.246-.761v-4.76h.038z"/>
        </g>
        <path fill="#855738" d="M56.658 89.708h-1.796c-4.431 0-8.023-3.58-8.023-7.996v-9.1c0-4.418 3.592-7.997 8.023-7.997h1.796c4.432 0 8.023 3.58 8.023 7.996v9.1c0 4.417-3.591 7.997-8.023 7.997z"/>
        <path fill="#333" d="M92.685 14.774c8.902 9.785 14.289 22.77 14.289 37.01 0 30.499-24.795 55.21-55.397 55.21-14.289 0-27.317-5.407-37.136-14.24a55.331 55.331 0 0 0 41.07 18.162c30.603 0 55.398-24.712 55.398-55.21 0-16.221-7.03-30.804-18.224-40.932z" opacity=".08"/>
        <path fill="#4D4D4D" d="M47.26 82.359a8.903 8.903 0 0 1-.42-2.704v-7.31c0-4.912 4.01-8.872 8.901-8.872 4.928 0 8.902 3.998 8.902 8.872v5.102" opacity=".21"/>
        <path fill="#B2744B" d="M61.892 76.914H49.437c-6.342 0-11.461-5.102-11.461-11.423V34.764a2.474 2.474 0 0 1 2.483-2.475h30.373a2.474 2.474 0 0 1 2.483 2.475V65.49c.039 6.32-5.08 11.423-11.423 11.423z"/>
        <ellipse cx="63.649" cy="53.459" fill="#333" rx="2.369" ry="2.361"/>
        <ellipse cx="47.412" cy="53.459" fill="#333" rx="2.369" ry="2.361"/>
        <path fill="#333" d="M61.357 49.194c1.72-.418 3.439-.8 5.196-1.218 1.452-.343.84-2.551-.611-2.208-1.72.418-3.439.8-5.196 1.218-1.414.343-.802 2.551.611 2.208zM50.316 46.986c-1.72-.419-3.438-.8-5.196-1.218-1.452-.343-2.063 1.865-.611 2.208 1.719.419 3.438.8 5.196 1.218 1.451.343 2.063-1.865.61-2.208zM73.736 43.673c-.765-8.986-8.33-16.03-17.575-16.03-9.054 0-16.504 6.816-17.536 15.573.382.077.726.19 1.108.343 2.598-6.51 8.94-11.156 16.39-11.156 7.603 0 14.021 4.797 16.543 11.46.344-.113.688-.19 1.07-.19z"/>
        <ellipse cx="71.825" cy="24.407" fill="#333" rx="10.812" ry="10.776"/>
        <ellipse cx="77.098" cy="35.906" fill="#333" rx="10.812" ry="10.776"/>
        <path fill="#333" d="M76.868 44.283c-1.451 0-2.75.685-3.59 1.713v5.75c.84 1.066 2.139 1.713 3.59 1.713a4.607 4.607 0 0 0 4.623-4.607c0-2.551-2.063-4.57-4.623-4.57zM34.537 44.283a4.607 4.607 0 1 0 0 9.214c1.376 0 2.598-.61 3.439-1.561v-6.092a4.572 4.572 0 0 0-3.439-1.561z"/>
        <ellipse cx="34.384" cy="35.906" fill="#333" rx="10.812" ry="10.776"/>
        <ellipse cx="41.796" cy="24.407" fill="#333" rx="10.812" ry="10.776"/>
        <ellipse cx="56.352" cy="19.8" fill="#333" rx="10.812" ry="10.776"/>
        <path fill="#855738" d="M37.976 50.451c-2.713 0-4.929 2.208-4.929 4.912 0 2.703 2.216 4.912 4.929 4.912M73.277 50.451c2.713 0 4.929 2.208 4.929 4.912 0 2.703-2.216 4.912-4.929 4.912"/>
        <g fill="#855738" transform="translate(66.477 58.257)">
            <ellipse cx="3.362" cy=".99" rx="1" ry="1"/>
            <ellipse cx=".726" cy="1.371" rx="1" ry="1"/>
            <ellipse cx="2.407" cy="3.503" rx="1" ry="1"/>
        </g>
        <g fill="#855738" transform="translate(40.115 58.257)">
            <ellipse cx="1.032" cy=".99" rx="1" ry="1"/>
            <ellipse cx="3.668" cy="1.371" rx="1" ry="1"/>
            <ellipse cx="1.987" cy="3.503" rx="1" ry="1"/>
        </g>
        <path fill="#FFF" d="M75.76 42.683c6.763.762 11.195-6.701 7.45-12.298-.802-1.219-2.789-.076-1.986 1.142 2.865 4.265-.42 9.443-5.464 8.872-1.451-.19-1.451 2.094 0 2.284z" opacity=".35"/>
        <path fill="#FFF" d="M61.319 63.32a1.442 1.442 0 0 1 1.796 1.41c0 3.464-2.407 6.587-5.922 7.424-3.515.838-7.068-.913-8.596-3.998-.42-.837.076-1.827.993-2.056l11.729-2.78z"/>
    </g>
</svg>
