<svg xmlns="http://www.w3.org/2000/svg" width="112" height="112" viewBox="0 0 112 112">
    <g fill="none" fill-rule="nonzero">
        <path fill="#AAF7F5" d="M111.061 55.665C111.061 25.11 86.21.383 55.588.383 24.928.383.115 25.15.115 55.665c0 15.526 6.425 29.596 16.812 39.64 1.846-8.127 9.155-14.223 17.888-14.223h41.624c8.732 0 16.041 6.096 17.888 14.223 10.271-10.044 16.734-24.114 16.734-39.64z"/>
        <path fill="#FFF" d="M96.674 18.44c-9.849-8.894-22.89-14.3-37.2-14.3C28.814 4.14 4 28.906 4 59.422 4 73.683 9.425 86.718 18.35 96.494 7.117 86.373.077 71.766.077 55.474.077 24.918 24.928.191 55.55.191 71.822.23 86.518 7.284 96.674 18.44z" opacity=".2"/>
        <path fill="#938EF1" d="M76.4 81.044H34.738c-8.733 0-16.042 6.095-17.888 14.223 10.002 9.699 23.658 15.68 38.7 15.68 15.041 0 28.698-5.981 38.7-15.68-1.847-8.128-9.117-14.223-17.85-14.223z"/>
        <path fill="#FFF" d="M69.36 83.344c0 7.859-6.732 14.146-14.772 13.456-7.04-.613-12.349-6.747-12.349-13.801 0-2.032 1.655-3.642 3.655-3.642h19.773a3.647 3.647 0 0 1 3.655 3.642v.345h.038z"/>
        <g fill="#FFF">
            <path d="M79.978 103.47h-1.039a1.196 1.196 0 0 1-1.192-1.188V98.91h1.038c.654 0 1.193.536 1.193 1.188v3.374zM80.44 103.47h1.038c.654 0 1.193-.536 1.193-1.188V98.91h-1.039c-.654 0-1.193.536-1.193 1.188v3.374z"/>
        </g>
        <g fill="#FFF">
            <path d="M75.092 98.602h-1.038a1.196 1.196 0 0 1-1.193-1.188v-3.336H73.9c.654 0 1.192.537 1.192 1.189v3.335zM75.554 98.602h1.039c.653 0 1.192-.537 1.192-1.188v-3.336h-1.039c-.654 0-1.192.537-1.192 1.189v3.335z"/>
        </g>
        <g fill="#FFF">
            <path d="M70.245 103.47h-1.039a1.196 1.196 0 0 1-1.192-1.188V98.91h1.039c.653 0 1.192.536 1.192 1.188v3.374zM70.707 103.47h1.038c.654 0 1.193-.536 1.193-1.188V98.91h-1.039c-.654 0-1.192.536-1.192 1.188v3.374z"/>
        </g>
        <path fill="#333" d="M92.788 14.76c8.925 9.814 14.35 22.81 14.35 37.071 0 30.555-24.852 55.282-55.474 55.282-14.31 0-27.39-5.406-37.2-14.3 10.156 11.195 24.813 18.21 41.163 18.21 30.66 0 55.473-24.765 55.473-55.281-.039-16.255-7.079-30.861-18.312-40.982z" opacity=".2"/>
        <path fill="#F4997F" d="M55.82 89.785c-4.925 0-8.926-3.987-8.926-8.895v-7.322c0-4.907 4.001-8.894 8.925-8.894s8.925 3.987 8.925 8.894v7.322c0 4.908-4 8.895-8.925 8.895z"/>
        <path fill="#721D00" d="M47.279 83.076a8.903 8.903 0 0 1-.423-2.684V73.07c0-4.907 4-8.894 8.925-8.894 4.924 0 8.924 3.987 8.924 8.894v5.099" opacity=".15"/>
        <path fill="#FECBB8" d="M57.935 76.942h-4.078c-9.887 0-17.888-7.974-17.888-17.827V37.608c0-6.977 5.655-12.612 12.656-12.612h14.503c7.002 0 12.657 5.635 12.657 12.612v21.507c.038 9.853-7.964 17.827-17.85 17.827z"/>
        <path fill="#F4997F" d="M75.823 45.467c3.078 0 5.578 2.492 5.578 5.56 0 3.066-2.5 5.558-5.578 5.558M36.007 45.467c-3.077 0-5.578 2.492-5.578 5.56 0 3.066 2.5 5.558 5.578 5.558"/>
        <ellipse cx="65.052" cy="48.879" fill="#333" rx="2.654" ry="2.645"/>
        <ellipse cx="46.356" cy="48.879" fill="#333" rx="2.654" ry="2.645"/>
        <path fill="#FEFEFE" d="M36.354 37.033a21.221 21.221 0 0 0-.231 3.144v5.405c0-10.964 8.925-19.858 19.927-19.858 11.002 0 19.927 8.894 19.927 19.858v-5.405c0-10.964-8.925-19.859-19.927-19.859-9.925 0-18.158 7.246-19.696 16.715"/>
        <ellipse cx="75.285" cy="42.017" fill="#FEFEFE" rx="3.732" ry="3.719"/>
        <ellipse cx="72.938" cy="35.385" fill="#FEFEFE" rx="5.193" ry="5.175"/>
        <ellipse cx="71.438" cy="31.359" fill="#FEFEFE" rx="4.386" ry="4.37"/>
        <ellipse cx="35.93" cy="42.017" fill="#FEFEFE" rx="3.732" ry="3.719"/>
        <ellipse cx="38.277" cy="35.385" fill="#FEFEFE" rx="5.193" ry="5.175"/>
        <ellipse cx="39.777" cy="31.359" fill="#FEFEFE" rx="4.386" ry="4.37"/>
        <path fill="#F4997F" d="M59.127 69.16h-5.924c-1.577 0-2.885-1.304-2.885-2.876v-1.533h11.695v1.533c-.039 1.61-1.308 2.875-2.886 2.875z"/>
        <path fill="#FEFEFE" d="M66.283 65.786c0-2.952-2.424-5.367-5.386-5.367h-9.502c-2.962 0-5.386 2.415-5.386 5.367h20.274zM44.778 43.397h3.924c1.5 0 1.5-2.3 0-2.3h-3.924c-1.5 0-1.5 2.3 0 2.3zM63.474 43.397h3.924c1.5 0 1.5-2.3 0-2.3h-3.924c-1.5 0-1.5 2.3 0 2.3z"/>
    </g>
</svg>
