<svg xmlns="http://www.w3.org/2000/svg" width="109" height="119" viewBox="0 0 109 119">
    <g fill="none" fill-rule="evenodd">
        <g fill-rule="nonzero">
            <path fill="#00bfd6" d="M90.77 87.807c8.304 0 15.035-6.731 15.035-15.034 0-8.304-6.731-15.035-15.034-15.035v30.069z"/>
            <g fill="#434A54">
                <path d="M94.364 13.832C85.444 4.912 73.63 0 61.1 0 48.571 0 36.758 4.912 27.84 13.832a47.536 47.536 0 0 0-8.387 11.31c-1.403 3.833 3.126 4.769 4.225 2.22C30.78 13.942 44.89 4.78 61.1 4.78c23.332 0 42.314 18.982 42.314 42.313v13.708c-3.178-3.355-7.67-5.454-12.644-5.454a2.39 2.39 0 0 0-2.39 2.39v30.069a2.39 2.39 0 0 0 2.39 2.39c9.518 0 17.274-7.672 17.418-17.157.002-.03.004-8.678.007-25.946 0-12.53-4.913-24.343-13.832-33.262zM93.16 85.19V60.355c5.833 1.12 10.254 6.263 10.254 12.418 0 6.154-4.42 11.296-10.254 12.417zM103.838 87.566c-.606 0-1.201.247-1.63.676a2.324 2.324 0 0 0-.675 1.632c0 .604.246 1.199.675 1.63a2.32 2.32 0 0 0 1.63.673 2.32 2.32 0 0 0 1.63-.673 2.327 2.327 0 0 0 .675-1.63c0-.609-.246-1.204-.675-1.632a2.323 2.323 0 0 0-1.63-.676zM102.53 95.08a2.39 2.39 0 0 0-3.267.874c-4.639 8.031-11.93 13.554-21.176 16.084l-1.203-5.66a2.39 2.39 0 0 0-2.836-1.842l-8.068 1.715a2.39 2.39 0 0 0-1.841 2.835l1.715 8.07a2.39 2.39 0 0 0 2.835 1.84l8.069-1.715c11.713-2.49 20.927-9.037 26.645-18.935a2.39 2.39 0 0 0-.874-3.266zm-33.218 15.35l3.392-.72.721 3.392-3.392.721-.721-3.392z"/>
            </g>
        </g>
        <path fill="#55C6D9" fill-rule="nonzero" d="M8.852 36.64a3.689 3.689 0 0 0-3.688 3.688v42.554a3.689 3.689 0 0 0 3.688 3.689h54.575l6.26 7.712a.738.738 0 0 0 1.31-.465v-53.49a3.689 3.689 0 0 0-3.688-3.689H8.852zm0 54.357a8.115 8.115 0 0 1-8.114-8.115V40.328a8.115 8.115 0 0 1 8.114-8.115H67.31a8.115 8.115 0 0 1 8.114 8.115v53.49a5.164 5.164 0 0 1-9.173 3.254l-4.93-6.075H8.851z"/>
        <path fill="#434A54" d="M10 67.062v-3.408l7.868-8.139c1.482-1.555 2.634-3.077 2.634-4.631 0-1.853-1.251-3.011-2.996-3.011-1.777 0-3.094 1.058-3.851 2.713l-3.819-2.25c1.481-3.309 4.477-4.897 7.604-4.897 3.95 0 7.605 2.647 7.605 7.28 0 2.811-1.613 5.226-3.786 7.41l-4.51 4.533h8.658v4.4H10zm35.81-8.172v4.235h-2.47v3.937h-4.575v-3.937H27.869V58.89l7.936-15.45h4.872l-7.903 15.45h5.991v-5.492h4.576v5.492h2.469zm5.865.413h14.88v3.87l-7.803 19.29h-4.806l7.572-18.793h-9.843v-4.367z"/>
        <path fill="#00bfd6" d="M56.717 44.26L36.162 82.461h1.992L58.695 44.26z"/>
    </g>
</svg>
