<svg id="Layer_1" data-name="Layer 1" xmlns="http://www.w3.org/2000/svg" viewBox="0 0 274 203.64"><defs><style>.cls-1{opacity:0.4;}.cls-2{fill:#00bfd6;}.cls-3,.cls-4{fill:#fff;}.cls-4,.cls-5,.cls-6{stroke:#000;}.cls-4,.cls-5,.cls-6,.cls-7{stroke-linecap:round;stroke-linejoin:round;}.cls-5{fill:#f2f2f2;}.cls-6,.cls-7{fill:none;}.cls-7{stroke:#ff637d;}.cls-8{fill:#77787b;}.cls-9{fill:#ef5662;}</style></defs><title>Artboard 5 copy 6</title><g class="cls-1"><path class="cls-2" d="M204.6,166.67c-47.76,45.59-85.4,43.38-133.17-2.21-45.59-43.52-48-84-2.42-127.55,47.76-45.59,73.71-25,133.47,3.11C264.36,69.1,250.19,123.15,204.6,166.67Z"/></g><path class="cls-3" d="M97.49,47.6h91.42a0,0,0,0,1,0,0V166.33a0,0,0,0,1,0,0H107.05a9.56,9.56,0,0,1-9.56-9.56V47.6A0,0,0,0,1,97.49,47.6Z"/><path class="cls-4" d="M87.49,40.38h92.19a15,15,0,0,1,15,15V166.33"/><path class="cls-5" d="M97.49,156.49V65l-.17-14.78a9.83,9.83,0,1,0-19.67,0H97.32"/><path class="cls-5" d="M107.32,166.33a9.83,9.83,0,0,0,9.83-9.83h91.36a9.83,9.83,0,0,1-9.83,9.83H107.32"/><path class="cls-6" d="M97.49,156.49a9.83,9.83,0,0,0,9.83,9.83"/><rect class="cls-4" x="166.41" y="84.6" width="13" height="13"/><rect class="cls-4" x="166.41" y="106.48" width="13" height="13"/><rect class="cls-4" x="166.41" y="128.35" width="13" height="13"/><line class="cls-6" x1="159.66" y1="91.1" x2="119.16" y2="91.1"/><line class="cls-6" x1="159.66" y1="113.06" x2="119.16" y2="113.06"/><line class="cls-6" x1="159.66" y1="135.02" x2="119.16" y2="135.02"/><line class="cls-7" x1="169.06" y1="87.26" x2="176.75" y2="94.94"/><line class="cls-7" x1="176.75" y1="87.26" x2="169.06" y2="94.94"/><line class="cls-7" x1="169.06" y1="109.13" x2="176.75" y2="116.82"/><line class="cls-7" x1="176.75" y1="109.13" x2="169.06" y2="116.82"/><line class="cls-7" x1="169.06" y1="131.01" x2="176.75" y2="138.7"/><line class="cls-7" x1="176.75" y1="131.01" x2="169.06" y2="138.7"/><g id="_Group_" data-name="&lt;Group&gt;"><rect id="_Path_" data-name="&lt;Path&gt;" class="cls-8" x="139.35" y="66.08" width="27.11" height="2.24"/></g><rect id="_Path_2" data-name="&lt;Path&gt;" class="cls-8" x="145.02" y="70" width="2.24" height="2.23"/><rect id="_Path_3" data-name="&lt;Path&gt;" class="cls-8" x="141.94" y="70" width="2.24" height="2.23"/><rect id="_Path_4" data-name="&lt;Path&gt;" class="cls-8" x="155.13" y="70" width="2.24" height="2.23"/><rect id="_Path_5" data-name="&lt;Path&gt;" class="cls-8" x="162.18" y="70" width="2.24" height="2.23"/><rect id="_Path_6" data-name="&lt;Path&gt;" class="cls-8" x="165.26" y="70" width="2.24" height="2.23"/><path id="_Path_7" data-name="&lt;Path&gt;" class="cls-8" d="M176.54,58.18h-5.12v2.24h4.49a1.14,1.14,0,0,1,1.18,1v3.44a1.26,1.26,0,0,1-1.18,1.18h-4.49v2.23h5.12a2.74,2.74,0,0,0,2.78-2.78V61A2.79,2.79,0,0,0,176.54,58.18Z"/><path id="_Path_8" data-name="&lt;Path&gt;" class="cls-8" d="M167.5,60.42v4.49a1.26,1.26,0,0,1-1.18,1.18h-4.49v2.23H167a2.74,2.74,0,0,0,2.78-2.78V60.42Z"/><path id="_Path_9" data-name="&lt;Path&gt;" class="cls-8" d="M147.25,60.42v4.49a1.26,1.26,0,0,1-1.18,1.18h-4.49v2.23h5.12a2.74,2.74,0,0,0,2.78-2.78V60.42Z"/><path id="_Path_10" data-name="&lt;Path&gt;" class="cls-8" d="M149.49,60.42v4.49a1.26,1.26,0,0,0,1.18,1.18h4.49v2.23H150a2.74,2.74,0,0,1-2.78-2.78V60.42Z"/><path id="_Path_11" data-name="&lt;Path&gt;" class="cls-8" d="M156.82,58.18h-3.43l-1.69,2.23h4.49a1.26,1.26,0,0,1,1.18,1.18v5h2.24V61A2.74,2.74,0,0,0,156.82,58.18Z"/><path id="_Path_12" data-name="&lt;Path&gt;" class="cls-9" d="M123.55,56.49v8.42a1.26,1.26,0,0,1-1.18,1.18h-6.72v2.23H123a2.74,2.74,0,0,0,2.78-2.78v-9Z"/><g id="_Group_2" data-name="&lt;Group&gt;"><rect id="_Path_13" data-name="&lt;Path&gt;" class="cls-9" x="115.66" y="56.49" width="2.24" height="7.9"/></g><path id="_Path_14" data-name="&lt;Path&gt;" class="cls-9" d="M133.46,61l3.74-4.52h-2.9L130.56,61l4.2,5.07h-3.94a1.26,1.26,0,0,1-1.1-1.17V56.49h-2.24v9a2.74,2.74,0,0,0,2.78,2.78h7.4V66.08Z"/></svg>