<svg xmlns="http://www.w3.org/2000/svg" width="61" height="50" viewBox="0 0 61 50">
    <g fill="none" fill-rule="evenodd">
        <path fill="#FFC600" d="M0 20.24C12.1 27.09 12.93 47.107 29 50c-7.477-8.267-11.042-16.488-16.351-24.755C7.885 19.854 6.42 19.619 0 20.24"/>
        <path d="M0 20.24C12.1 27.09 12.93 47.107 29 50c-7.477-8.267-11.042-16.488-16.351-24.755C7.885 19.854 6.42 19.62 0 20.24z"/>
        <path fill="#FFC600" d="M37.375 43.66L41 49.734c-8.963 1.566-12.831-4.05-16.536-9.9-3.662-5.473-7.076-11.065-10.986-16.424C8.254 17.72 5.217 19.294 0 20.373c4.794-6.833 12.27-4.636 16.776-.35 7.259 6.261 10.55 13.779 15.503 21.386 1.699 1.877 3.209 2.376 5.096 2.25"/>
        <path d="M37.375 43.66L41 49.734c-8.963 1.566-12.831-4.05-16.536-9.9-3.662-5.473-7.076-11.065-10.986-16.424C8.254 17.72 5.217 19.294 0 20.373c4.794-6.833 12.27-4.636 16.776-.35 7.259 6.261 10.55 13.779 15.503 21.386 1.699 1.877 3.209 2.376 5.096 2.25z"/>
        <path fill="#FFC600" d="M27 21.67L30.437 27 58.423 8.407C60.998 5.984 60.884 3.755 61 0L27 21.67"/>
        <path d="M27 21.671L30.437 27c9.328-6.197 18.656-12.395 27.986-18.592C60.998 5.984 60.884 3.755 61 0L27 21.671z"/>
        <path fill="#FFC600" d="M32 29.314L35.135 34l20.502-13.258c1.28-2.158 1.458-4.434 1.327-6.742L32 29.314"/>
        <path d="M32 29.314L35.135 34l20.502-13.257c1.28-2.159 1.458-4.434 1.327-6.743L32 29.314z"/>
        <path fill="#FFC600" d="M36 36.447L38.87 41l11.842-8.455c1.366-2.345 1.646-4.86.838-7.545L36 36.447"/>
        <path d="M36 36.447L38.87 41l11.842-8.455c1.366-2.346 1.646-4.86.838-7.545L36 36.447z"/>
        <path fill="#FFC600" d="M41 43.573L45.358 50 55 49.999 48.132 39 41 43.573"/>
        <path d="M41 43.573c1.453 2.141 2.906 4.284 4.358 6.427L55 49.999 48.132 39c-2.378 1.523-4.754 3.048-7.132 4.573z"/>
    </g>
</svg>
