<svg id="Layer_1" data-name="Layer 1" xmlns="http://www.w3.org/2000/svg" viewBox="0 0 274 203.64"><defs><style>.cls-1{opacity:0.4;}.cls-2{fill:#00bfd6;}.cls-3,.cls-6{fill:#fff;}.cls-10,.cls-11,.cls-3,.cls-4,.cls-5,.cls-6,.cls-7,.cls-8,.cls-9{stroke:#000;}.cls-11,.cls-3,.cls-5,.cls-7,.cls-8,.cls-9{stroke-linecap:round;stroke-linejoin:round;}.cls-4,.cls-5{fill:#f2f2f2;}.cls-10,.cls-4,.cls-6{stroke-miterlimit:10;}.cls-7{fill:none;}.cls-10,.cls-8{fill:#e6e6e6;}.cls-9{fill:#fb3449;}.cls-11{fill:#fbb03b;}</style></defs><title>23 </title><g class="cls-1"><path class="cls-2" d="M201.11,165c-47.76,45.59-85.4,43.38-133.17-2.21-45.59-43.52-48-84-2.42-127.55,47.76-45.59,73.71-25,133.47,3.11C260.88,67.43,246.71,121.48,201.11,165Z"/></g><polygon class="cls-3" points="210.35 62.32 160.1 31.49 109.41 61.58 108.57 175.72 209.51 176.46 210.35 62.32"/><path class="cls-4" d="M157.3,119.88h4.18A18.54,18.54,0,0,1,180,138.42v37.47a0,0,0,0,1,0,0H138.76a0,0,0,0,1,0,0V138.42a18.54,18.54,0,0,1,18.54-18.54Z" transform="translate(1.08 -1.16) rotate(0.42)"/><polygon class="cls-5" points="245.19 62.35 210.35 62.1 160.01 31.49 198.82 31.77 245.19 62.35"/><rect class="cls-5" x="209.93" y="62.22" width="34.84" height="114.36" transform="translate(0.88 -1.66) rotate(0.42)"/><circle class="cls-4" cx="160.01" cy="78.57" r="23.62"/><path d="M145.26,74.6l.76,0a7.77,7.77,0,0,1,1.79.08,4,4,0,0,1,1.47.63,12.77,12.77,0,0,1,2,1.8,1.21,1.21,0,0,1,.14.19c.9,1.42,1.81,2.84,2.7,4.26a51.61,51.61,0,0,0,3.65,5.31c.58.72,1.21,1.4,1.82,2.1l.19.23-.49-.1a9.87,9.87,0,0,1-5-2.75,18.4,18.4,0,0,1-2.45-3.11c-.73-1.13-1.44-2.28-2.16-3.42a19.76,19.76,0,0,0-2.53-3.28,10.23,10.23,0,0,0-2.23-1.73l-.14-.08,0-.06.12-.19a4.83,4.83,0,0,1,2.64-1.88,4.93,4.93,0,0,1,3,.2,7.63,7.63,0,0,1,2.35,1.39,23.53,23.53,0,0,1,4.76,5.6c1,1.53,1.88,3.09,2.81,4.63.17.28.33.56.52.83a2.8,2.8,0,0,0,2.31,1.27.51.51,0,0,1,.52.29c.49.86,1,1.72,1.51,2.57,0,.07.07.14.12.24l-.76.1A6.09,6.09,0,0,1,161,89a7.45,7.45,0,0,1-1.88-1.57,23.64,23.64,0,0,1-2-2.79c-1.82-2.76-3.53-5.59-5.48-8.26a6,6,0,0,0-2.26-1.87,3.84,3.84,0,0,0-2.35-.3c-.55.09-1.09.22-1.63.33l-.12,0Z"/><path d="M175.27,64.72c0,.3,0,.56,0,.81a8.46,8.46,0,0,1-.16,1.65,3.71,3.71,0,0,1-1.09,1.9,1.75,1.75,0,0,1-.23.18l-13.71,9.44-.22.14L158.12,76Z"/><path d="M162,82.12l-1.61-2.54,12.84-8.31c0,.38,0,.71,0,1a5.83,5.83,0,0,1-.55,2.38,1,1,0,0,1-.37.43l-8,5.45L162.27,82Z"/><path d="M164.19,85.27l-1.48-2.16,8.07-5.47c.07.31.15.58.18.86a3.92,3.92,0,0,1-.55,2.61.73.73,0,0,1-.21.23l-5.91,3.89Z"/><path d="M171.39,89.42h-4.28a.39.39,0,0,1-.38-.21c-.6-1-1.2-1.9-1.81-2.85,0-.05-.06-.11-.1-.18l3.34-2.29Z"/><circle class="cls-6" cx="60.41" cy="176.29" r="10.89"/><path class="cls-7" d="M66.05,181.33a6.77,6.77,0,0,1-4.89,2.08"/><circle class="cls-8" cx="60.41" cy="176.29" r="3.4"/><path class="cls-9" d="M36.93,155.63H34.7a1.51,1.51,0,0,0-1.51,1.51v1a1.23,1.23,0,0,0,1.23,1.23h.81"/><path class="cls-3" d="M97.89,143H58.76a25,25,0,0,0-25,25v6.75H85.88l18.66-.06A16.84,16.84,0,0,1,98.07,143"/><path class="cls-3" d="M122,161.84l-6.9,8.09a13.13,13.13,0,0,1-10,4.61H33.8a2.74,2.74,0,0,0,2.61,1.91h69.28a13.13,13.13,0,0,0,10-4.61l6.36-7.46a3.12,3.12,0,0,1,2.37-1.1h6.49l3.53-1.44Z"/><path class="cls-3" d="M75,132.8H95.59a4.87,4.87,0,0,1,4.87,4.87v.41A4.87,4.87,0,0,1,95.59,143H75a0,0,0,0,1,0,0V132.8A0,0,0,0,1,75,132.8Z"/><path class="cls-3" d="M56.71,143H75V132.8l-15.79-3.59a2.07,2.07,0,0,0-2.53,2Z"/><circle class="cls-10" cx="83.18" cy="149.38" r="1.91"/><line class="cls-7" x1="58.53" y1="142.96" x2="36.45" y2="142.96"/><path class="cls-3" d="M122,161.84l1.23-1.4a21.73,21.73,0,0,0,4-21.14l-4.06-11.85v-.21l16.67,34.5"/><path class="cls-11" d="M131.79,120.73a2.58,2.58,0,0,1,1.22,4.85"/><path class="cls-3" d="M132.5,145.67a2,2,0,0,1,1.63,3.75"/><line class="cls-7" x1="121.99" y1="126.21" x2="113.77" y2="126.21"/><path class="cls-3" d="M127.39,129.72l6.55-.11-3.5-13-5.73,3.18a5.31,5.31,0,0,0-2.55,6h0A5.31,5.31,0,0,0,127.39,129.72Z"/><circle class="cls-6" cx="138.31" cy="176.29" r="10.89"/><circle class="cls-8" cx="138.31" cy="176.29" r="3.4"/><rect class="cls-8" x="41.88" y="112.37" width="14.84" height="30.58"/><path class="cls-3" d="M28.12,112.37h23a0,0,0,0,1,0,0V143a0,0,0,0,1,0,0H27.64a4.52,4.52,0,0,1-4.52-4.52V117.37A5,5,0,0,1,28.12,112.37Z"/><line class="cls-3" x1="132.82" y1="163.12" x2="134.79" y2="161.75"/><line class="cls-3" x1="136.1" y1="161.75" x2="122.08" y2="161.75"/><path class="cls-6" d="M151.23,176.62a2.08,2.08,0,0,0,2-2.44,15.16,15.16,0,0,0-29.92,0,2.08,2.08,0,0,0,2,2.44Z"/><path class="cls-3" d="M147.24,168.36a15.19,15.19,0,0,0-4.63-3.27"/><path class="cls-6" d="M69.68,153.13H54.24c-6.63,0-12,5.37-12,11.34v8.59c0,1.06.33,1.4.74,1.4H69.68A10.67,10.67,0,0,0,80.35,163.8h0A10.67,10.67,0,0,0,69.68,153.13Z"/><line class="cls-7" x1="55.06" y1="163.42" x2="65.4" y2="163.42"/><line class="cls-7" x1="55.06" y1="165.31" x2="65.4" y2="165.31"/><line class="cls-7" x1="55.06" y1="167.2" x2="65.4" y2="167.2"/><path class="cls-7" d="M53.1,153.13H68.69a0,0,0,0,1,0,0v0a5.48,5.48,0,0,1-5.48,5.48H58.58a5.48,5.48,0,0,1-5.48-5.48v0A0,0,0,0,1,53.1,153.13Z"/><path d="M27.45,124.65l.5,0a5.1,5.1,0,0,1,1.17.05,2.64,2.64,0,0,1,1,.41,8.37,8.37,0,0,1,1.29,1.18.79.79,0,0,1,.09.13c.59.93,1.19,1.86,1.77,2.8a33.85,33.85,0,0,0,2.39,3.48c.38.47.79.92,1.19,1.38l.13.15-.32-.06a6.47,6.47,0,0,1-3.26-1.81,12.07,12.07,0,0,1-1.61-2c-.48-.74-.94-1.5-1.42-2.24a13,13,0,0,0-1.66-2.15,6.71,6.71,0,0,0-1.46-1.13l-.09-.05,0,0,.08-.12a3.17,3.17,0,0,1,1.73-1.23,3.23,3.23,0,0,1,2,.13,5,5,0,0,1,1.54.91A15.43,15.43,0,0,1,35.54,128c.63,1,1.23,2,1.85,3,.11.18.22.37.34.54a1.84,1.84,0,0,0,1.52.84.33.33,0,0,1,.34.19c.32.57.66,1.13,1,1.69l.08.16-.5.06a4,4,0,0,1-2.41-.47,4.89,4.89,0,0,1-1.23-1,15.51,15.51,0,0,1-1.31-1.83c-1.19-1.81-2.32-3.66-3.59-5.42a3.93,3.93,0,0,0-1.48-1.23,2.52,2.52,0,0,0-1.54-.19c-.36.06-.71.14-1.07.22l-.08,0Z"/><path d="M47.13,118.17c0,.2,0,.36,0,.53a5.55,5.55,0,0,1-.11,1.08,2.43,2.43,0,0,1-.71,1.24l-.15.11-9,6.19-.14.09-1.14-1.83Z"/><path d="M38.45,129.58l-1.06-1.67,8.42-5.45c0,.25,0,.46,0,.67a3.83,3.83,0,0,1-.36,1.56.68.68,0,0,1-.24.28L40,128.55l-1.36.93Z"/><path d="M39.86,131.65l-1-1.42,5.3-3.59c0,.2.1.38.12.56a2.57,2.57,0,0,1-.36,1.71.48.48,0,0,1-.14.15l-3.88,2.55Z"/><path d="M44.58,134.38h-2.8a.26.26,0,0,1-.25-.14l-1.19-1.87-.06-.12,2.19-1.5Z"/></svg>