<svg xmlns="http://www.w3.org/2000/svg" width="158" height="106" viewBox="0 0 158 106">
    <g fill="none" fill-rule="evenodd">
        <path fill="#00bfd6" d="M86.751 13l47.734 14.917v23.36l-15.793 5.141V34.216L69 18.375z"/>
        <path fill="#434A54" fill-rule="nonzero" d="M89.024 12.944l48.042 15.35a2.5 2.5 0 0 1 1.739 2.38v20.271a2.5 2.5 0 0 1-1.668 2.358l-4.695 1.658a2.5 2.5 0 0 1-1.665-4.715l3.028-1.07V32.502l-53.5-17.094c-2.293-.733-2.327-3.967-.048-4.747l17.6-6.025a2.5 2.5 0 0 1 1.562-.02l56 17.671a2.5 2.5 0 0 1 1.748 2.385v60.964a2.5 2.5 0 0 1-1.746 2.383l-56 17.715a2.5 2.5 0 0 1-1.517-.003L42.603 88.016a2.5 2.5 0 0 1-1.738-2.381v-8.252a2.5 2.5 0 1 1 5 0v6.427l52.807 16.916 53.495-16.922v-57.3L98.699 9.631l-9.675 3.312z"/>
        <path fill="#434A54" fill-rule="nonzero" d="M153.913 22.616a2.5 2.5 0 1 1 1.508 4.768l-56 17.714a2.5 2.5 0 0 1-1.512 0L55.173 31.505a2.5 2.5 0 0 1 1.516-4.764l41.98 13.35 55.244-17.476z"/>
        <path fill="#434A54" fill-rule="nonzero" d="M123.62 52.464a2.5 2.5 0 0 1 1.567 4.748l-6.165 2.036a2.5 2.5 0 0 1-3.284-2.374V38.429L62.24 21.335c-2.306-.736-2.323-3.993-.025-4.754l21.001-6.954a2.5 2.5 0 1 1 1.572 4.746L71.08 18.912 119 34.222a2.5 2.5 0 0 1 1.74 2.382v16.812l2.88-.952z"/>
        <path fill="#434A54" fill-rule="nonzero" d="M45.851 26.94v12.047a2.5 2.5 0 1 1-5 0V25.105a2.5 2.5 0 0 1 1.751-2.385l19.863-6.237a2.5 2.5 0 1 1 1.498 4.77L45.851 26.94z"/>
        <path fill="#55C6D9" fill-rule="nonzero" d="M66.965 44.5a2.5 2.5 0 1 1 0 5H22a2.5 2.5 0 1 1 0-5h44.965zM41.965 55.5a2.5 2.5 0 1 1 0 5H3a2.5 2.5 0 1 1 0-5h38.965z"/>
        <circle cx="14.5" cy="47" r="2.5" fill="#55C6D9"/>
        <circle cx="21.5" cy="69" r="2.5" fill="#55C6D9"/>
        <path fill="#55C6D9" fill-rule="nonzero" d="M53.965 66.5a2.5 2.5 0 1 1 0 5H29a2.5 2.5 0 1 1 0-5h24.965zM78.965.5a2.5 2.5 0 1 1 0 5H40a2.5 2.5 0 1 1 0-5h38.965zM39.965 12.5a2.5 2.5 0 1 1 0 5H21a2.5 2.5 0 1 1 0-5h18.965z"/>
        <path fill="#434A54" fill-rule="nonzero" d="M101.5 103.125a2.5 2.5 0 1 1-5 0V90.76a2.5 2.5 0 1 1 5 0v12.365zM101.5 80.714a2.5 2.5 0 1 1-5 0V45a2.5 2.5 0 1 1 5 0v35.714z"/>
    </g>
</svg>