<svg xmlns="http://www.w3.org/2000/svg" width="101" height="120" viewBox="0 0 101 120">
    <g fill="none" fill-rule="evenodd" transform="translate(1 1)">
        <path fill="#434A54" fill-rule="nonzero" stroke="#434A54" d="M92.444 52.814c1.786-2.2 2.431-3.223 2.431-3.813 0-.591-.645-1.614-2.431-3.814l-.225-.277c-2.131-2.632-3.122-4.174-3.687-6.267-.424-1.572-.486-3.202-.29-5.156.073-.734.158-1.35.343-2.553.425-2.778.47-3.965.22-4.394-.256-.437-1.317-1.009-3.646-1.908l-.297-.115c-3.584-1.38-5.158-2.173-6.795-3.794-1.638-1.621-2.438-3.179-3.833-6.727l-.116-.295c-.908-2.305-1.486-3.355-1.928-3.608-.398-.228-1.582-.206-3.904.138l-.376.056c-1.369.205-1.988.29-2.727.362-1.979.194-3.628.134-5.218-.287-2.197-.58-3.654-1.52-6.612-3.872-2.223-1.768-3.256-2.407-3.853-2.407-.478 0-1.424.516-2.918 1.67-.22.17-.44.343-.765.602-3.127 2.487-4.584 3.426-6.78 4.007-2.264.598-4.047.51-7.874-.065-2.72-.409-3.919-.453-4.352-.205-.466.267-1.031 1.325-2.044 3.903-1.393 3.547-2.195 5.105-3.832 6.726-1.507 1.492-3.195 2.392-6.082 3.518-.2.078-.358.14-.714.276l-.298.115c-2.329.9-3.389 1.472-3.644 1.908-.23.395-.209 1.568.139 3.868l.056.372c.207 1.353.293 1.966.366 2.697.196 1.96.135 3.592-.29 5.166-.587 2.175-1.536 3.617-3.912 6.544-.396.49-.57.706-.74.922C4.646 47.588 4.124 48.526 4.124 49c0 .473.52 1.41 1.684 2.885.173.218.348.437.611.761 2.512 3.094 3.46 4.537 4.048 6.712.425 1.572.486 3.203.29 5.159-.073.733-.159 1.348-.343 2.55-.425 2.777-.47 3.964-.22 4.393.256.437 1.317 1.01 3.646 1.909l.297.114c3.584 1.38 5.158 2.173 6.796 3.794 1.637 1.621 2.438 3.179 3.832 6.727l.116.295c.908 2.306 1.486 3.355 1.928 3.608.398.228 1.583.206 3.906-.138l.376-.056c1.372-.206 1.993-.29 2.734-.363.699-.068 1.346-.104 1.973-.104 1.15 0 2.215.121 3.237.392 2.197.58 3.653 1.52 6.611 3.872 2.223 1.768 3.256 2.407 3.853 2.407.597 0 1.63-.639 3.853-2.407l.28-.222c2.658-2.11 4.215-3.09 6.33-3.65 2.264-.599 4.045-.51 7.874.065 2.72.408 3.92.452 4.352.204.466-.267 1.031-1.325 2.044-3.902 1.393-3.547 2.195-5.106 3.833-6.727 1.637-1.62 3.21-2.414 6.795-3.794l.298-.115c2.33-.899 3.39-1.471 3.644-1.908.231-.394.21-1.567-.138-3.867l-.057-.372c-.59-3.86-.681-5.623-.076-7.864.587-2.174 1.536-3.616 3.912-6.544zm.073 7.599c-.407 1.507-.336 2.898.159 6.128.04.258.04.258.068.45.507 3.353.537 4.963-.37 6.515-.937 1.603-2.364 2.373-5.715 3.668l-.303.116c-3.045 1.172-4.284 1.797-5.374 2.876-1.09 1.079-1.72 2.306-2.905 5.32-1.443 3.674-2.15 4.998-3.822 5.956-1.642.94-3.124.885-7.036.298-3.263-.49-4.668-.56-6.19-.157-1.387.367-2.59 1.125-4.816 2.89l-.277.22C52.803 97.186 51.486 98 49.5 98c-1.985 0-3.303-.815-6.436-3.307-2.504-1.991-3.648-2.728-5.094-3.11-.65-.173-1.362-.254-2.171-.254-.481 0-.995.029-1.567.085-.648.063-1.219.141-2.363.313l-.543.08c-3.388.502-5.014.532-6.582-.366-1.62-.927-2.397-2.34-3.705-5.657l-.118-.3c-1.184-3.014-1.814-4.24-2.904-5.32-1.09-1.078-2.33-1.703-5.375-2.875l-.3-.116c-3.352-1.295-4.78-2.065-5.717-3.668-.95-1.625-.894-3.092-.301-6.965.187-1.219.265-1.784.33-2.425.15-1.508.106-2.675-.171-3.703-.386-1.43-1.131-2.563-3.143-5.041-.41-.506-.596-.737-.782-.974C.827 52.202 0 50.717 0 49c0-1.718.828-3.204 2.564-5.405.184-.234.368-.463.639-.797 2.15-2.648 2.894-3.78 3.28-5.211.278-1.029.321-2.198.17-3.709-.064-.64-.142-1.203-.315-2.334l-.082-.535c-.507-3.354-.537-4.963.37-6.516.937-1.602 2.364-2.373 5.716-3.667l.302-.116.696-.27c2.393-.933 3.683-1.62 4.678-2.606 1.09-1.08 1.72-2.306 2.905-5.32 1.444-3.674 2.15-4.999 3.823-5.956 1.641-.94 3.124-.886 7.035-.298 3.261.489 4.668.56 6.19.157 1.446-.383 2.59-1.12 5.093-3.111.51-.405.742-.588.98-.771C46.264.819 47.765 0 49.5 0c1.986 0 3.304.815 6.437 3.307 2.504 1.991 3.647 2.728 5.093 3.11 1.039.275 2.22.318 3.746.168.646-.063 1.216-.14 2.358-.312l.542-.08c3.387-.502 5.012-.532 6.58.366 1.62.928 2.398 2.34 3.705 5.658l.118.299c1.184 3.014 1.815 4.24 2.905 5.32 1.09 1.079 2.329 1.703 5.374 2.876l.3.116c3.352 1.294 4.78 2.064 5.717 3.668.95 1.624.894 3.091.301 6.965-.187 1.22-.265 1.786-.33 2.428-.15 1.506-.106 2.673.171 3.7.37 1.372 1.136 2.564 2.92 4.767l.222.273C98.176 45.73 99 47.035 99 49c0 1.965-.823 3.271-3.34 6.372-2.012 2.478-2.756 3.61-3.143 5.041z"/>
        <ellipse cx="50.5" cy="50" fill="#00bfd6" rx="31.5" ry="31"/>
        <path fill="#FFF" fill-rule="nonzero" d="M66.049 32.12a2.751 2.751 0 0 1 3.823-.602 2.7 2.7 0 0 1 .605 3.792L46.62 67.88a2.751 2.751 0 0 1-3.916.532L30.036 58.44a2.7 2.7 0 0 1-.443-3.813 2.752 2.752 0 0 1 3.845-.44L43.87 62.4l22.179-30.28z"/>
        <path fill="#434A54" fill-rule="nonzero" d="M50.5 17c1.142 0 2.068.912 2.068 2.037s-.926 2.037-2.068 2.037c-16.217 0-29.364 12.95-29.364 28.926 0 15.975 13.147 28.926 29.364 28.926S79.864 65.976 79.864 50c0-1.125.926-2.037 2.068-2.037S84 48.875 84 50c0 18.225-14.998 33-33.5 33C31.998 83 17 68.225 17 50s14.998-33 33.5-33z"/>
        <path fill="#55C6D9" fill-rule="nonzero" d="M74.46 96.206c0-1.218 1.016-2.206 2.27-2.206s2.27.988 2.27 2.206v20.587c0 1.42-1.36 2.47-2.784 2.149l-25.517-5.767-25.922 5.768c-1.422.317-2.777-.733-2.777-2.15v-13.725c0-1.218 1.016-2.206 2.27-2.206s2.27.988 2.27 2.206v10.957l23.656-5.264a2.334 2.334 0 0 1 1.021.002l23.243 5.253v-17.81zM24.5 94c-.657 0-1.302.267-1.767.733a2.52 2.52 0 0 0-.733 1.77c0 .654.267 1.3.733 1.767.465.465 1.11.73 1.767.73.657 0 1.302-.265 1.767-.73.466-.468.733-1.11.733-1.767a2.52 2.52 0 0 0-.733-1.77A2.519 2.519 0 0 0 24.5 94z"/>
        <path fill="#434A54" fill-rule="nonzero" d="M58.5 17c-.657 0-1.303.267-1.767.733a2.52 2.52 0 0 0-.733 1.77c0 .654.267 1.3.733 1.767.465.465 1.11.73 1.767.73.657 0 1.303-.265 1.767-.73.465-.468.733-1.11.733-1.767a2.52 2.52 0 0 0-.733-1.77A2.519 2.519 0 0 0 58.5 17z"/>
    </g>
</svg>
