<svg xmlns="http://www.w3.org/2000/svg" width="126" height="120" viewBox="0 0 126 120">
    <g fill="none" fill-rule="evenodd">
        <path fill="#00bfd6" fill-rule="nonzero" d="M35.476 117.433H13.02a4.678 4.678 0 0 1-4.678-4.678v-38.13a4.679 4.679 0 0 1 4.678-4.68h22.457a4.678 4.678 0 0 1 4.679 4.68v38.13a4.679 4.679 0 0 1-4.679 4.678z"/>
        <path fill="#FFF" fill-rule="nonzero" d="M110.14 83.748h-7.322a5.614 5.614 0 1 0 0-11.229H62.247l1.956-2.505V58.206l-11.387 4.192-12.661 12.694v34.388l6.451 5.626a9.448 9.448 0 0 0 6.21 2.327h44.213c3.147 0 5.799-2.575 5.74-5.722a5.614 5.614 0 0 0-5.614-5.506h7.854c3.148 0 5.8-2.576 5.74-5.723a5.614 5.614 0 0 0-5.614-5.505h5.005a5.614 5.614 0 0 0 0-11.23z"/>
        <path fill="#434A54" fill-rule="nonzero" d="M24.248 105.737c-.615 0-1.219.25-1.654.685a2.357 2.357 0 0 0-.686 1.654c0 .616.25 1.22.686 1.654a2.357 2.357 0 0 0 1.654.686c.615 0 1.219-.25 1.653-.686a2.356 2.356 0 0 0 .686-1.654c0-.615-.25-1.219-.686-1.654a2.355 2.355 0 0 0-1.653-.685zM114.184 45.108c-.615 0-1.219.25-1.654.686a2.358 2.358 0 0 0-.685 1.654c0 .615.25 1.219.685 1.653a2.357 2.357 0 0 0 1.654.686c.617 0 1.219-.25 1.654-.686a2.35 2.35 0 0 0 .687-1.653 2.35 2.35 0 0 0-.687-1.654 2.352 2.352 0 0 0-1.654-.686z"/>
        <path fill="#434A54" fill-rule="nonzero" d="M125.088 27.686a2.34 2.34 0 0 0-1.655-.685l-57.546.003a2.34 2.34 0 0 0-2.34 2.34v25.965a67.055 67.055 0 0 0-9.353 4.108c-2.939 1.57-4.657 2.985-5.495 3.822l-7.43 7.43a7.015 7.015 0 0 0-5.793-3.063H13.02a7.026 7.026 0 0 0-7.017 7.018v38.13a7.026 7.026 0 0 0 7.017 7.019h22.458c3.287 0 6.053-2.273 6.81-5.33l2.782 2.426a11.786 11.786 0 0 0 7.748 2.904h70.617a2.34 2.34 0 0 0 2.339-2.34V29.34c0-.62-.247-1.215-.685-1.654zm-89.612 87.408H13.02c-1.29 0-2.34-1.05-2.34-2.34v-38.13c0-1.29 1.05-2.339 2.34-2.339h8.89v26.948a2.34 2.34 0 0 0 4.678 0V72.285h8.89c1.29 0 2.339 1.05 2.339 2.34v38.13c0 1.29-1.05 2.34-2.34 2.34zm12.668-1.75l-5.65-4.928V76.061l7.576-7.687c2.146-1.858 3.941-3.194 5.386-4.01 3.045-1.717 5.74-2.913 8.085-3.588v6.289l-2.266 6.03a2.34 2.34 0 0 0 2.266 1.76l39.277.003a3.279 3.279 0 0 1 3.276 3.275 3.279 3.279 0 0 1-3.276 3.275H79.252a2.34 2.34 0 0 0 0 4.679h30.889a3.279 3.279 0 0 1 3.275 3.275 3.279 3.279 0 0 1-3.275 3.275H79.25a2.34 2.34 0 0 0 0 4.679h25.884a3.279 3.279 0 0 1 3.275 3.275 3.279 3.279 0 0 1-3.275 3.275H79.252a2.34 2.34 0 0 0 0 4.679h17.904a3.279 3.279 0 0 1 3.275 3.275 3.279 3.279 0 0 1-3.275 3.275h-44.34a7.113 7.113 0 0 1-4.672-1.752zm56.257 1.75c.453-1 .708-2.108.708-3.275a7.905 7.905 0 0 0-.708-3.275h.734c4.386 0 7.954-3.568 7.954-7.954 0-1.279-.306-2.488-.845-3.56 3.368-.924 5.85-4.011 5.85-7.668a7.91 7.91 0 0 0-1.57-4.739V54.974a2.34 2.34 0 0 0-4.679 0v26.62a7.956 7.956 0 0 0-1.705-.186c.377-1 .632-2.108.632-3.275 0-4.385-3.568-7.953-7.954-7.953H68.227V32.676l52.867-.002v82.42h-16.693z"/>
        <path fill="#434A54" d="M76.005 32h13.001v39H76.005z"/>
        <path fill="#55C6D9" fill-rule="nonzero" d="M26.404 63.276a2.5 2.5 0 0 1-3.808 0C7.889 45.982.5 33.213.5 24.5c0-13.255 10.745-24 24-24s24 10.745 24 24c0 8.713-7.389 21.482-22.096 38.776zM43.5 24.5c0-10.493-8.507-19-19-19s-19 8.507-19 19c0 6.788 6.313 18.014 19 33.272 12.687-15.258 19-26.484 19-33.272z"/>
        <path fill="#55C6D9" fill-rule="nonzero" d="M24.5 36.25c-6.49 0-11.75-5.26-11.75-11.75s5.26-11.75 11.75-11.75 11.75 5.26 11.75 11.75-5.26 11.75-11.75 11.75zm0-4.5a7.25 7.25 0 1 0 0-14.5 7.25 7.25 0 0 0 0 14.5z"/>
    </g>
</svg>
