<svg xmlns="http://www.w3.org/2000/svg" width="117" height="120" viewBox="0 0 117 120">
    <g fill="none" fill-rule="evenodd">
        <path fill="#00bfd6" d="M46.573 8.182l47.733 14.917v23.36L78.514 51.6V29.398L28.821 13.557z"/>
        <path fill="#434A54" fill-rule="nonzero" d="M116.014 19.464a2.075 2.075 0 0 0-.647-1.088 2.588 2.588 0 0 0-.47-.373 2.567 2.567 0 0 0-.3-.15c-.048-.028-18.584-5.94-55.609-17.735a2.52 2.52 0 0 0-1.526 0L2.075 17.742a2.518 2.518 0 0 0-1.762 2.396v60.423c0 1.098.714 2.07 1.762 2.4l19.451 6.575c.33.105.873-1.358 1.626-4.389L5.348 78.72V21.98l16.785-5.34 47.08 14.982-10.995 3.497-42.044-13.373a2.517 2.517 0 1 0-1.526 4.798L55.7 39.602v29.924a2.518 2.518 0 0 0 5.035 0V39.602l14.268-4.532v16.702a2.518 2.518 0 0 0 3.273 2.4l5.873-1.874a2.517 2.517 0 1 0-1.526-4.798l-2.593.825V33.472l13.006-4.14v14.854l-2.86.91a2.517 2.517 0 0 0 .756 4.916c.256 0 .51-.04.755-.118l4.617-1.468a2.517 2.517 0 0 0 1.762-2.4V27.722l13.021-4.139v55.136l-3.272 1.045a2.518 2.518 0 1 0 1.371 4.845c.031-.01 1.756-.558 5.175-1.648a2.517 2.517 0 0 0 1.762-2.4V20.139a2.517 2.517 0 0 0-.109-.674zm-38.496 9.514l-47.08-14.98 9.739-3.1 47.079 14.98-9.738 3.1zm18.04-5.74L48.483 8.255l9.736-3.096 47.079 14.98-9.738 3.099z"/>
        <path fill="#434A54" fill-rule="nonzero" d="M13.345 63A2.345 2.345 0 0 0 11 65.345v17.034a2.345 2.345 0 0 0 4.69 0V65.345A2.345 2.345 0 0 0 13.345 63zM13.344 56c-.617 0-1.221.25-1.657.687a2.363 2.363 0 0 0-.687 1.66c0 .613.25 1.218.687 1.656a2.36 2.36 0 0 0 1.657.684A2.36 2.36 0 0 0 15 60.004c.436-.438.687-1.04.687-1.657 0-.619-.251-1.223-.687-1.66A2.361 2.361 0 0 0 13.344 56zM22.344 85c-.617 0-1.221.25-1.657.687a2.363 2.363 0 0 0-.687 1.66c0 .613.25 1.218.687 1.656a2.36 2.36 0 0 0 1.657.684A2.36 2.36 0 0 0 24 89.004c.436-.438.686-1.04.686-1.657 0-.619-.25-1.223-.686-1.66A2.361 2.361 0 0 0 22.344 85z"/>
        <path fill="#55C6D9" fill-rule="nonzero" d="M98.5 53.47a2.518 2.518 0 0 0-2.518 2.517v26.246c-.014 12.508-10.15 22.645-22.659 22.659h-30.21a2.518 2.518 0 0 0-2.518 2.517v5.235L22.327 99.857 40.595 87.07v5.234a2.518 2.518 0 0 0 2.517 2.517h22.659c8.339-.008 15.097-6.766 15.105-15.105v-1.07a2.518 2.518 0 0 0-5.035 0v1.07c0 5.561-4.509 10.07-10.07 10.07H45.63v-7.553a2.518 2.518 0 0 0-3.96-2.062L16.493 97.795a2.517 2.517 0 0 0 0 4.124l25.177 17.623a2.517 2.517 0 0 0 3.96-2.062v-7.553h27.693c15.288-.018 27.676-12.406 27.694-27.694V55.987a2.518 2.518 0 0 0-2.518-2.518z"/>
        <path fill="#00bfd6" d="M20 41h25.183v6.519L31.979 80h-8.135L36.66 48.354H20z"/>
    </g>
</svg>
