<?xml version="1.0" encoding="utf-8"?>
<!-- Generator: Adobe Illustrator 16.0.0, SVG Export Plug-In . SVG Version: 6.00 Build 0)  -->
<!DOCTYPE svg PUBLIC "-//W3C//DTD SVG 1.1//EN" "http://www.w3.org/Graphics/SVG/1.1/DTD/svg11.dtd">
<svg version="1.1" id="Layer_1" xmlns="http://www.w3.org/2000/svg" xmlns:xlink="http://www.w3.org/1999/xlink" x="0px" y="0px"
	 width="402px" height="154px" viewBox="0 0 402 154" enable-background="new 0 0 402 154" xml:space="preserve">
<path fill-rule="evenodd" clip-rule="evenodd" fill="#FDFDFD" d="M40.945,82.758c-0.895,0.876-0.71,1.971-0.611,3.047
	c-0.024,0.75-0.049,1.5-0.074,2.249c-1.544,0.963-3.089,1.926-4.822,3.007c-1.141-2.455-3.839-2.003-5.634-3.357
	c-2.944-2.22-5.835-0.97-6.548,2.712c-0.251,1.295-0.04,2.68-0.04,4.046c-2.063,1.111-4.118,1.559-6.403,0.601
	c-1.798-0.753-3.235,0.012-3.96,1.717c-0.702,1.652-0.422,3.556,1.268,4.192c2.61,0.979,5.14,2.519,8.153,2.134
	c6.23-0.797,12.559,0.653,18.765-0.78c0.46,8.338,3.7,15.799,7.301,23.146c-0.739,0.833-1.7,0.857-2.725,0.848
	c-3.609-0.034-7.22-0.042-10.829,0.013c-1.152,0.018-2.602-0.524-3.263,1.559c49.647,1.7,99.183,1.654,148.737-0.437
	c-5.536-1.958-11.29-1.131-16.964-1.254c-0.002-1.832,1.178-3.22,1.813-4.811c3.578-8.944,6.144-18.118,6.455-27.822
	c0.195-6.097-0.333-12.111-1.892-18.021c3.804-3.191,8.645-2.309,12.766-2.136c3.844,0.161,7.37-0.048,10.879-1.236
	c2.594-0.879,4.318-2.821,3.584-5.719c-0.742-2.938-3.451-2.885-5.541-2.208c-2.752,0.89-5.031,0.247-7.537-0.737
	c0.633-1.979,0.664-3.76-0.096-5.598c-1.348-3.26-3.669-4.144-6.409-3.005c-3.429,1.426-6.534,5.726-10.929,1.855
	c-0.191-0.169-0.855-0.112-1.054,0.086c-1.811,1.806-3.419,0.42-5.077-0.25c-2.666-4.22-5.603-8.226-9.488-11.416
	c-1.797-1.475-3.704-2.821-5.626-4.133c-5.606-3.826-11.202-7.622-17.618-10.102c-9.964-3.853-20.278-3.217-30.609-2.959
	c-4.174,0.104-8.091,0.818-11.619,3.144c-1.98-2.215-2.489-6.042-6.979-5.716c0.704-1.297,1.204-2.216,1.259-2.317
	c-6.298-5.476-12.796-10.487-21.792-8.433c-1.192,0.373-1.553,1.833-2.511,2.769c-1.686-1.376-5.925-1.906-7.45-0.648
	c-2.23,1.841-5.635,1.542-7.398,3.406c-3.092,3.27-5.364,7.278-8.925,10.238c-1.042,0.866-0.356,1.979,1.207,2.087
	c2.31,0.161,1.431,1.599,1.341,2.777c-6.246,0.767-8.422,0.593-7.304,4.932c-2.402-0.309-2.25,1.727-2.938,3.25
	c1.628,0.417,3.39,0.827,2.771,3.198c-1.157,0.068-2.245,0.133-3.549,0.209c0.234,3.021-2.742,4.163-3.564,6.734
	c-0.751,2.351-0.208,3.722,1.844,3.634c3.815-0.164,4.334,3.263,5.29,5.147c1.792,3.531,3.632,5.543,7.151,4.59
	c2.56-0.693,5.122-0.905,7.94-0.989c-0.37-2.701,1.485-3.467,3.674-4.074c0.187,0.787,0.355,1.495,0.521,2.2
	c-0.198,1.088-0.069,2.408-0.649,3.224C41.935,71.997,42.352,77.623,40.945,82.758z M382.877,83.766l0.072,0.065
	c0.375-2.08-0.686-3.166-2.475-4.008c-4.977-2.343-10.141-1.732-15.527-1.561c0,1.731,0.049,3.097-0.01,4.457
	c-0.361,8.542,0.73,17.113-0.563,25.651c-0.152,1.011,0.186,2.851,2.119,2.788c6.096-0.192,12.105,0.743,17.404-4.385
	c6.197-5.998,7.736-15.653,2.281-22.324C385.186,83.233,384.281,82.546,382.877,83.766z M51.99,135.007
	c36.239,2.578,72.477,2.583,108.713,0.018C124.463,132.45,88.226,132.489,51.99,135.007z M338.664,94.839
	c0.467-9.434-7.98-16.971-16.637-17.009c-9.299-0.042-16.887,7.403-17.041,16.737c-0.152,9.127,7.51,16.9,16.756,16.998
	C331.086,111.663,338.611,104.226,338.664,94.839z M304.369,110.761c-2.605-5.06-5.047-9.8-7.5-14.563
	c0.537-0.323,1.064-0.643,1.594-0.958c3.834-2.286,5.664-6.158,4.74-10.028c-0.953-3.982-4.244-6.836-8.607-7.048
	c-3.951-0.192-7.918-0.04-12.205-0.04c0,10.721,0.02,21.045-0.021,31.368c-0.006,1.651,0.807,1.874,2.205,1.583
	c1.717-4.67,0.42-9.656,1.145-14.406c7.4-1.017,7.396-1.015,10.502,5.049c1.305,2.545,2.736,5.031,3.912,7.635
	C300.992,111.259,302.219,111.581,304.369,110.761z M251.488,95.423c0-5.711-0.012-10.322,0.008-14.935
	c0.004-1.183,0.057-2.339-1.602-2.332c-1.369,0.005-1.543,0.888-1.539,2.019c0.021,10.211,0.012,20.422,0.012,30.602
	c2.869,1.074,3.057-0.344,3.184-2.434c0.23-3.752-1.512-8.064,2.785-10.979c2.893,3.572,6.064,6.879,8.549,10.771
	c1.383,2.167,3.268,3.685,6.633,2.808c-4.498-5.535-8.859-10.901-13.293-16.354c4.256-5.363,8.461-10.664,12.873-16.225
	c-3.572-0.227-3.607-0.256-5.293,1.813C259.896,84.971,256.029,89.796,251.488,95.423z M360.998,78.436
	c-2.957-1.021-4.563,0.099-5.787,2.382c-1.057,1.97-2.365,3.805-3.559,5.702c-5.082,8.071-10.162,16.144-15.273,24.265
	c2.746,1.14,3.785-0.323,5.035-2.087c1.436-2.026,1.75-5.384,4.834-5.665c3.789-0.344,7.631-0.082,11.375-0.082
	c1.258,8.076,1.258,8.076,3.375,7.734C360.998,99.992,360.998,89.289,360.998,78.436z M198.473,105.453
	c1.105,2.274,2.6,3.726,4.588,4.663c4.535,2.139,8.973,2.063,13.061-0.975c4.791-3.561,4.557-9.805-0.357-13.238
	c-3.02-2.109-6.713-2.574-9.955-4.119c-2.318-1.105-4.434-2.585-4.135-5.594c0.326-3.277,2.67-4.565,5.582-5.139
	c2.43-0.479,4.814-0.201,6.83,1.19c1.838,1.271,2.855,0.869,3.68-0.979c-4.072-3.641-9.639-4.539-14.254-2.32
	c-3.389,1.629-5.262,4.447-4.961,8.086c0.479,5.747,5.053,7.501,9.729,8.929c0.238,0.072,0.469,0.176,0.697,0.275
	c1.59,0.688,3.293,1.195,4.744,2.106c3.695,2.322,3.613,6.319-0.063,8.748c-3.402,2.249-8.48,1.862-11.273-1.406
	C200.867,103.903,199.951,104.196,198.473,105.453z M141.486,142.87c-24.241-2.245-48.44-2.476-72.619,0.102
	C93.09,145.253,117.307,145.475,141.486,142.87z M230.855,108.001c-0.836-1.462-0.504-2.727-0.508-3.938
	c-0.027-7.726,0-15.453-0.025-23.18c-0.004-1.151,0.475-2.713-1.529-2.742c-2.057-0.031-1.533,1.569-1.537,2.701
	c-0.031,7.852-0.055,15.703,0.008,23.554c0.018,2.186-0.418,4.429,0.346,6.689c5.98,0,11.807,0,17.705,0
	c0.648-2.006,0.436-3.157-1.99-3.108C239.123,108.063,234.92,108.001,230.855,108.001z M224.068,78.217
	c-2.045-0.591-3.125-0.393-3.111,1.874c0.055,10.207,0.023,20.414,0.023,30.62c2.236,0.949,3.133,0.49,3.117-1.888
	C224.031,98.724,224.068,88.622,224.068,78.217z"/>
<path fill-rule="evenodd" clip-rule="evenodd" fill="#262122" d="M45.89,64.129c-0.168-0.707-0.336-1.415-0.523-2.202
	c-2.189,0.607-4.044,1.373-3.674,4.074c-2.818,0.084-5.38,0.296-7.94,0.989c-3.519,0.953-5.36-1.06-7.151-4.59
	c-0.956-1.884-1.474-5.312-5.29-5.147c-2.052,0.088-2.595-1.283-1.844-3.634c0.822-2.571,3.798-3.713,3.564-6.734
	c1.304-0.077,2.392-0.141,3.549-0.209c0.618-2.371-1.143-2.781-2.771-3.198c0.688-1.523,0.537-3.559,2.938-3.25
	c-1.118-4.339,1.058-4.165,7.304-4.932c0.09-1.178,0.969-2.617-1.341-2.777c-1.563-0.108-2.248-1.221-1.207-2.087
	c3.561-2.96,5.833-6.968,8.925-10.238c1.763-1.864,5.167-1.565,7.398-3.406c1.525-1.258,5.764-0.728,7.45,0.648
	c0.958-0.936,1.319-2.396,2.511-2.769c8.996-2.055,15.494,2.957,21.792,8.433c-0.055,0.102-0.555,1.02-1.259,2.317
	c4.489-0.326,4.998,3.501,6.979,5.716c0.135,0.806-0.258,1.689,0.722,2.332c2.78,1.825,2.072,5.127,2.131,7.486
	c0.092,3.67-3.707,4.646-6.433,5.834c-1.499-0.066-0.949-2.418-2.813-1.948c-1.978,0.499-0.856,2.342-1.648,3.233
	c0.802,0.899,1.994,0.789,3.014,1.152l-0.049-0.049c-0.083,2.37-2.342,3.032-3.642,2.945c-2.867-0.193-1.684-4.247-4.262-5.379
	c-2.416,2.142-2.48,5.512-4.008,8.135c-3.41,5.851-4.191,6.134-10.57,3.265c-0.769-0.347-2.391-1.354-2.588,0.988
	c-0.064,0.76-0.912,1.417-1.812,1.634c-0.475-0.542-0.043-1.679-1.06-1.777c-0.938-0.089-1.271,0.629-1.298,1.449
	c-0.185,5.477-0.955,11.057,2.804,16.054c2.532-4.311-1.455-8.751,0.253-13.186c1.486,1.124,2.272,2.475,3.774,2.638
	c-0.219,5.795-2.206,11.14-1.688,16.741c-0.001,0.001-0.184,0.144-0.184,0.144c-0.147,0.186-0.294,0.372-0.441,0.558
	c0.272,2.682,0.545,5.364,0.817,8.046l0.001,0.037c0.028,0.734,0.055,1.468,0.083,2.202l-0.001,0.079
	c0.003,2.206,0.005,4.413,0.008,6.619c0.066,7.225,0.19,14.45,0.167,21.675c-0.008,2.604,1.275,3.55,3.628,3.551
	c12.707,0.002,25.413-0.637,38.12-0.033c1.04,0.049,2.127-0.005,2.572-1.081c2.353-5.69,5.494-11.052,6.819-17.175
	c1.164-5.382-0.354-7.11-5.045-6.314c-4.27-0.096-7.491-2.474-10.685-4.912v0.017l-0.067-0.121c-3.105-5.07-6.587-9.65-13.322-9.628
	c0.198-3.057,1.927-3.988,4.046-3.862c1.534,0.091,3.047,0.092,4.387-0.433c2.656-1.042,4.093-0.032,5.074,2.345
	c0.471,1.142,1.093,2.222,1.627,3.338c2.099,4.39,5.054,5.955,9.55,5.045c4.135-0.836,6.429-3.639,6.615-8.234
	c0.068-1.683,1.029-2.973,1.547-4.428c1.054-2.959,5.719-3.738,4.554-7.844c0.592-2.633,1.987-5.163,1.121-7.989
	c-0.561-1.83,0.03-3.125,1.952-2.897c1.648,0.196,3.404,1.128,2.756,3.322c-0.249,0.841-0.354,1.454,0.233,1.937
	c2.558,2.105,2.103,5.109,2.463,7.874c-0.635,2.13-1.27,4.261-1.901,6.384c1.544,0.686,2.796,0.187,4.147-0.054
	c2.704-0.48,5.872-1.747,7.839,1.138c1.049,1.539,2.328,2.52,3.755,3.361c3.437,2.025,5.674,5.095,6.649,8.716
	c1.198,4.453,1.623,9.114,2.355,13.69c0.022,0.136-0.251,0.319-0.464,0.573c-2.375-1.95-0.72-4.925-1.948-7.609
	c-2.878,8.37,1.795,16.705-2.532,24.664c7.737,0.402,14.336-0.082,20.871,0.82c5.677,0.123,11.431-0.704,16.967,1.254
	c-49.555,2.091-99.09,2.137-148.737,0.437c0.661-2.083,2.111-1.541,3.263-1.559c3.609-0.055,7.219-0.047,10.829-0.013
	c1.025,0.01,1.986-0.015,2.727-0.848c2.663,0.383,4.839-0.052,4.847-3.365c0.015-6.33-0.072-12.662-0.117-18.993
	c-0.01-4.508-0.021-9.017-0.031-13.525c-0.487-7.178-2.823-14.042-3.583-21.171C49.214,66.138,48.597,64.297,45.89,64.129z
	 M118.605,103.831c-0.354,1.894-0.913,3.408-0.162,4.779c2.111,3.854,2.659,7.9,2.254,12.234c-0.296,3.163,1.149,4.788,4.63,4.426
	c2.21-0.229,4.477,0.063,6.716,0.152c1.395,0.057,2.718,0.016,3.834-1.034c2.235-2.103,4.259-9.379,2.784-12.155
	c-1.98-3.729-3.785-7.429-3.698-11.681C128.924,100.053,124.495,104.577,118.605,103.831z M112.82,106.363
	c-4.059,5.774-6.021,12.457-10.275,18.907c5.599,0,10.144,0.007,14.688-0.008c0.475-0.002,0.948-0.13,1.373-0.192
	C119.571,120.036,116.663,110.137,112.82,106.363z M64.993,48.357c-0.521-1.653-0.797-3.615-2.7-3.51
	c-1.522,0.084-3.157,1.297-3.078,3.036c0.07,1.549,1.604,2.871,2.996,3.062C63.673,51.144,64.793,49.867,64.993,48.357z
	 M139.799,124.594c2.396-2.249,2.181-4.704,1.977-7.155C140.964,119.558,138.83,121.243,139.799,124.594z M65.059,38.722
	c1.68-1.836,3.758-2.762,3.646-5.334C65.041,34.849,65.041,34.849,65.059,38.722z"/>
<path fill-rule="evenodd" clip-rule="evenodd" fill="#F92B52" d="M80.272,49.22c-1.02-0.363-2.211-0.253-3.014-1.152
	c0.792-0.891-0.33-2.734,1.648-3.233c1.863-0.47,1.313,1.882,2.813,1.948c2.726-1.188,6.524-2.164,6.433-5.834
	c-0.059-2.359,0.649-5.661-2.131-7.486c-0.979-0.643-0.587-1.526-0.722-2.332c3.528-2.326,7.445-3.04,11.619-3.144
	c10.331-0.258,20.646-0.894,30.609,2.959c6.416,2.48,12.012,6.276,17.618,10.102c1.922,1.312,3.829,2.658,5.626,4.133
	c3.886,3.19,6.822,7.196,9.489,11.416c-4.108,5.235-9.65,4.475-12.071-3.118c-0.908-2.847-2.844-5.721-6.121-6.431
	c-2.015-0.436-3.686-1.223-5.456-2.16c-5.028-2.661-12.635,1.012-12.881,6.406c-0.18,3.924-2.14,5.526-5.531,6.21
	c-2.426,0.489-4.189,1.542-5.234,4.076c-1.242,3.011-6.867,4.532-9.896,3.052c-3.971-1.94-11.574-0.165-14.442,3.229
	c-1.577,1.866-1.028,3.175,1.04,3.462c7.013,0.971,14.011,2.294,21.157,1.703c1.743-0.145,3.184-2.338,5.171-0.756
	c1.165,4.105-3.5,4.885-4.554,7.844c-0.518,1.455-1.479,2.745-1.547,4.428c-0.187,4.595-2.48,7.397-6.615,8.234
	c-4.496,0.91-7.451-0.655-9.55-5.045c-0.535-1.117-1.156-2.197-1.627-3.338c-0.981-2.377-2.417-3.387-5.074-2.345
	c-1.34,0.525-2.854,0.524-4.387,0.433c-2.119-0.126-3.848,0.805-4.046,3.862c6.735-0.022,10.217,4.558,13.32,9.628
	c-1.655,0.486-2.981-0.026-4.543-0.792c-2.764-1.357-4.049-4.778-6.997-5.353c-4.309-0.841-5.369-3.969-6.099-7.358
	c-0.51-2.373-1.69-3.484-4.005-3.54c-5.078-0.123-9.856,0.897-14.146,3.752c-0.518-5.6,1.469-10.945,1.688-16.74
	c-1.501-0.163-2.288-1.514-3.774-2.638c-1.708,4.435,2.279,8.875-0.253,13.186c-3.758-4.998-2.988-10.578-2.804-16.054
	c0.027-0.82,0.36-1.539,1.298-1.449c1.016,0.098,0.585,1.234,1.06,1.777c0.899-0.217,1.747-0.875,1.812-1.634
	c0.197-2.343,1.819-1.335,2.588-0.988c6.379,2.869,7.16,2.586,10.57-3.265c1.528-2.623,1.593-5.993,4.008-8.135
	c2.578,1.132,1.396,5.186,4.262,5.379c1.3,0.087,3.559-0.575,3.638-2.948C80.234,49.184,80.253,49.202,80.272,49.22z"/>
<path fill-rule="evenodd" clip-rule="evenodd" fill="#ECD1AF" d="M115.997,72.27c-1.987-1.582-3.428,0.611-5.171,0.756
	c-7.146,0.592-14.145-0.732-21.157-1.703c-2.068-0.287-2.617-1.596-1.04-3.462c2.868-3.394,10.471-5.168,14.442-3.229
	c3.028,1.48,8.653-0.041,9.896-3.052c1.045-2.534,2.809-3.587,5.234-4.076c3.392-0.684,5.352-2.286,5.531-6.21
	c0.246-5.394,7.853-9.066,12.881-6.406c1.771,0.937,3.441,1.724,5.456,2.16c3.277,0.71,5.213,3.584,6.121,6.431
	c2.421,7.593,7.963,8.354,12.071,3.118c1.657,0.671,3.266,2.057,5.076,0.25c0.198-0.199,0.862-0.255,1.054-0.086
	c4.395,3.87,7.5-0.429,10.929-1.855c2.739-1.139,5.061-0.255,6.409,3.005c0.76,1.837,0.729,3.618,0.096,5.598
	c2.506,0.983,4.785,1.627,7.537,0.737c2.09-0.676,4.799-0.729,5.541,2.208c0.734,2.898-0.99,4.84-3.584,5.719
	c-3.51,1.188-7.035,1.397-10.879,1.236c-4.121-0.173-8.962-1.055-12.763,2.136c-1.419-0.275-0.954-2.567-2.858-2.504
	c-2.454,0.082-4.919-0.224-7.379-0.22c-5.549,0.011-11.139,0.554-16.637,0.054c-6.269-0.57-12.224,0.727-18.28,1.642
	c-0.36-2.765,0.095-5.769-2.463-7.874c-0.587-0.483-0.482-1.096-0.233-1.937c0.648-2.194-1.107-3.126-2.756-3.322
	c-1.922-0.228-2.513,1.068-1.952,2.897C117.984,67.106,116.588,69.636,115.997,72.27z"/>
<path fill-rule="evenodd" clip-rule="evenodd" fill="#F92B52" d="M124.522,74.517c6.057-0.915,12.012-2.212,18.28-1.642
	c5.498,0.5,11.088-0.043,16.637-0.054c2.46-0.004,4.925,0.302,7.379,0.22c1.904-0.063,1.439,2.229,2.858,2.504
	c1.556,5.911,2.084,11.925,1.889,18.022c-0.312,9.704-2.877,18.878-6.455,27.822c-0.636,1.591-1.815,2.979-1.815,4.811
	c-6.536-0.902-13.135-0.418-20.872-0.82c4.327-7.959-0.346-16.294,2.532-24.664c1.229,2.685-0.427,5.659,1.948,7.609
	c0.213-0.254,0.486-0.438,0.464-0.573c-0.732-4.576-1.157-9.238-2.355-13.69c-0.976-3.621-3.213-6.691-6.649-8.716
	c-1.427-0.841-2.706-1.822-3.755-3.361c-1.967-2.885-5.135-1.618-7.839-1.138c-1.352,0.24-2.604,0.74-4.147,0.054
	C123.252,78.777,123.887,76.647,124.522,74.517z"/>
<path fill-rule="evenodd" clip-rule="evenodd" fill="#ECD1AF" d="M53.041,89.588c0.01,4.509,0.021,9.018,0.031,13.525
	c-4.02-0.132-7.934-1.865-12.033-0.788c-6.207,1.434-12.535-0.017-18.765,0.78c-3.014,0.385-5.543-1.154-8.153-2.134
	c-1.69-0.636-1.97-2.54-1.268-4.192c0.725-1.705,2.162-2.47,3.96-1.717c2.285,0.958,4.34,0.51,6.403-0.601
	c0-1.366-0.211-2.751,0.04-4.046c0.713-3.682,3.604-4.932,6.548-2.712c1.795,1.354,4.493,0.902,5.634,3.357
	c1.733-1.081,3.278-2.044,4.823-3.007C44.83,91.416,49.438,91.969,53.041,89.588z"/>
<path fill-rule="evenodd" clip-rule="evenodd" fill="#262122" d="M51.99,135.007c36.236-2.518,72.474-2.557,108.713,0.018
	C124.466,137.59,88.229,137.585,51.99,135.007z"/>
<path fill-rule="evenodd" clip-rule="evenodd" fill="#262122" d="M338.664,94.839c-0.053,9.387-7.578,16.824-16.922,16.727
	c-9.246-0.098-16.908-7.871-16.756-16.998c0.154-9.334,7.742-16.779,17.041-16.737C330.684,77.868,339.131,85.405,338.664,94.839z
	 M335.602,94.691c-0.023-7.464-6.107-13.71-13.445-13.806c-7.691-0.101-14.119,6.295-14.039,13.971
	c0.076,7.377,6.26,13.547,13.662,13.635C329.271,108.579,335.625,102.235,335.602,94.691z"/>
<path fill-rule="evenodd" clip-rule="evenodd" fill="#262122" d="M304.369,110.761c-2.15,0.82-3.377,0.498-4.236-1.408
	c-1.176-2.604-2.607-5.09-3.912-7.635c-3.105-6.063-3.102-6.065-10.502-5.049c-0.725,4.75,0.572,9.736-1.145,14.406
	c-1.398,0.291-2.211,0.068-2.205-1.583c0.041-10.323,0.021-20.647,0.021-31.368c4.287,0,8.254-0.152,12.205,0.04
	c4.363,0.212,7.654,3.065,8.607,7.048c0.924,3.87-0.906,7.742-4.74,10.028c-0.529,0.315-1.057,0.635-1.594,0.958
	C299.322,100.961,301.764,105.701,304.369,110.761z M285.684,81.336c0,4.112,0,7.797,0,11.394c1.357,0.726,2.627,0.498,3.852,0.492
	c1.867-0.008,3.75-0.005,5.598-0.234c3.363-0.42,5.018-2.607,5.143-5.834c0.121-3.086-2.336-5.59-5.645-5.783
	C291.783,81.204,288.918,81.336,285.684,81.336z"/>
<path fill-rule="evenodd" clip-rule="evenodd" fill="#262122" d="M382.877,83.766c1.404-1.22,2.309-0.532,3.303,0.685
	c5.455,6.671,3.916,16.326-2.281,22.324c-5.299,5.128-11.309,4.192-17.404,4.385c-1.934,0.063-2.271-1.777-2.119-2.788
	c1.293-8.538,0.201-17.109,0.563-25.651c0.059-1.36,0.01-2.726,0.01-4.457c5.387-0.172,10.551-0.782,15.527,1.561
	c1.789,0.842,2.85,1.928,2.475,4.008c-0.996,0.673-1.809,0.004-2.541-0.465c-3.799-2.432-7.914-2.406-12.242-1.91
	c0,8.895,0,17.579,0,26.624c1.648,0,3.117-0.021,4.586,0.003c5.699,0.096,9.797-2.605,12.369-7.495
	c2.566-4.88,1.834-9.621-1.326-14.065C383.227,85.722,382.197,85.009,382.877,83.766z"/>
<path fill-rule="evenodd" clip-rule="evenodd" fill="#262122" d="M251.488,95.423c4.541-5.627,8.408-10.452,12.316-15.247
	c1.686-2.069,1.721-2.04,5.293-1.813c-4.412,5.561-8.617,10.861-12.873,16.225c4.434,5.453,8.795,10.819,13.293,16.354
	c-3.365,0.877-5.25-0.641-6.633-2.808c-2.484-3.892-5.656-7.198-8.549-10.771c-4.297,2.915-2.555,7.228-2.785,10.979
	c-0.127,2.09-0.314,3.508-3.184,2.434c0-10.18,0.01-20.391-0.012-30.602c-0.004-1.131,0.17-2.014,1.539-2.019
	c1.658-0.007,1.605,1.149,1.602,2.332C251.477,85.101,251.488,89.712,251.488,95.423z"/>
<path fill-rule="evenodd" clip-rule="evenodd" fill="#262122" d="M360.998,78.436c0,10.854,0,21.557,0,32.249
	c-2.117,0.342-2.117,0.342-3.375-7.734c-3.744,0-7.586-0.262-11.375,0.082c-3.084,0.281-3.398,3.639-4.834,5.665
	c-1.25,1.764-2.289,3.227-5.035,2.087c5.111-8.121,10.191-16.193,15.273-24.265c1.193-1.897,2.502-3.732,3.559-5.702
	C356.436,78.534,358.041,77.415,360.998,78.436z M347.068,99.644c4.025,0,7.324,0,10.811,0c0-5.483,0-10.837,0-17.09
	C354.109,88.516,350.789,93.763,347.068,99.644z"/>
<path fill-rule="evenodd" clip-rule="evenodd" fill="#262122" d="M198.473,105.453c1.479-1.257,2.395-1.55,3.912,0.229
	c2.793,3.269,7.871,3.655,11.273,1.406c3.676-2.429,3.758-6.426,0.063-8.748c-1.451-0.911-3.154-1.419-4.744-2.106
	c-0.229-0.1-0.459-0.203-0.697-0.275c-4.676-1.428-9.25-3.182-9.729-8.929c-0.301-3.639,1.572-6.457,4.961-8.086
	c4.615-2.219,10.182-1.32,14.254,2.32c-0.824,1.848-1.842,2.249-3.68,0.979c-2.016-1.392-4.4-1.669-6.83-1.19
	c-2.912,0.573-5.256,1.861-5.582,5.139c-0.299,3.009,1.816,4.488,4.135,5.594c3.242,1.545,6.936,2.01,9.955,4.119
	c4.914,3.434,5.148,9.678,0.357,13.238c-4.088,3.038-8.525,3.113-13.061,0.975C201.072,109.179,199.578,107.728,198.473,105.453z"/>
<path fill-rule="evenodd" clip-rule="evenodd" fill="#F92B52" d="M53.041,89.588c-3.603,2.381-8.211,1.828-12.781-1.534
	c0.025-0.749,0.049-1.499,0.074-2.249c1.115-0.833,0.799-1.954,0.611-3.047c1.407-5.135,0.99-10.761,4.293-15.407
	c0.58-0.816,0.451-2.136,0.65-3.223c2.708,0.169,3.326,2.01,3.569,4.289C50.218,75.545,52.553,82.41,53.041,89.588z"/>
<path fill-rule="evenodd" clip-rule="evenodd" fill="#262122" d="M141.486,142.87c-24.179,2.604-48.396,2.383-72.619,0.102
	C93.045,140.395,117.245,140.625,141.486,142.87z"/>
<path fill-rule="evenodd" clip-rule="evenodd" fill="#F92B52" d="M41.039,102.325c4.099-1.077,8.013,0.656,12.033,0.788
	c0.044,6.331,0.131,12.663,0.116,18.993c-0.007,3.313-2.184,3.748-4.847,3.365C44.739,118.124,41.499,110.663,41.039,102.325z"/>
<path fill-rule="evenodd" clip-rule="evenodd" fill="#262122" d="M230.855,108.001c4.064,0,8.268,0.062,12.469-0.023
	c2.426-0.049,2.639,1.103,1.99,3.108c-5.898,0-11.725,0-17.705,0c-0.764-2.261-0.328-4.504-0.346-6.689
	c-0.063-7.851-0.039-15.702-0.008-23.554c0.004-1.132-0.52-2.732,1.537-2.701c2.004,0.029,1.525,1.591,1.529,2.742
	c0.025,7.727-0.002,15.454,0.025,23.18C230.352,105.274,230.02,106.539,230.855,108.001z"/>
<path fill-rule="evenodd" clip-rule="evenodd" fill="#262122" d="M224.068,78.217c0,10.405-0.037,20.507,0.029,30.606
	c0.016,2.378-0.881,2.837-3.117,1.888c0-10.206,0.031-20.413-0.023-30.62C220.943,77.824,222.023,77.626,224.068,78.217z"/>
<path fill-rule="evenodd" clip-rule="evenodd" fill="#ECD1AF" d="M40.945,82.758c0.188,1.094,0.504,2.214-0.611,3.047
	C40.235,84.729,40.05,83.634,40.945,82.758z"/>
<path fill-rule="evenodd" clip-rule="evenodd" fill="#F92B52" d="M102.67,100.985c4.691-0.796,6.209,0.933,5.045,6.314
	c-1.325,6.123-4.466,11.484-6.819,17.175c-0.445,1.076-1.532,1.13-2.572,1.081c-12.707-0.604-25.413,0.035-38.12,0.033
	c-2.353-0.001-3.636-0.947-3.628-3.551c0.024-7.225-0.1-14.45-0.166-21.678c0.605,0.574,0.381,1.89,1.507,1.945
	c5.335,0.264,10.829,1.334,15.967,0.426c4.55-0.805,8.844-0.803,13.331-0.503C92.399,102.574,97.628,102.745,102.67,100.985z"/>
<path fill-rule="evenodd" clip-rule="evenodd" fill="#ECD1AF" d="M102.67,100.985c-5.042,1.76-10.271,1.589-15.455,1.243
	c-4.487-0.3-8.78-0.302-13.331,0.503c-5.138,0.908-10.631-0.162-15.967-0.426c-1.126-0.056-0.902-1.371-1.507-1.945
	c-0.003-2.204-0.006-4.41-0.008-6.614c0,0.003,0.179-0.04,0.179-0.04l-0.178-0.041c-0.028-0.734-0.056-1.468-0.083-2.2
	c0.001,0.002,0.17-0.018,0.17-0.018l-0.172-0.021c-0.272-2.682-0.545-5.364-0.817-8.044c0.146-0.185,0.294-0.373,0.441-0.56
	c0,0,0.183-0.143,0.184-0.144c4.291-2.856,9.07-3.876,14.147-3.753c2.315,0.056,3.496,1.167,4.005,3.54
	c0.729,3.39,1.79,6.518,6.099,7.358c2.948,0.575,4.232,3.996,6.997,5.353c1.562,0.766,2.888,1.279,4.543,0.792
	c0.001,0,0.069,0.121,0.068,0.121c-0.035,0.103-0.069,0.206-0.104,0.308c0.035-0.108,0.069-0.217,0.104-0.325
	C95.179,98.512,98.4,100.89,102.67,100.985z"/>
<path fill-rule="evenodd" clip-rule="evenodd" fill="#F92B52" d="M118.605,103.831c5.89,0.746,10.319-3.778,16.357-3.278
	c-0.087,4.252,1.718,7.952,3.698,11.681c1.475,2.776-0.549,10.053-2.784,12.155c-1.116,1.05-2.439,1.091-3.834,1.034
	c-2.239-0.09-4.506-0.382-6.716-0.152c-3.48,0.362-4.926-1.263-4.63-4.426c0.405-4.334-0.143-8.381-2.254-12.234
	C117.692,107.239,118.251,105.725,118.605,103.831z"/>
<path fill-rule="evenodd" clip-rule="evenodd" fill="#F92B52" d="M112.82,106.363c3.843,3.773,6.751,13.673,5.786,18.707
	c-0.425,0.063-0.898,0.19-1.373,0.192c-4.545,0.015-9.09,0.008-14.688,0.008C106.798,118.82,108.761,112.138,112.82,106.363z"/>
<path fill-rule="evenodd" clip-rule="evenodd" fill="#F92B52" d="M64.993,48.357c-0.2,1.51-1.32,2.787-2.783,2.587
	c-1.391-0.19-2.925-1.512-2.996-3.062c-0.079-1.739,1.556-2.952,3.078-3.036C64.195,44.742,64.472,46.704,64.993,48.357z"/>
<path fill-rule="evenodd" clip-rule="evenodd" fill="#F92B52" d="M139.799,124.594c-0.97-3.351,1.165-5.036,1.977-7.155
	C141.98,119.89,142.196,122.345,139.799,124.594z"/>
<path fill-rule="evenodd" clip-rule="evenodd" fill="#FDFDFD" d="M65.059,38.722c-0.018-3.873-0.018-3.873,3.646-5.334
	C68.817,35.959,66.739,36.886,65.059,38.722z"/>
<path fill-rule="evenodd" clip-rule="evenodd" fill="#F3AD44" d="M91.986,96.074c-0.035,0.108-0.07,0.217-0.104,0.325
	c0.034-0.103,0.068-0.205,0.104-0.308C91.986,96.091,91.986,96.074,91.986,96.074z"/>
<polygon fill-rule="evenodd" clip-rule="evenodd" fill="#F3AD44" points="56.404,93.666 56.582,93.707 56.403,93.746 "/>
<polygon fill-rule="evenodd" clip-rule="evenodd" fill="#F3AD44" points="56.319,91.427 56.491,91.448 56.321,91.466 "/>
<path fill-rule="evenodd" clip-rule="evenodd" fill="#F3AD44" d="M55.942,82.823c-0.147,0.188-0.294,0.375-0.441,0.56
	C55.648,83.195,55.795,83.009,55.942,82.823z"/>
<path fill-rule="evenodd" clip-rule="evenodd" fill="#262122" d="M80.272,49.22c-0.019-0.018-0.039-0.036-0.053-0.052
	C80.224,49.171,80.272,49.22,80.272,49.22z"/>
<path fill-rule="evenodd" clip-rule="evenodd" fill="#FDFDFD" d="M335.602,94.691c0.023,7.544-6.33,13.888-13.822,13.8
	c-7.402-0.088-13.586-6.258-13.662-13.635c-0.08-7.676,6.348-14.071,14.039-13.971C329.494,80.981,335.578,87.228,335.602,94.691z"
	/>
<path fill-rule="evenodd" clip-rule="evenodd" fill="#FDFDFD" d="M285.684,81.336c3.234,0,6.1-0.132,8.947,0.034
	c3.309,0.193,5.766,2.697,5.645,5.783c-0.125,3.227-1.779,5.414-5.143,5.834c-1.848,0.229-3.73,0.227-5.598,0.234
	c-1.225,0.006-2.494,0.233-3.852-0.492C285.684,89.133,285.684,85.448,285.684,81.336z"/>
<path fill-rule="evenodd" clip-rule="evenodd" fill="#FDFDFD" d="M382.877,83.766c-0.68,1.243,0.35,1.956,0.918,2.757
	c3.16,4.444,3.893,9.186,1.326,14.065c-2.572,4.89-6.67,7.591-12.369,7.495c-1.469-0.024-2.938-0.003-4.586-0.003
	c0-9.045,0-17.729,0-26.624c4.328-0.496,8.443-0.521,12.242,1.91c0.732,0.469,1.545,1.138,2.541,0.465L382.877,83.766z"/>
<path fill-rule="evenodd" clip-rule="evenodd" fill="#FDFDFD" d="M347.068,99.644c3.721-5.881,7.041-11.128,10.811-17.09
	c0,6.253,0,11.606,0,17.09C354.393,99.644,351.094,99.644,347.068,99.644z"/>
</svg>
