<?xml version="1.0" encoding="utf-8"?>
<!-- Generator: Adobe Illustrator 16.0.0, SVG Export Plug-In . SVG Version: 6.00 Build 0)  -->
<!DOCTYPE svg PUBLIC "-//W3C//DTD SVG 1.1//EN" "http://www.w3.org/Graphics/SVG/1.1/DTD/svg11.dtd">
<svg version="1.1" id="Layer_1" xmlns="http://www.w3.org/2000/svg" xmlns:xlink="http://www.w3.org/1999/xlink" x="0px" y="0px"
	 width="500px" height="500px" viewBox="0 0 500 500" enable-background="new 0 0 500 500" xml:space="preserve">
<g>
	<path fill-rule="evenodd" clip-rule="evenodd" fill="#FEFEFE" d="M78.031,263.776c-2.421,2.373-1.921,5.335-1.655,8.251
		c-0.066,2.029-0.132,4.061-0.201,6.088c-4.182,2.606-8.363,5.215-13.056,8.143c-3.088-6.647-10.394-5.425-15.254-9.088
		c-7.97-6.012-15.797-2.627-17.728,7.341c-0.679,3.507-0.108,7.255-0.108,10.954c-5.584,3.01-11.15,4.22-17.335,1.629
		c-4.869-2.041-8.76,0.031-10.722,4.647c-1.9,4.475-1.143,9.628,3.434,11.349c7.067,2.653,13.916,6.82,22.075,5.778
		c16.869-2.158,34.002,1.769,50.806-2.114c1.245,22.575,10.016,42.775,19.767,62.67c-2,2.255-4.603,2.321-7.378,2.295
		c-9.772-0.093-19.547-0.113-29.318,0.034c-3.118,0.047-7.045-1.42-8.835,4.22c134.419,4.604,268.533,4.479,402.701-1.182
		c-14.985-5.302-30.563-3.061-45.926-3.396c-0.006-4.96,3.188-8.718,4.906-13.024c9.688-24.216,16.638-49.055,17.479-75.328
		c0.528-16.506-0.899-32.791-5.119-48.793c10.295-8.639,23.404-6.251,34.563-5.783c10.406,0.435,19.951-0.13,29.455-3.347
		c7.022-2.379,11.69-7.638,9.703-15.485c-2.01-7.952-9.344-7.81-15.003-5.979c-7.45,2.41-13.622,0.667-20.406-1.996
		c1.714-5.359,1.799-10.181-0.26-15.155c-3.647-8.828-9.936-11.219-17.35-8.136c-9.286,3.862-17.693,15.502-29.592,5.024
		c-0.519-0.458-2.315-0.305-2.851,0.234c-4.9,4.89-9.259,1.138-13.748-0.679c-7.218-11.425-15.167-22.271-25.689-30.908
		c-4.865-3.992-10.025-7.639-15.23-11.189c-15.181-10.359-30.331-20.636-47.702-27.351c-26.975-10.432-54.9-8.71-82.874-8.012
		c-11.301,0.283-21.906,2.214-31.458,8.513c-5.362-5.998-6.74-16.36-18.894-15.477c1.907-3.513,3.259-5.999,3.408-6.275
		c-17.051-14.825-34.645-28.394-59.001-22.831c-3.228,1.01-4.204,4.961-6.798,7.496c-4.564-3.725-16.042-5.162-20.17-1.756
		c-6.039,4.985-15.257,4.175-20.03,9.223c-8.372,8.854-14.523,19.706-24.163,27.72c-2.821,2.345-0.964,5.358,3.266,5.652
		c6.254,0.435,3.875,4.33,3.63,7.519c-16.911,2.077-22.803,1.606-19.776,13.354c-6.502-0.835-6.092,4.676-7.956,8.8
		c4.41,1.129,9.178,2.24,7.504,8.659c-3.134,0.185-6.079,0.36-9.608,0.567c0.632,8.179-7.425,11.27-9.651,18.231
		c-2.035,6.366-0.563,10.079,4.992,9.84c10.331-0.444,11.734,8.835,14.321,13.937c4.851,9.56,9.834,15.009,19.362,12.429
		c6.932-1.878,13.867-2.45,21.498-2.679c-1.002-7.313,4.021-9.386,9.948-11.031c0.506,2.131,0.963,4.047,1.411,5.957
		c-0.536,2.946-0.187,6.521-1.757,8.729C80.712,234.642,81.842,249.873,78.031,263.776z"/>
	<path fill-rule="evenodd" clip-rule="evenodd" fill="#FEFEFE" d="M107.935,405.24c98.117,6.979,196.23,6.993,294.34,0.048
		C304.154,398.318,206.044,398.424,107.935,405.24z"/>
	<path fill-rule="evenodd" clip-rule="evenodd" fill="#FEFEFE" d="M350.245,426.53c-65.635-6.08-131.153-6.703-196.615,0.275
		C219.214,432.98,284.779,433.582,350.245,426.53z"/>
	<path fill-rule="evenodd" clip-rule="evenodd" fill="#262122" d="M91.419,213.339c-0.454-1.915-0.911-3.831-1.417-5.962
		c-5.926,1.645-10.95,3.717-9.948,11.031c-7.63,0.229-14.566,0.801-21.498,2.679c-9.528,2.58-14.512-2.87-19.362-12.429
		c-2.587-5.102-3.99-14.38-14.321-13.937c-5.556,0.239-7.027-3.474-4.992-9.84c2.226-6.961,10.283-10.052,9.651-18.231
		c3.53-0.207,6.475-0.382,9.608-0.567c1.673-6.419-3.095-7.53-7.504-8.659c1.864-4.124,1.454-9.635,7.956-8.8
		c-3.027-11.747,2.865-11.276,19.776-13.354c0.245-3.189,2.625-7.084-3.63-7.519c-4.23-0.294-6.087-3.307-3.266-5.652
		c9.64-8.014,15.791-18.866,24.163-27.72c4.772-5.047,13.991-4.238,20.03-9.223c4.128-3.405,15.605-1.969,20.17,1.756
		c2.594-2.535,3.57-6.486,6.798-7.496c24.357-5.563,41.95,8.006,59.001,22.831c-0.149,0.276-1.501,2.762-3.408,6.275
		c12.154-0.883,13.532,9.479,18.894,15.477c0.365,2.181-0.698,4.572,1.954,6.313c7.528,4.941,5.61,13.881,5.77,20.268
		c0.249,9.936-10.037,12.578-17.417,15.795c-4.059-0.18-2.57-6.548-7.615-5.274c-5.355,1.351-2.319,6.34-4.462,8.753
		c2.172,2.434,5.397,2.135,8.16,3.119l-0.132-0.132c-0.225,6.417-6.341,8.21-9.861,7.975c-7.762-0.522-4.56-11.499-11.541-14.564
		c-6.539,5.801-6.714,14.923-10.852,22.025c-9.233,15.84-11.347,16.607-28.618,8.839c-2.081-0.938-6.474-3.667-7.007,2.676
		c-0.175,2.057-2.47,3.836-4.905,4.425c-1.285-1.469-0.117-4.546-2.869-4.811c-2.538-0.243-3.44,1.702-3.514,3.923
		c-0.5,14.828-2.585,29.936,7.591,43.466c6.855-11.672-3.94-23.692,0.685-35.701c4.024,3.043,6.152,6.701,10.217,7.141
		c-0.592,15.69-5.971,30.163-4.571,45.328c-0.003,0.002-0.497,0.39-0.497,0.39c-0.397,0.504-0.796,1.008-1.194,1.511
		c0.738,7.262,1.476,14.524,2.214,21.785l0.003,0.1c0.075,1.987,0.15,3.974,0.227,5.961l-0.005,0.213
		c0.008,5.973,0.015,11.947,0.023,17.921c0.18,19.56,0.516,39.123,0.451,58.685c-0.023,7.049,3.452,9.61,9.822,9.613
		c34.403,0.005,68.804-1.724,103.208-0.09c2.816,0.132,5.759-0.014,6.963-2.927c6.371-15.407,14.875-29.922,18.461-46.5
		c3.151-14.572-0.958-19.251-13.658-17.097c-11.562-0.259-20.283-6.699-28.928-13.298v0.046l-0.183-0.328
		c-8.407-13.729-17.834-26.129-36.068-26.069c0.537-8.275,5.218-10.797,10.954-10.456c4.152,0.246,8.25,0.248,11.878-1.172
		c7.192-2.819,11.082-0.086,13.737,6.35c1.276,3.09,2.959,6.015,4.407,9.039c5.682,11.886,13.684,16.12,25.856,13.659
		c11.195-2.266,17.404-9.854,17.911-22.292c0.186-4.559,2.787-8.05,4.188-11.989c2.851-8.012,15.484-10.122,12.327-21.237
		c1.602-7.13,5.384-13.979,3.034-21.629c-1.517-4.954,0.084-8.463,5.289-7.845c4.463,0.53,9.217,3.055,7.461,8.995
		c-0.677,2.277-0.958,3.936,0.629,5.244c6.928,5.701,5.695,13.832,6.669,21.319c-1.72,5.768-3.438,11.536-5.145,17.284
		c4.178,1.857,7.566,0.506,11.226-0.146c7.323-1.3,15.901-4.729,21.227,3.08c2.84,4.167,6.304,6.824,10.163,9.101
		c9.308,5.481,15.362,13.796,18.006,23.599c3.241,12.056,4.395,24.677,6.378,37.066c0.058,0.368-0.682,0.865-1.259,1.553
		c-6.43-5.28-1.946-13.334-5.272-20.603c-7.794,22.663,4.859,45.229-6.859,66.778c20.952,1.088,38.815-0.224,56.508,2.22
		c15.374,0.335,30.952-1.906,45.938,3.396c-134.168,5.661-268.282,5.786-402.701,1.182c1.79-5.64,5.717-4.173,8.835-4.22
		c9.771-0.147,19.546-0.127,29.318-0.034c2.775,0.026,5.378-0.04,7.382-2.295c7.21,1.036,13.102-0.141,13.122-9.111
		c0.04-17.14-0.194-34.282-0.316-51.424c-0.028-12.204-0.056-24.412-0.083-36.619c-1.319-19.435-7.643-38.021-9.702-57.32
		C100.421,218.779,98.75,213.795,91.419,213.339z M288.295,320.831c-0.956,5.128-2.474,9.229-0.438,12.94
		c5.716,10.433,7.197,21.391,6.104,33.125c-0.805,8.563,3.109,12.963,12.531,11.981c5.987-0.62,12.12,0.171,18.187,0.414
		c3.774,0.153,7.355,0.042,10.38-2.801c6.05-5.692,11.528-25.393,7.536-32.91c-5.362-10.095-10.249-20.113-10.011-31.625
		C316.232,310.602,304.239,322.852,288.295,320.831z M272.632,327.688c-10.989,15.634-16.303,33.727-27.821,51.189
		c15.157,0,27.462,0.02,39.767-0.021c1.286-0.004,2.571-0.351,3.718-0.521C290.907,364.706,283.034,337.905,272.632,327.688z
		 M143.141,170.639c-1.411-4.477-2.159-9.788-7.312-9.503c-4.121,0.228-8.548,3.511-8.333,8.219c0.19,4.195,4.344,7.773,8.111,8.289
		C139.567,178.183,142.6,174.727,143.141,170.639z M345.676,377.047c6.489-6.089,5.908-12.736,5.352-19.373
		C348.833,363.412,343.054,367.976,345.676,377.047z M143.32,144.55c4.549-4.971,10.175-7.479,9.871-14.442
		C143.271,134.064,143.271,134.064,143.32,144.55z"/>
	<path fill-rule="evenodd" clip-rule="evenodd" fill="#E73555" d="M184.51,172.973c-2.762-0.983-5.987-0.685-8.16-3.119
		c2.143-2.413-0.893-7.402,4.462-8.753c5.045-1.273,3.556,5.095,7.615,5.274c7.379-3.217,17.665-5.859,17.417-15.795
		c-0.16-6.387,1.758-15.326-5.77-20.268c-2.652-1.741-1.589-4.133-1.954-6.313c9.553-6.299,20.158-8.23,31.458-8.513
		c27.973-0.698,55.899-2.42,82.874,8.012c17.371,6.715,32.521,16.992,47.702,27.351c5.205,3.551,10.365,7.197,15.23,11.189
		c10.522,8.638,18.472,19.483,25.694,30.908c-11.126,14.175-26.128,12.117-32.686-8.442c-2.458-7.708-7.698-15.489-16.572-17.411
		c-5.453-1.179-9.979-3.311-14.77-5.847c-13.617-7.204-34.209,2.74-34.875,17.342c-0.486,10.624-5.795,14.963-14.975,16.814
		c-6.569,1.325-11.344,4.175-14.172,11.036c-3.365,8.151-18.594,12.271-26.793,8.262c-10.752-5.252-31.338-0.447-39.103,8.742
		c-4.271,5.051-2.784,8.595,2.815,9.373c18.987,2.628,37.936,6.212,57.284,4.609c4.717-0.393,8.62-6.331,13.998-2.047
		c3.157,11.115-9.477,13.225-12.327,21.237c-1.401,3.939-4.003,7.431-4.188,11.989c-0.507,12.438-6.716,20.026-17.911,22.292
		c-12.172,2.461-20.174-1.773-25.856-13.659c-1.448-3.024-3.131-5.949-4.407-9.039c-2.655-6.436-6.545-9.169-13.737-6.35
		c-3.628,1.42-7.726,1.418-11.878,1.172c-5.736-0.341-10.417,2.181-10.954,10.456c18.234-0.06,27.662,12.341,36.064,26.069
		c-4.48,1.316-8.073-0.071-12.3-2.146c-7.483-3.673-10.962-12.937-18.943-14.491c-11.665-2.277-14.537-10.747-16.512-19.925
		c-1.38-6.423-4.577-9.431-10.845-9.585c-13.748-0.332-26.686,2.431-38.301,10.16c-1.402-15.162,3.977-29.635,4.569-45.325
		c-4.065-0.44-6.193-4.098-10.217-7.141c-4.625,12.008,6.171,24.029-0.685,35.701c-10.176-13.53-8.091-28.639-7.591-43.466
		c0.074-2.221,0.976-4.166,3.514-3.923c2.751,0.264,1.583,3.342,2.869,4.811c2.435-0.588,4.73-2.368,4.905-4.425
		c0.533-6.343,4.926-3.614,7.007-2.676c17.271,7.768,19.385,7.001,28.618-8.839c4.138-7.102,4.313-16.225,10.852-22.025
		c6.98,3.065,3.778,14.042,11.541,14.564c3.52,0.235,9.636-1.557,9.849-7.982C184.405,172.875,184.458,172.925,184.51,172.973z"/>
	<path fill-rule="evenodd" clip-rule="evenodd" fill="#ECD2B0" d="M281.231,235.38c-5.378-4.284-9.281,1.655-13.998,2.047
		c-19.349,1.603-38.297-1.981-57.284-4.609c-5.599-0.778-7.086-4.322-2.815-9.373c7.765-9.188,28.351-13.994,39.103-8.742
		c8.2,4.009,23.428-0.111,26.793-8.262c2.828-6.861,7.603-9.711,14.172-11.036c9.18-1.851,14.488-6.19,14.975-16.814
		c0.666-14.603,21.258-24.546,34.875-17.342c4.791,2.536,9.316,4.667,14.77,5.847c8.874,1.922,14.114,9.703,16.572,17.411
		c6.558,20.559,21.56,22.617,32.686,8.442c4.484,1.817,8.843,5.569,13.743,0.679c0.535-0.539,2.332-0.692,2.851-0.234
		c11.898,10.478,20.306-1.162,29.592-5.024c7.414-3.083,13.702-0.691,17.35,8.136c2.059,4.974,1.974,9.795,0.26,15.155
		c6.784,2.663,12.956,4.405,20.406,1.996c5.659-1.831,12.993-1.974,15.003,5.979c1.987,7.848-2.681,13.106-9.703,15.485
		c-9.504,3.217-19.049,3.782-29.455,3.347c-11.158-0.468-24.268-2.855-34.558,5.782c-3.839-0.746-2.58-6.949-7.737-6.78
		c-6.647,0.222-13.319-0.605-19.977-0.595c-15.024,0.029-30.158,1.499-45.043,0.145c-16.976-1.544-33.1,1.968-49.497,4.445
		c-0.974-7.487,0.259-15.618-6.669-21.319c-1.587-1.309-1.306-2.967-0.629-5.244c1.756-5.94-2.998-8.465-7.461-8.995
		c-5.205-0.618-6.806,2.891-5.289,7.845C286.615,221.401,282.833,228.25,281.231,235.38z"/>
	<path fill-rule="evenodd" clip-rule="evenodd" fill="#E73555" d="M304.313,241.464c16.397-2.477,32.521-5.989,49.497-4.445
		c14.885,1.354,30.019-0.116,45.043-0.145c6.657-0.011,13.329,0.817,19.977,0.595c5.157-0.169,3.898,6.035,7.737,6.78
		c4.215,16.003,5.643,32.288,5.114,48.794c-0.841,26.273-7.79,51.112-17.479,75.328c-1.718,4.307-4.912,8.064-4.912,13.024
		c-17.698-2.443-35.562-1.132-56.514-2.22c11.719-21.55-0.935-44.115,6.859-66.778c3.326,7.269-1.157,15.322,5.272,20.603
		c0.577-0.688,1.316-1.185,1.259-1.553c-1.983-12.39-3.137-25.011-6.378-37.066c-2.644-9.803-8.698-18.117-18.006-23.599
		c-3.859-2.276-7.323-4.934-10.163-9.101c-5.325-7.809-13.903-4.38-21.227-3.08c-3.659,0.652-7.048,2.004-11.226,0.146
		C300.876,253,302.594,247.232,304.313,241.464z"/>
	<path fill-rule="evenodd" clip-rule="evenodd" fill="#ECD2B0" d="M110.78,282.27c0.027,12.207,0.055,24.415,0.084,36.619
		c-10.883-0.357-21.481-5.05-32.578-2.135c-16.804,3.883-33.938-0.044-50.806,2.114c-8.159,1.042-15.008-3.125-22.075-5.778
		c-4.577-1.721-5.334-6.874-3.434-11.349c1.962-4.616,5.853-6.688,10.722-4.647c6.185,2.591,11.751,1.381,17.335-1.629
		c0-3.699-0.571-7.447,0.108-10.954c1.93-9.968,9.758-13.353,17.728-7.341c4.86,3.663,12.166,2.44,15.254,9.088
		c4.693-2.928,8.875-5.536,13.057-8.143C88.549,287.217,101.026,288.715,110.78,282.27z"/>
	<path fill-rule="evenodd" clip-rule="evenodd" fill="#262122" d="M107.935,405.24c98.109-6.816,196.219-6.922,294.34,0.048
		C304.165,412.233,206.052,412.22,107.935,405.24z"/>
	<path fill-rule="evenodd" clip-rule="evenodd" fill="#E73555" d="M110.78,282.27c-9.754,6.445-22.231,4.947-34.604-4.154
		c0.067-2.027,0.134-4.059,0.202-6.088c3.018-2.257,2.162-5.29,1.653-8.251c3.811-13.903,2.682-29.134,11.625-41.713
		c1.57-2.208,1.221-5.783,1.761-8.727c7.333,0.458,9.004,5.442,9.662,11.612C103.138,244.249,109.461,262.835,110.78,282.27z"/>
	<path fill-rule="evenodd" clip-rule="evenodd" fill="#262122" d="M350.245,426.53c-65.466,7.052-131.031,6.45-196.615,0.275
		C219.092,419.827,284.61,420.45,350.245,426.53z"/>
	<path fill-rule="evenodd" clip-rule="evenodd" fill="#E73555" d="M78.287,316.754c11.097-2.915,21.695,1.777,32.578,2.135
		c0.12,17.142,0.354,34.284,0.314,51.424c-0.02,8.971-5.912,10.147-13.122,9.111C88.303,359.529,79.532,339.329,78.287,316.754z"/>
	<path fill-rule="evenodd" clip-rule="evenodd" fill="#ECD2B0" d="M78.031,263.776c0.509,2.961,1.365,5.994-1.653,8.251
		C76.109,269.111,75.609,266.149,78.031,263.776z"/>
	<path fill-rule="evenodd" clip-rule="evenodd" fill="#E73555" d="M245.152,313.128c12.7-2.154,16.81,2.524,13.658,17.097
		c-3.586,16.578-12.091,31.093-18.461,46.5c-1.205,2.913-4.147,3.059-6.963,2.927c-34.404-1.634-68.805,0.095-103.208,0.09
		c-6.37-0.003-9.845-2.564-9.822-9.613c0.064-19.562-0.271-39.125-0.45-58.692c1.638,1.555,1.031,5.116,4.08,5.266
		c14.446,0.715,29.318,3.612,43.229,1.153c12.32-2.179,23.945-2.173,36.092-1.361C217.343,317.429,231.501,317.893,245.152,313.128z
		"/>
	<path fill-rule="evenodd" clip-rule="evenodd" fill="#ECD2B0" d="M245.152,313.128c-13.651,4.765-27.81,4.301-41.845,3.365
		c-12.147-0.812-23.772-0.817-36.092,1.361c-13.912,2.459-28.784-0.438-43.229-1.153c-3.049-0.149-2.442-3.711-4.08-5.266
		c-0.009-5.966-0.016-11.94-0.023-17.908c0.002,0.007,0.485-0.107,0.485-0.107l-0.481-0.11c-0.077-1.987-0.151-3.974-0.226-5.956
		c0.002,0.005,0.46-0.048,0.46-0.048l-0.465-0.057c-0.738-7.261-1.476-14.523-2.214-21.78c0.397-0.501,0.796-1.009,1.194-1.516
		c0,0,0.494-0.388,0.497-0.39c11.618-7.732,24.556-10.495,38.304-10.163c6.268,0.154,9.465,3.162,10.845,9.585
		c1.975,9.178,4.847,17.647,16.512,19.925c7.981,1.555,11.459,10.818,18.943,14.491c4.228,2.075,7.82,3.463,12.3,2.146
		c0.004,0,0.187,0.328,0.184,0.328c-0.095,0.278-0.188,0.557-0.281,0.835c0.094-0.295,0.188-0.588,0.284-0.881
		C224.87,306.429,233.591,312.869,245.152,313.128z"/>
	<path fill-rule="evenodd" clip-rule="evenodd" fill="#E73555" d="M288.295,320.831c15.944,2.021,27.938-10.229,44.288-8.875
		c-0.238,11.512,4.648,21.53,10.011,31.625c3.992,7.518-1.486,27.218-7.536,32.91c-3.024,2.843-6.605,2.954-10.38,2.801
		c-6.066-0.243-12.199-1.034-18.187-0.414c-9.422,0.981-13.336-3.418-12.531-11.981c1.094-11.734-0.388-22.692-6.104-33.125
		C285.821,330.06,287.339,325.959,288.295,320.831z"/>
	<path fill-rule="evenodd" clip-rule="evenodd" fill="#E73555" d="M272.632,327.688c10.402,10.217,18.275,37.018,15.663,50.648
		c-1.146,0.17-2.432,0.517-3.718,0.521c-12.305,0.04-24.609,0.021-39.767,0.021C256.329,361.415,261.643,343.322,272.632,327.688z"
		/>
	<path fill-rule="evenodd" clip-rule="evenodd" fill="#E73555" d="M143.141,170.639c-0.541,4.088-3.574,7.544-7.534,7.004
		c-3.767-0.515-7.921-4.093-8.111-8.289c-0.214-4.708,4.213-7.991,8.333-8.219C140.981,160.851,141.729,166.162,143.141,170.639z"/>
	<path fill-rule="evenodd" clip-rule="evenodd" fill="#E73555" d="M345.676,377.047c-2.622-9.071,3.157-13.635,5.352-19.373
		C351.584,364.311,352.165,370.958,345.676,377.047z"/>
	<path fill-rule="evenodd" clip-rule="evenodd" fill="#FEFEFE" d="M143.32,144.55c-0.049-10.486-0.049-10.486,9.871-14.442
		C153.495,137.072,147.869,139.579,143.32,144.55z"/>
	<path fill-rule="evenodd" clip-rule="evenodd" fill="#F3AE44" d="M216.224,299.83c-0.095,0.293-0.189,0.586-0.284,0.881
		c0.092-0.278,0.186-0.557,0.281-0.835C216.224,299.876,216.224,299.83,216.224,299.83z"/>
	<path fill-rule="evenodd" clip-rule="evenodd" fill="#F3AE44" d="M119.887,293.31l0.481,0.11c0,0-0.483,0.114-0.485,0.107
		C119.882,293.522,119.887,293.31,119.887,293.31z"/>
	<polygon fill-rule="evenodd" clip-rule="evenodd" fill="#F3AE44" points="119.657,287.249 120.122,287.306 119.661,287.354 	"/>
	<path fill-rule="evenodd" clip-rule="evenodd" fill="#F3AE44" d="M118.637,263.953c-0.397,0.507-0.797,1.015-1.194,1.516
		C117.841,264.961,118.239,264.457,118.637,263.953z"/>
	<path fill-rule="evenodd" clip-rule="evenodd" fill="#262122" d="M184.51,172.973c-0.052-0.048-0.105-0.098-0.144-0.14
		C184.378,172.841,184.51,172.973,184.51,172.973z"/>
</g>
</svg>
